<svg xmlns="http://www.w3.org/2000/svg" xml:space="preserve" viewBox="0 0 98.8 87">
    <path fill="#FF4500" d="M62 12.7c1.1 4.6 5.2 8 10 8A10.3 10.3 0 0 0 72 0c-5 0-9.1 3.5-10.1 8.3-8.3.9-14.8 8-14.8 16.6v.1q-13.8.8-23.9 7.1A14.4 14.4 0 0 0 0 43.5c0 5.8 3.4 10.8 8.3 13.2C8.8 73.5 27 87 49.4 87s40.7-13.5 41.1-30.4a14.5 14.5 0 1 0-15-24.6 49 49 0 0 0-24.1-7v-.1c.1-6.2 4.7-11.3 10.6-12.2m-39.3 40c.2-5.2 3.7-9.3 7.8-9.3s7.1 4.3 6.9 9.5-3.3 7.2-7.3 7.2-7.7-2.1-7.4-7.4m45.8-9.3c4.1 0 7.5 4 7.8 9.3.2 5.2-3.3 7.4-7.3 7.4s-7-1.9-7.3-7.2 2.7-9.5 6.8-9.5m-4.8 21.5c.8.1 1.3.9 1 1.6a16.4 16.4 0 0 1-30.4 0q-.3-1.2 1-1.6a159 159 0 0 1 28.4 0"/>
</svg>
