<?xml version="1.0" encoding="UTF-8"?>
<svg id="Calque_2" data-name="Calque 2" xmlns="http://www.w3.org/2000/svg" xmlns:xlink="http://www.w3.org/1999/xlink" viewBox="0 0 670.2 541.6">
  <defs>
    <style>
      .cls-1 {
        fill: url(#Dégradé_sans_nom_9);
      }
    </style>
    <radialGradient id="Dégradé_sans_nom_9" data-name="Dégradé sans nom 9" cx="477.02" cy="273.62" fx="477.02" fy="273.62" r="235.94" gradientTransform="translate(333.2 -257.16) rotate(45)" gradientUnits="userSpaceOnUse">
      <stop offset=".19" stop-color="#eee4c7"/>
      <stop offset=".56" stop-color="#e0d7b8"/>
      <stop offset="1" stop-color="#ccc4a2"/>
    </radialGradient>
  </defs>
  <path class="cls-1" d="M368.31,410l53.65-53.65c1.19-1.19,3.05-1.42,4.49-.54,30.91,19.05,70.23,19.05,101.14,0,1.44-.89,3.3-.66,4.49.54l53.65,53.65c1.9,1.9,1.68,5.05-.46,6.67-8.46,6.42-17.37,11.99-26.59,16.71-4.16,2.12-2.68,8.38,1.98,8.38h80.07c2.44,0,4.43-1.98,4.43-4.43v-80.07c0-4.67-6.25-6.14-8.38-1.98-4.72,9.23-10.29,18.13-16.71,26.59-1.62,2.14-4.77,2.36-6.67.46l-53.65-53.65c-1.19-1.19-1.42-3.05-.54-4.49,19.05-30.91,19.05-70.23,0-101.14-.89-1.44-.66-3.3.54-4.49l53.65-53.65c1.9-1.9,5.05-1.68,6.67.46,6.42,8.46,11.99,17.37,16.71,26.59,2.12,4.16,8.38,2.68,8.38-1.98v-80.07c0-2.44-1.98-4.43-4.43-4.43h-80.07c-4.67,0-6.14,6.25-1.98,8.38,9.23,4.72,18.13,10.29,26.59,16.71,2.14,1.62,2.36,4.77.46,6.67l-53.65,53.65c-1.19,1.19-3.05,1.42-4.49.54-30.91-19.05-70.23-19.05-101.14,0-1.44.89-3.3.66-4.49-.54l-53.65-53.65c-1.9-1.9-1.68-5.05.46-6.67,8.46-6.42,17.37-11.99,26.59-16.71,4.16-2.12,2.68-8.38-1.98-8.38h-80.07c-2.44,0-4.43,1.98-4.43,4.43v80.07c0,4.67,6.25,6.14,8.38,1.98,4.72-9.23,10.29-18.13,16.71-26.59,1.62-2.14,4.77-2.36,6.67-.46l53.65,53.65c1.19,1.19,1.42,3.05.54,4.49-19.05,30.91-19.05,70.23,0,101.14.89,1.44.66,3.3-.54,4.49l-53.65,53.65c-1.9,1.9-5.05,1.68-6.67-.46-6.42-8.46-11.99-17.37-16.71-26.59-2.12-4.16-8.38-2.68-8.38,1.98v80.07c0,2.44,1.98,4.43,4.43,4.43h80.07c4.67,0,6.14-6.25,1.98-8.38-9.23-4.72-18.13-10.29-26.59-16.71-2.14-1.62-2.36-4.77-.46-6.67Z"/>
</svg>