<?xml version="1.0" encoding="UTF-8"?>
<svg id="Calque_4" data-name="Calque 4" xmlns="http://www.w3.org/2000/svg" xmlns:xlink="http://www.w3.org/1999/xlink" viewBox="0 0 670.2 541.6">
  <defs>
    <style>
      .cls-1 {
        mask: url(#mask);
      }

      .cls-2 {
        filter: url(#luminosity-noclip);
      }

      .cls-3 {
        fill: url(#Dégradé_sans_nom_9);
      }
    </style>
    <filter id="luminosity-noclip" x="338.55" y="135.44" width="276.64" height="276.36" color-interpolation-filters="sRGB" filterUnits="userSpaceOnUse">
      <feFlood flood-color="#fff" result="bg"/>
      <feBlend in="SourceGraphic" in2="bg"/>
    </filter>
    <mask id="mask" x="338.55" y="135.44" width="276.64" height="276.36" maskUnits="userSpaceOnUse">
      <g class="cls-2">
        <circle cx="477.01" cy="273.62" r="36.75"/>
      </g>
    </mask>
    <radialGradient id="Dégradé_sans_nom_9" data-name="Dégradé sans nom 9" cx="476.87" cy="273.62" fx="476.87" fy="273.62" r="138.25" gradientUnits="userSpaceOnUse">
      <stop offset=".19" stop-color="#eee4c7"/>
      <stop offset=".56" stop-color="#e0d7b8"/>
      <stop offset="1" stop-color="#ccc4a2"/>
    </radialGradient>
  </defs>
  <g class="cls-1">
    <path class="cls-3" d="M614.06,383l-52.98-52.98c-1.9-1.9-1.68-5.05.46-6.67,8.46-6.42,17.36-11.99,26.59-16.71,4.16-2.12,2.68-8.38-1.98-8.38h-80.07c-1.02,0-1.95.36-2.7.94,6.42-6.62,10.38-15.63,10.38-25.58s-3.95-18.94-10.36-25.56c.74.57,1.66.92,2.67.92h80.07c4.66,0,6.15-6.25,2-8.37-9.23-4.72-18.14-10.29-26.61-16.72-2.14-1.62-2.36-4.77-.46-6.67l52.99-52.98c1.52-1.52,1.52-3.97,0-5.49l-22.18-22.18c-1.52-1.52-3.97-1.52-5.49,0l-52.99,52.98c-1.9,1.91-5.04,1.69-6.67-.45-6.42-8.47-11.98-17.37-16.7-26.6-2.13-4.15-8.38-2.68-8.38,1.99v80.06c0,1.01.35,1.94.92,2.68-6.61-6.41-15.62-10.36-25.56-10.36s-19.26,4.08-25.9,10.69c.61-.76.98-1.7.98-2.75v-80.06c0-4.67-6.26-6.14-8.38-1.99-4.72,9.23-10.29,18.13-16.71,26.6-1.62,2.14-4.77,2.36-6.67.45l-52.98-52.98c-1.52-1.52-3.97-1.52-5.49,0l-22.18,22.18c-1.52,1.52-1.52,3.97,0,5.49l52.98,52.98c1.9,1.9,1.68,5.05-.46,6.67-8.46,6.43-17.36,11.99-26.59,16.71-4.16,2.13-2.68,8.38,1.98,8.38h80.07c1.1,0,2.09-.42,2.87-1.08-6.35,6.6-10.26,15.57-10.26,25.46s3.95,18.94,10.36,25.56c-.74-.57-1.66-.92-2.67-.92h-80.07c-4.67,0-6.14,6.26-1.98,8.38,9.22,4.72,18.12,10.29,26.59,16.71,2.14,1.62,2.36,4.77.46,6.67l-52.99,52.98c-1.52,1.52-1.52,3.97,0,5.49l22.18,22.18c1.52,1.52,3.97,1.52,5.49,0l52.99-52.98c1.9-1.9,5.04-1.68,6.67.46,6.42,8.46,11.98,17.36,16.7,26.59,2.13,4.16,8.38,2.68,8.38-1.98v-80.07c0-1.01-.35-1.94-.92-2.68,6.61,6.41,15.62,10.36,25.56,10.36s18.96-3.96,25.58-10.38c-.58.75-.94,1.68-.94,2.7v80.07c0,4.66,6.26,6.14,8.38,1.98,4.72-9.23,10.29-18.13,16.71-26.59,1.62-2.14,4.77-2.36,6.67-.46l52.98,52.98c1.52,1.52,3.97,1.52,5.49,0l22.18-22.18c1.52-1.52,1.52-3.97,0-5.49Z"/>
  </g>
</svg>