<?xml version="1.0" encoding="UTF-8"?>
<svg id="Layer_1" data-name="Layer 1" xmlns="http://www.w3.org/2000/svg" viewBox="0 0 462.69 99.52">
  <defs>
    <style>
      .cls-1 {
        fill: #000105;
      }

      .cls-2, .cls-3 {
        fill: #fff;
      }

      .cls-4 {
        fill: #b35216;
      }

      .cls-3 {
        font-family: Myriad-Roman, 'Myriad Roman';
        font-size: 13.41px;
      }
    </style>
  </defs>
  <path class="cls-4" d="M206.6,30.25c-.42,.25-.57,.17-.78-.14l-.05,1.51c.06-.64,.45-1,.83-1.37m81.66-5.16c.37-1.29-.39-4.91-.7-5.73-.76-.17-1.51-.35-2.27-.52-.06,.12-.12,.23-.18,.35-.27,.28-.47,.93-.35,1.56h.18v.17s-.22,.11-.18,.35c0,0,.22,.05,.18,.34-.62,3.66-.2,8.07-.18,11.99,.53,.06,1.05,.12,1.57,.17,.51-.15,.79-.32,1.58-.35,.11-.63,.02-1.71,.17-2.43h.18c.07-.39-.27-.94-.18-1.56h.18v-.17h-.18c.06-.58,.12-1.16,.18-1.74h-.18v-2.43h.18Zm-58.72,1.04v-1.56h-.17c-.09-.37,.17-.52,.17-.52v-.17h-.17c.03-.25,.29-.57,.17-1.04,0,0-.18,.02-.17-.35,.14-.2,.2,.07,.17-.17h-.17c-.06-.38,.17-.52,.17-.52-.06-.35-.12-.7-.17-1.04h-.17c-.26-.98-1.18-1.1-1.75-1.74-.43,.08-.64,.16-1.22,.17-.25,.66-.18,1.85-.18,2.78h-.17c-.14,.26,.17,.35,.17,.35v.17h-.17v1.39h-.17c.06,.93,.12,1.85,.17,2.78h.17c.06,2.14,.12,4.29,.18,6.43,.61,.13,.76,.32,1.58,.35v-.17h.7v-.17c.62-.32,.83-.29,.87-1.22h.17c-.06-.35-.12-.69-.17-1.04h-.17c.06-.35,.12-.69,.17-1.04,0-.03-.24-.06-.17-.35h.17v-.35h.17c-.06-.29-.12-.58-.17-.87h.17v-1.74s.23-.06,.18-.35h-.18Zm-33.38,15.98h-.17v-.52h-.18c.06-.35,.12-.7,.18-1.04h-.18c-.03-.22,.28-.29,.18-.69h-.18v-2.08c.04-.24,.28-.43,.18-.87h-.18v-2.08h.18v-1.91h-.18v-2.26s.26-.14,.18-.52h-.18c-.06-.87-.12-1.74-.17-2.6h.17v-.87h-.17v-.17h.17v-.87h.18c.15-.56-.23-.82-.18-1.21h.18c-.06-.46-.12-.93-.18-1.39h.18c.08-.45-.18-.52-.18-.52v-1.04c-.22-.7-.59-1.46-.87-2.08-.47-.06-.93-.11-1.4-.17v.17h-.52v.17c-.12,.06-.23,.12-.35,.17v.35c-.12,.06-.23,.12-.35,.17-.06,.29-.12,.58-.17,.87-.12,.06-.23,.12-.35,.18,.12,3.99,.23,7.99,.35,11.98v.35h-.18l.18,.52v3.82c-.06,.58-.12,1.16-.18,1.74h.18v1.21h-.18v.7h.18c.09,.42-.16,.45-.18,.69h.18c-.03,.23-.33,.73-.18,1.22h.18v.52h.17c-.06,.17-.12,.35-.17,.52h.17c-.06,.46-.12,.93-.17,1.39,.36,1.32,.35,3.01,.35,4.69v2.08c.12,.56,.18,2.35,.17,3.65,.86,.51,.78,1.01,2.27,1.04,.27-.4,.52-.29,.7-.52,.4-.52,.36-1.33,.35-2.26,.32-.37,0-1.65,0-2.43v-7.47h-.18c-.15-.52,.1-1.3,.18-1.56-.06-.11-.12-.23-.18-.35,.13-.21,.49-.07,.35-.69m-118.31,.87c-.06-1.1-.12-2.2-.18-3.3h-.17c.06-.12,.12-.23,.17-.35h-.17c-.06-1.1-.12-2.2-.17-3.3h-.17c.06-.41,.12-.81,.17-1.22-.35-2.32-.7-4.63-1.05-6.95h-.35c0,1.24-.25,2.23-.53,3.13v2.08h-.17v.87h-.17v.87h-.18v.87h.18v.17h-.18v.87h-.17v2.6c-.23,.78-.46,1.84-.35,2.95,.06,.12,.12,.23,.17,.35h-.17c-.06,.98-.12,1.97-.18,2.95h1.75v.17c.64-.06,1.28-.12,1.92-.17,.1-.28,.15-.41,.18-.87-.27-.33-.18-1.15-.18-1.74m384.36,44.91v-.53h-.47v-.53h-.48v-.52h-.47v-.53h-.48v-.53h-.47v-.53h-.48v-.52h-.48v-.53h-.48v-.53h-.47v-.53h-.48v-.53h-.47v-.53h-.48v-.52h-.48v-.53h-.48v-.53h-.48v-.53h-.48v-.53h-.48v-.53h-.48v-.53h-.21l6.67-11.62c.59-1.08,1.16-2.28,1.7-3.58,.27-.59,.48-1.23,.61-1.91,.14-.68,.2-1.34,.2-1.99v-13.82c0-.54-.01-1.08-.04-1.63-.02-.54-.07-1.08-.12-1.62-.16-.81-.41-1.63-.73-2.44-.38-.9-.9-1.67-1.55-2.32-.15-.19-.31-.36-.48-.53-.15-.18-.31-.36-.48-.53-.15-.18-.31-.36-.48-.53-.15-.18-.31-.36-.47-.53-.15-.18-.31-.36-.48-.53-.15-.18-.31-.36-.48-.53-.15-.18-.31-.36-.48-.53-.15-.18-.31-.35-.48-.52-.15-.18-.31-.36-.48-.53-.15-.18-.31-.36-.48-.53-.15-.18-.31-.36-.48-.52-.15-.19-.31-.36-.48-.53-.15-.18-.31-.36-.47-.53-.15-.18-.31-.36-.48-.53-.15-.18-.31-.36-.48-.53-.15-.18-.31-.36-.48-.52-.15-.18-.3-.36-.47-.52-.15-.19-.31-.36-.48-.53-.15-.18-.31-.36-.48-.53-.15-.18-.31-.36-.48-.53-.15-.18-.31-.36-.48-.53-.15-.18-.31-.36-.48-.53-.15-.18-.31-.36-.48-.53-.15-.18-.31-.36-.48-.53-.15-.18-.31-.36-.48-.53-.15-.18-.31-.36-.48-.53-.15-.18-.31-.36-.48-.52-.15-.19-.31-.36-.48-.53-.15-.19-.31-.36-.48-.53-.15-.18-.31-.36-.47-.52-.15-.18-.31-.36-.48-.53-.15-.18-.31-.36-.48-.53-.15-.18-.31-.36-.48-.53-.15-.18-.31-.35-.47-.52-.15-.19-.31-.36-.48-.53-.15-.18-.31-.36-.48-.52-.15-.18-.31-.36-.47-.52-.15-.19-.31-.36-.48-.53-.15-.19-.31-.36-.48-.53-.15-.18-.31-.36-.48-.53-.15-.18-.31-.36-.48-.53-.15-.18-.31-.36-.48-.53-.15-.18-.31-.36-.47-.53-.15-.18-.31-.36-.48-.53-.15-.19-.31-.36-.48-.53-.15-.18-.31-.36-.47-.53-.15-.19-.31-.36-.48-.53-.15-.18-.31-.36-.48-.53-.15-.18-.31-.36-.48-.53-.15-.19-.31-.36-.47-.53-.15-.18-.31-.36-.48-.53-.15-.18-.31-.36-.47-.53-.15-.18-.31-.36-.48-.52-.15-.19-.31-.36-.48-.53-.15-.19-.31-.36-.48-.53-.15-.18-.31-.36-.47-.52-.15-.19-.31-.36-.48-.53-.15-.18-.31-.36-.48-.52-.15-.18-.31-.36-.47-.53-.15-.18-.31-.36-.48-.52-.15-.18-.31-.36-.48-.53-.15-.18-.31-.36-.48-.53-.15-.18-.31-.36-.48-.53-.15-.19-.32-.37-.49-.54-.23-.28-.47-.55-.74-.79-.79-.7-1.64-1.22-2.56-1.55-1.08-.43-2.06-.68-2.93-.73-1.14-.11-2.28-.16-3.42-.16h-6.58c-1.08,0-2.17,.06-3.25,.16-.33,0-.65,.01-.97,.04-.33,.03-.65,.07-.98,.12-1.3,.21-2.45,.7-3.46,1.46-1,.76-1.72,1.63-2.16,2.6-.27,.65-.49,1.24-.65,1.79-.16,.76-.27,1.48-.33,2.16-.05,.68-.08,1.37-.08,2.07v10.72c-.14-.15-.28-.3-.43-.43-.17-.19-.35-.36-.52-.53-.17-.19-.35-.36-.53-.52-.17-.19-.35-.36-.53-.53-.17-.19-.35-.36-.53-.53-.17-.19-.35-.36-.53-.53-.17-.19-.35-.36-.53-.53-.17-.19-.34-.37-.53-.53-.17-.19-.34-.36-.52-.53-.17-.19-.35-.36-.53-.53-.17-.19-.35-.37-.53-.53-.17-.19-.34-.37-.53-.53-.17-.19-.35-.36-.53-.53-.17-.19-.35-.37-.53-.53-.17-.19-.34-.36-.53-.52-.17-.19-.35-.37-.53-.53-.17-.19-.35-.37-.53-.53-.17-.19-.35-.36-.53-.52-.17-.19-.35-.37-.53-.53-.17-.19-.35-.36-.53-.53-.17-.19-.34-.36-.53-.53-.17-.19-.35-.36-.53-.53-.17-.19-.35-.37-.53-.53-.17-.19-.35-.37-.53-.53-.17-.19-.34-.36-.52-.53-.17-.19-.34-.36-.53-.53-.17-.19-.34-.36-.53-.52-.17-.19-.34-.36-.52-.52-.17-.19-.34-.37-.53-.53-.17-.19-.35-.36-.53-.53-.17-.19-.35-.36-.53-.53-.17-.19-.35-.36-.53-.53-.17-.19-.35-.36-.53-.53-.17-.19-.34-.36-.52-.52-.61-.69-1.29-1.2-2.05-1.54-1.02-.48-2.05-.77-3.12-.87-2.12-.15-4.2-.22-6.23-.22-1.26,0-2.48,.02-3.66,.07-1.18,.05-2.38,.12-3.58,.22-.87,.1-1.66,.33-2.35,.69-.7,.36-1.33,.81-1.88,1.34-.56,.53-.99,1.11-1.31,1.74-.31,.63-.49,1.26-.54,1.89-.1,.53-.17,1.04-.22,1.52l-.05,.48c-.01,.53-.02,1.63-.02,2.45v.5c-.13-.13-.26-.26-.39-.38-.17-.19-.35-.36-.53-.53-.17-.19-.34-.36-.53-.53-.17-.19-.35-.36-.53-.53-.17-.19-.34-.37-.53-.53-.17-.19-.34-.37-.53-.53-.17-.19-.34-.36-.53-.53-.17-.19-.35-.36-.53-.53-.17-.19-.35-.36-.52-.52-.17-.19-.35-.36-.53-.52-.17-.19-.35-.37-.52-.53-.17-.19-.35-.36-.53-.53-.17-.19-.35-.36-.53-.53-.17-.19-.34-.36-.52-.53-.17-.19-.34-.36-.53-.53-.17-.19-.34-.36-.52-.52-.61-.69-1.29-1.2-2.05-1.54-1.02-.48-2.05-.77-3.12-.87-2.12-.15-4.2-.22-6.23-.22-1.26,0-2.47,.02-3.66,.07-1.18,.05-2.38,.12-3.59,.22-.87,.1-1.65,.33-2.35,.69-.7,.36-1.33,.81-1.88,1.34-.55,.53-.99,1.11-1.3,1.74-.31,.63-.5,1.26-.54,1.89-.1,.53-.17,1.04-.22,1.52,0,.02,0,.04,0,.06-.01,0-.03-.02-.04-.02-.13-.22-.31-.4-.53-.52-.13-.22-.31-.4-.53-.53-.13-.22-.31-.4-.53-.53-.13-.22-.31-.4-.53-.53-.13-.22-.31-.4-.53-.53-.13-.22-.31-.4-.52-.53-.13-.22-.31-.4-.53-.53-.13-.22-.31-.4-.53-.53-.13-.22-.31-.4-.53-.53-.13-.22-.31-.4-.53-.53-.13-.22-.31-.4-.52-.53-.13-.22-.31-.4-.53-.53-.26-.44-.73-.74-1.28-.74h-15.28c-.82,0-1.49,.67-1.49,1.49V12.58c-.11-.11-.22-.22-.34-.32-.17-.19-.35-.36-.53-.53-.17-.19-.34-.36-.53-.53-.17-.19-.35-.36-.53-.52-.17-.19-.34-.37-.53-.53-.17-.19-.34-.36-.53-.53-.17-.19-.34-.37-.53-.53-.17-.19-.34-.36-.53-.53-.17-.19-.35-.36-.53-.53-.17-.19-.35-.36-.53-.53-.17-.19-.34-.36-.52-.52-.17-.19-.35-.36-.53-.53-.17-.19-.35-.37-.53-.53-.17-.19-.34-.36-.53-.53-.17-.19-.35-.36-.52-.53-.17-.19-.35-.36-.53-.53-.17-.19-.35-.36-.53-.53-.61-.67-1.28-1.19-2.02-1.54-1.06-.48-2.05-.79-2.97-.94-.44-.05-.87-.07-1.31-.07h-.43c-.44-.04-1.47-.07-2.28-.07h-14.41c-.82,0-1.49,.67-1.49,1.49V7.19c-.13-.21-.31-.39-.52-.51-.13-.22-.31-.4-.53-.53-.13-.22-.31-.4-.53-.53-.13-.22-.31-.4-.53-.53-.13-.22-.31-.4-.52-.53-.13-.22-.31-.4-.53-.53-.13-.22-.31-.4-.53-.53-.13-.22-.31-.4-.53-.52-.13-.22-.31-.4-.53-.53-.13-.22-.31-.4-.52-.53-.26-.44-.74-.74-1.28-.74h-20.71c-.82,0-1.49,.67-1.49,1.49v6.3c0,.55,.31,1.33,.13,1.16-.17-.19-.35-.36-.53-.53-.17-.19-.35-.36-.52-.52-.17-.19-.35-.36-.53-.53-.17-.19-.35-.36-.53-.53-.17-.19-.34-.36-.52-.53-.17-.19-.34-.36-.52-.52-.17-.19-.35-.36-.53-.53-.17-.19-.35-.37-.53-.53-.17-.19-.35-.36-.53-.53-.17-.19-.35-.36-.53-.53-.17-.19-.34-.36-.53-.53-.17-.19-.35-.36-.53-.53-.61-.67-1.28-1.19-2.02-1.54-1.06-.48-2.05-.79-2.97-.94-.43-.05-.87-.07-1.3-.07h-.44c-.44-.04-1.47-.07-2.29-.07h-14.41c-.82,0-1.49,.67-1.49,1.49V12.57c-.05-.05-.1-.1-.15-.15-.03-.03-.06-.04-.08-.07-.14-.16-.29-.32-.44-.46-.03-.02-.05-.04-.08-.07-.14-.16-.29-.32-.45-.46-.03-.02-.05-.04-.08-.07-.14-.16-.29-.32-.45-.46-.02-.02-.05-.04-.08-.07-.14-.16-.29-.32-.44-.46-.03-.02-.06-.04-.08-.07-.14-.16-.29-.32-.44-.46-.03-.02-.05-.05-.08-.07-.14-.16-.29-.32-.44-.46-.03-.02-.05-.04-.08-.07-.14-.16-.29-.32-.45-.46-.02-.03-.06-.05-.08-.07-.14-.16-.29-.32-.45-.46-.03-.02-.05-.04-.08-.07-.14-.16-.29-.32-.44-.46-.03-.02-.06-.04-.08-.07-.14-.16-.28-.32-.44-.46-.03-.02-.05-.04-.08-.07-.14-.16-.28-.32-.44-.46-.03-.02-.05-.04-.08-.07-.14-.16-.29-.32-.45-.46-.03-.02-.05-.04-.08-.07-.14-.16-.29-.31-.45-.46-.03-.02-.05-.04-.08-.07-.14-.16-.29-.32-.44-.46-.03-.02-.06-.04-.08-.06-.14-.16-.29-.32-.45-.46-.03-.03-.05-.05-.08-.07-.14-.16-.29-.32-.45-.46-.03-.02-.05-.04-.08-.07-.14-.16-.29-.32-.44-.46-.05-.05-.1-.09-.16-.13-.12-.14-.24-.27-.37-.4-1.21-.96-2.49-1.57-3.84-1.81-1.26-.19-2.5-.34-3.73-.43-1.23-.1-2.45-.15-3.66-.15s-2.49,.05-3.7,.15c-1.21,.09-2.41,.24-3.62,.43-1.11,.24-2.09,.66-2.93,1.27-.85,.6-1.48,1.31-1.92,2.14-.24,.48-.44,.94-.58,1.38-.14,.43-.24,.87-.29,1.3-.05,.35-.09,.61-.11,.81-.12-.16-.27-.29-.44-.39-.13-.22-.31-.4-.53-.53-.13-.22-.31-.4-.53-.53-.13-.22-.31-.4-.53-.53-.13-.22-.31-.4-.53-.53-.13-.22-.31-.4-.53-.53-.13-.22-.31-.4-.53-.53-.13-.22-.31-.4-.53-.53-.13-.22-.31-.4-.53-.53-.13-.22-.31-.4-.53-.53-.13-.22-.31-.4-.53-.53-.13-.22-.31-.4-.53-.53-.26-.44-.73-.74-1.28-.74h-16.44c-.82,0-1.49,.67-1.49,1.49V25.68c-.07-.07-.15-.12-.24-.18-.13-.22-.31-.4-.53-.53-.13-.22-.31-.4-.53-.52-.13-.22-.31-.4-.53-.53-.13-.22-.31-.4-.53-.53-.13-.22-.31-.4-.53-.53-.13-.22-.31-.4-.53-.53-.13-.22-.31-.4-.53-.53-.13-.22-.31-.4-.53-.53-.13-.22-.31-.4-.53-.53-.13-.22-.31-.4-.53-.53-.13-.22-.31-.4-.53-.53-.13-.22-.31-.4-.53-.53-.13-.22-.31-.4-.53-.53-.13-.22-.31-.4-.53-.53-.13-.22-.31-.4-.53-.53-.13-.22-.31-.4-.53-.53-.13-.22-.31-.4-.53-.53-.13-.22-.31-.4-.53-.53-.13-.22-.31-.4-.53-.53-.13-.22-.31-.4-.53-.53-.13-.22-.31-.4-.53-.53-.13-.22-.31-.4-.53-.53-.13-.22-.31-.4-.53-.53-.13-.22-.31-.4-.53-.53-.13-.22-.31-.4-.53-.53-.13-.22-.31-.4-.53-.53-.13-.22-.31-.4-.53-.53-.13-.22-.31-.4-.53-.53-.13-.22-.31-.4-.53-.53-.13-.22-.31-.4-.53-.53-.13-.21-.31-.4-.53-.52-.13-.22-.31-.4-.53-.53-.13-.22-.31-.4-.53-.53-.13-.22-.31-.4-.53-.53-.13-.22-.31-.4-.53-.53-.13-.22-.31-.4-.53-.53-.13-.22-.31-.4-.53-.53-.13-.22-.31-.4-.53-.53-.13-.22-.31-.4-.53-.53-.13-.22-.31-.4-.53-.53-.13-.22-.31-.4-.53-.53-.13-.22-.31-.4-.53-.53-.13-.22-.31-.4-.53-.53-.13-.22-.31-.4-.53-.53-.13-.22-.31-.4-.53-.53-.26-.44-.73-.74-1.28-.74h-12.67c-.82,0-1.57,.67-1.66,1.48l-.38,3.27c-.03,.3-.08,.67-.12,1.05-.1-.1-.2-.2-.32-.27-.14-.21-.32-.39-.53-.52-.14-.21-.32-.39-.53-.53-.14-.21-.32-.39-.53-.53-.14-.21-.31-.39-.53-.53-.14-.21-.32-.39-.53-.52-.14-.21-.32-.39-.53-.53-.14-.21-.32-.39-.53-.53-.14-.21-.32-.39-.53-.53-.14-.21-.32-.39-.53-.53-.3-.47-.83-.79-1.4-.79h-12.6c-.82,0-1.49,.67-1.49,1.49V14.67s-.02-.02-.04-.03c-.14-.21-.32-.39-.53-.53-.14-.21-.32-.39-.53-.53-.14-.21-.32-.39-.53-.53-.14-.21-.32-.39-.53-.53-.14-.21-.31-.39-.52-.53-.14-.21-.32-.39-.53-.53-.14-.21-.31-.39-.53-.53-.14-.21-.32-.39-.53-.53-.14-.21-.32-.39-.53-.53-.14-.21-.32-.39-.53-.53-.14-.21-.32-.39-.53-.53-.14-.21-.32-.39-.53-.53-.14-.21-.32-.39-.53-.52-.14-.21-.32-.39-.53-.53-.14-.21-.32-.39-.53-.53-.14-.21-.31-.39-.53-.53-.14-.21-.32-.39-.53-.53-.14-.21-.32-.39-.53-.53-.14-.21-.32-.39-.53-.53-.14-.21-.32-.39-.53-.53-.14-.21-.32-.39-.53-.53-.14-.21-.32-.39-.53-.53-.14-.21-.31-.39-.53-.53-.14-.21-.32-.39-.53-.53-.31-.47-.84-.8-1.41-.8h-11.51c-.82,0-1.57,.67-1.67,1.48l-1.12,9.17c-.13-.21-.3-.38-.51-.5-.13-.22-.31-.4-.53-.53-.13-.22-.31-.4-.53-.53-.13-.22-.31-.4-.53-.53-.13-.22-.31-.4-.53-.53-.13-.22-.31-.4-.53-.53-.13-.22-.31-.4-.53-.53-.13-.22-.31-.4-.53-.52-.13-.22-.31-.4-.53-.53-.13-.22-.31-.4-.53-.53-.13-.22-.31-.4-.53-.53-.13-.22-.31-.4-.53-.53-.13-.22-.31-.4-.53-.53-.13-.22-.31-.4-.53-.52-.13-.22-.31-.4-.53-.53-.13-.22-.31-.4-.52-.53-.13-.22-.31-.4-.53-.53-.13-.22-.31-.4-.53-.53-.13-.22-.31-.4-.53-.53-.26-.44-.73-.74-1.28-.74h-15.28c-.82,0-1.49,.67-1.49,1.49V7.09c-.13-.2-.3-.36-.5-.48-.13-.22-.31-.4-.53-.53-.13-.22-.31-.4-.53-.53-.13-.22-.31-.4-.53-.53-.13-.22-.31-.4-.53-.53-.13-.22-.31-.4-.53-.53-.13-.22-.31-.4-.53-.53-.13-.22-.31-.4-.53-.53-.13-.22-.31-.4-.53-.53-.13-.22-.31-.4-.53-.53-.26-.44-.73-.74-1.28-.74H1.49c-.82,0-1.49,.67-1.49,1.49v7.48c0,.54,.3,1.02,.74,1.28,.13,.22,.31,.4,.53,.53,.13,.22,.31,.4,.53,.52,.13,.22,.31,.4,.53,.53,.13,.22,.31,.4,.53,.53,.13,.22,.31,.4,.53,.53,.13,.22,.31,.4,.53,.53,.13,.22,.31,.4,.53,.53,.13,.22,.31,.4,.53,.53,.13,.22,.31,.4,.53,.53,.13,.22,.31,.4,.53,.53,.13,.22,.31,.4,.53,.53,.07,.12,.15,.23,.25,.32V63.22c0,.54,.3,1.02,.74,1.28,.13,.22,.31,.4,.53,.53,.13,.22,.31,.4,.53,.53,.13,.22,.31,.4,.53,.53,.13,.22,.31,.4,.53,.53,.13,.22,.31,.4,.53,.53,.13,.22,.31,.4,.53,.53,.13,.22,.31,.4,.53,.53,.13,.22,.31,.4,.53,.53,.13,.22,.31,.4,.53,.53,.13,.22,.31,.4,.53,.53,.13,.22,.31,.4,.53,.53,.13,.22,.31,.4,.53,.53,.13,.22,.31,.4,.53,.53,.13,.22,.31,.4,.53,.53,.13,.22,.31,.4,.53,.53,.13,.22,.31,.4,.53,.53,.13,.22,.31,.4,.53,.53,.13,.22,.31,.4,.53,.53,.13,.22,.31,.4,.53,.53,.13,.22,.31,.4,.53,.53,.13,.22,.31,.4,.53,.53,.13,.22,.31,.4,.53,.53,.13,.22,.31,.4,.53,.53,.13,.22,.31,.4,.53,.53,.13,.22,.31,.4,.53,.53,.13,.22,.31,.4,.53,.53,.13,.22,.31,.4,.53,.52,.13,.22,.31,.4,.53,.53,.13,.22,.31,.4,.53,.52,.13,.22,.31,.4,.53,.53,.13,.22,.31,.4,.53,.53,.13,.22,.31,.4,.53,.53,.13,.22,.31,.4,.53,.53,.13,.22,.31,.4,.53,.53,.13,.22,.31,.4,.53,.53,.13,.22,.31,.4,.53,.53,.13,.22,.31,.4,.53,.53,.13,.22,.31,.4,.53,.53,.13,.22,.31,.4,.53,.53,.13,.22,.31,.4,.53,.53,.13,.22,.31,.4,.53,.53,.13,.22,.31,.4,.53,.53,.13,.22,.31,.4,.53,.53,.13,.22,.31,.4,.53,.53,.13,.22,.31,.4,.53,.52,.13,.22,.31,.4,.52,.53,.13,.22,.31,.4,.53,.53,.13,.22,.31,.4,.53,.53,.13,.22,.31,.4,.53,.53,.13,.22,.31,.4,.53,.53,.13,.22,.31,.4,.53,.53,.13,.22,.31,.4,.53,.53,.13,.22,.31,.4,.53,.53,.13,.22,.31,.4,.53,.53,.13,.22,.31,.4,.53,.53,.13,.22,.31,.4,.53,.53,.13,.22,.31,.4,.53,.53,.13,.22,.31,.4,.53,.52,.13,.22,.31,.4,.53,.53,.13,.22,.31,.4,.52,.53,.13,.22,.31,.4,.53,.53,.13,.22,.31,.4,.53,.53,.13,.22,.31,.4,.53,.53,.13,.22,.31,.4,.53,.52,.26,.44,.73,.74,1.28,.74h9.44c.82,0,1.49-.67,1.49-1.49v-18.38c.12,.16,.27,.29,.44,.39,.13,.22,.31,.4,.53,.53,.13,.22,.31,.4,.53,.53,.13,.22,.31,.4,.53,.52,.13,.22,.31,.4,.53,.53,.13,.22,.31,.4,.53,.53,.13,.22,.31,.4,.53,.53,.13,.22,.31,.4,.53,.53,.13,.22,.31,.4,.53,.53,.13,.22,.31,.4,.53,.53,.13,.22,.31,.4,.53,.53,.13,.22,.31,.4,.53,.53,.13,.22,.31,.4,.53,.53,.13,.22,.31,.4,.53,.53,.13,.22,.31,.4,.53,.53,.13,.22,.31,.4,.53,.53,.13,.21,.31,.4,.53,.52,.13,.22,.31,.4,.53,.53,.13,.22,.31,.4,.53,.53,.13,.22,.31,.4,.53,.53,.13,.22,.31,.4,.53,.53,.13,.22,.31,.4,.53,.53,.13,.22,.31,.4,.53,.53,.26,.44,.73,.74,1.28,.74h15.28c.82,0,1.49-.67,1.49-1.49v-3.64c.09,.09,.19,.16,.31,.23,.12,.22,.3,.41,.53,.52,.12,.23,.3,.41,.53,.53,.12,.23,.3,.41,.52,.53,.12,.23,.3,.41,.53,.53,.12,.23,.3,.41,.53,.53,.12,.23,.3,.41,.53,.53,.12,.22,.3,.41,.53,.53,.12,.23,.3,.41,.53,.53,.22,.41,.64,.69,1.17,.69h8.11c.82,0,1.54-.67,1.6-1.48l.21-2.83c.05-.65,.12-1.63,.17-2.41,.07,.06,.13,.11,.2,.15,.14,.21,.31,.39,.53,.53,.14,.21,.31,.4,.53,.53,.14,.21,.31,.39,.53,.53,.14,.21,.31,.4,.53,.53,.14,.21,.31,.39,.53,.53,.13,.21,.31,.39,.53,.52,.14,.21,.31,.39,.53,.53,.14,.21,.31,.39,.53,.53,.14,.21,.31,.39,.53,.53,.14,.21,.32,.4,.53,.53,.14,.21,.31,.39,.53,.53,.29,.46,.81,.78,1.37,.78h8.03c.82,0,1.49-.03,1.49-.07,0-.04-.08-.74-.19-1.55l-.73-5.74c.09,.09,.19,.17,.31,.23,.13,.22,.31,.4,.53,.53,.13,.22,.31,.4,.53,.52,.13,.22,.31,.4,.53,.53,.13,.22,.31,.4,.53,.53,.13,.22,.31,.4,.53,.53,.13,.22,.31,.4,.53,.53,.13,.22,.31,.4,.53,.53,.13,.22,.31,.4,.53,.52,.13,.22,.31,.4,.53,.53,.13,.22,.31,.4,.53,.53,.13,.22,.31,.4,.53,.53,.13,.22,.31,.4,.53,.53,.26,.44,.73,.74,1.28,.74h7.6c.82,0,1.49-.67,1.49-1.49v-3.89c.11,.13,.25,.25,.39,.35,.14,.21,.32,.39,.53,.53,.14,.21,.32,.39,.53,.53,.14,.21,.32,.39,.53,.53,.14,.21,.32,.39,.52,.53,.14,.21,.32,.39,.53,.52,.14,.21,.32,.39,.53,.53,.14,.21,.32,.39,.53,.53,.14,.21,.32,.39,.53,.53,.32,.48,.86,.81,1.44,.81h3.9c.82,0,1.57-.64,1.67-1.41,.1-.78,.27-2.08,.38-2.89l.03-.2c.06,.06,.13,.1,.21,.15,.13,.22,.31,.4,.53,.53,.13,.22,.31,.4,.53,.53,.13,.22,.31,.4,.52,.53,.13,.22,.31,.4,.53,.53,.13,.22,.31,.4,.53,.53,.13,.22,.31,.4,.53,.53,.13,.22,.31,.4,.53,.53,.26,.44,.74,.74,1.28,.74h9.02v.05s.07-.65,.07-1.46v-16.44c.07,.07,.15,.13,.24,.18,.13,.22,.31,.4,.53,.53,.13,.22,.31,.4,.53,.53,.13,.22,.31,.4,.53,.53,.13,.22,.31,.4,.53,.53,.13,.22,.31,.4,.53,.53,.13,.22,.31,.4,.53,.53,.13,.22,.31,.4,.53,.53,.13,.22,.31,.4,.53,.53,.13,.22,.31,.4,.53,.53,.13,.22,.31,.4,.53,.53,.13,.22,.31,.4,.53,.53,.13,.22,.31,.4,.53,.53,.13,.22,.31,.4,.53,.53,.13,.22,.31,.4,.53,.52,.13,.22,.31,.4,.53,.53,.13,.22,.31,.4,.53,.53,.13,.22,.31,.4,.53,.53,.13,.21,.31,.4,.53,.53,.13,.22,.31,.4,.53,.53,.13,.22,.31,.4,.53,.53,.13,.22,.31,.4,.53,.53,.13,.22,.31,.4,.53,.53,.13,.22,.31,.4,.53,.53,.13,.22,.31,.4,.53,.53,.13,.22,.31,.4,.53,.53,.13,.22,.31,.4,.53,.53,.13,.22,.31,.4,.53,.53,.13,.22,.31,.4,.53,.53,.13,.22,.31,.4,.53,.53,.13,.22,.31,.4,.53,.53,.13,.22,.31,.4,.53,.53,.13,.22,.31,.4,.53,.53,.13,.22,.31,.4,.53,.53,.13,.22,.31,.4,.53,.53,.13,.22,.31,.4,.53,.53,.13,.22,.31,.4,.53,.53,.13,.22,.31,.4,.52,.53,.13,.22,.31,.4,.53,.53,.13,.22,.31,.4,.53,.53,.13,.22,.31,.4,.53,.53,.13,.22,.31,.4,.53,.53,.13,.22,.31,.4,.53,.53,.13,.22,.31,.4,.53,.53,.13,.22,.31,.4,.53,.53,.13,.22,.31,.4,.53,.53,.26,.44,.73,.74,1.28,.74h9.44c.82,0,1.49-.67,1.49-1.49v-22.71c.06,.06,.11,.11,.17,.16,.17,.19,.35,.36,.53,.53,.17,.19,.35,.36,.53,.53,.17,.19,.35,.36,.53,.53,.17,.19,.35,.36,.53,.52,.17,.19,.35,.37,.53,.53,.17,.19,.35,.36,.53,.53,.17,.19,.35,.36,.53,.53,.17,.19,.35,.36,.53,.53,.17,.19,.35,.36,.53,.53,.17,.19,.35,.36,.52,.53,.17,.19,.35,.36,.53,.53,.17,.19,.35,.36,.53,.53,.17,.19,.35,.36,.52,.53,.17,.19,.35,.36,.53,.53,.17,.19,.35,.36,.53,.53,.17,.19,.35,.36,.53,.53,.17,.19,.35,.36,.52,.53,.17,.19,.35,.36,.53,.53,.17,.19,.34,.36,.52,.53,.17,.19,.35,.36,.53,.53,.17,.19,.35,.36,.53,.53,.17,.19,.35,.36,.53,.53,.17,.19,.35,.36,.53,.53,.17,.19,.35,.36,.53,.52,.17,.19,.35,.36,.53,.53,.17,.19,.35,.36,.53,.53,.17,.19,.35,.36,.53,.53,.17,.19,.35,.36,.53,.53,.99,1.09,2.1,1.79,3.34,2.08,.97,.24,2.03,.41,3.19,.51,.92,.05,1.83,.07,2.75,.07h2.9c1.11,0,2.21-.02,3.3-.07,1.08-.05,2.16-.12,3.22-.22,1.45-.19,2.68-.76,3.69-1.7,1.01-.94,1.66-1.97,1.96-3.08,.38-1.55,.48-2.93,.48-2.93,0-.09,.01-.2,.02-.3,.03,.02,.06,.03,.09,.05,.13,.22,.31,.4,.53,.53,.13,.22,.31,.4,.53,.53,.13,.22,.31,.4,.53,.53,.13,.22,.31,.4,.53,.53,.13,.22,.31,.4,.53,.53,.13,.22,.31,.4,.52,.53,.13,.22,.31,.4,.53,.52,.13,.22,.31,.4,.53,.53,.13,.22,.31,.4,.52,.53,.13,.22,.31,.4,.53,.53,.13,.22,.31,.4,.53,.53,.13,.22,.31,.4,.53,.53,.13,.22,.31,.4,.53,.53,.13,.22,.31,.4,.53,.53,.26,.44,.74,.74,1.28,.74h8.69c.82,0,1.49-.67,1.49-1.49v-3.04s.1,.07,.15,.1c.13,.21,.31,.4,.53,.52,.13,.22,.31,.4,.53,.53,.13,.22,.31,.4,.53,.53,.13,.22,.31,.4,.53,.53,.13,.22,.31,.4,.53,.53,.13,.22,.31,.4,.53,.53,.13,.22,.31,.4,.53,.53,.26,.44,.74,.74,1.28,.74h10.29c.06,0,.11-.67,.11-1.49v-9.37s.1,.07,.16,.11c.13,.22,.31,.4,.53,.53,.13,.22,.31,.4,.52,.53,.13,.22,.31,.4,.53,.53,.13,.22,.31,.4,.53,.53,.13,.22,.31,.4,.53,.53,.13,.22,.31,.4,.53,.52,.13,.22,.31,.4,.53,.53,.13,.22,.31,.4,.53,.53,.13,.22,.31,.4,.53,.53,.13,.22,.31,.4,.53,.53,.13,.22,.31,.4,.53,.53,.13,.22,.31,.4,.53,.53,.13,.21,.31,.4,.53,.52,.13,.22,.31,.4,.53,.53,.13,.22,.31,.4,.53,.53,.13,.22,.31,.4,.53,.53,.13,.22,.31,.4,.53,.53,.13,.22,.31,.4,.53,.53,.13,.22,.31,.4,.53,.53,.26,.44,.73,.74,1.28,.74h8.69c.82,0,1.49-.67,1.49-1.49v-10.47c.07,.06,.14,.11,.21,.15,.13,.22,.31,.4,.53,.53,.13,.22,.31,.4,.53,.52,.13,.22,.31,.4,.53,.53,.13,.22,.31,.4,.53,.53,.13,.22,.31,.4,.53,.53,.13,.22,.31,.4,.52,.53,.13,.22,.31,.4,.53,.53,.13,.22,.31,.4,.53,.52,.13,.22,.31,.4,.53,.53,.13,.22,.31,.4,.53,.53,.13,.22,.31,.4,.53,.53,.13,.22,.31,.4,.52,.53,.13,.22,.31,.4,.53,.53,.13,.22,.31,.4,.53,.53,.13,.21,.31,.4,.53,.52,.13,.22,.31,.4,.52,.53,.13,.22,.31,.4,.53,.53,.13,.22,.31,.4,.53,.53,.13,.22,.31,.4,.53,.53,.13,.22,.31,.4,.53,.53,.13,.22,.31,.4,.53,.53,.26,.44,.73,.74,1.28,.74h8.69c.82,0,1.49-.67,1.49-1.49v-3.04s.09,.07,.14,.1c.13,.22,.31,.4,.53,.53,.13,.22,.31,.4,.53,.53,.13,.22,.31,.4,.53,.53,.13,.22,.31,.4,.53,.53,.13,.22,.31,.4,.53,.53,.13,.22,.31,.4,.53,.53,.13,.22,.31,.4,.53,.53,.26,.44,.73,.74,1.28,.74h10.29c.06,0,.11-.67,.11-1.49v-5.93c.11,.14,.25,.26,.41,.35,.13,.22,.31,.4,.53,.53,.13,.22,.31,.4,.53,.53,.13,.22,.31,.4,.53,.53,.13,.22,.31,.4,.53,.53,.13,.22,.31,.4,.53,.52,.13,.22,.31,.4,.53,.53,.13,.22,.31,.4,.52,.53,.13,.22,.31,.4,.53,.53,.13,.22,.31,.4,.53,.53,.13,.22,.31,.4,.53,.53,.13,.22,.31,.4,.52,.53,.13,.22,.31,.4,.53,.53,.26,.44,.74,.74,1.28,.74h15.28c.82,0,1.49-.67,1.49-1.49v-6.08c0-.54-.3-1.02-.74-1.28-.13-.22-.31-.4-.53-.52-.13-.22-.31-.4-.53-.53-.13-.22-.31-.4-.53-.53-.13-.22-.31-.4-.52-.53-.13-.22-.31-.4-.53-.53-.13-.22-.31-.4-.53-.53-.13-.22-.31-.4-.53-.53-.13-.22-.31-.4-.53-.53-.13-.22-.31-.4-.53-.53-.13-.22-.31-.4-.53-.53-.1-.16-.22-.3-.37-.42v-2.33c.05,.05,.1,.09,.14,.13,.16,.19,.34,.36,.52,.53,.17,.19,.35,.36,.53,.53,.17,.19,.34,.36,.53,.52,.17,.19,.34,.36,.53,.53,.16,.19,.34,.36,.52,.53,.17,.19,.35,.36,.53,.53,.17,.19,.35,.36,.53,.53,.17,.19,.34,.36,.53,.53,.17,.19,.35,.36,.53,.53,.17,.19,.34,.36,.53,.53,.17,.19,.35,.37,.53,.53,.17,.19,.34,.36,.52,.52,.17,.19,.34,.36,.53,.53,.17,.19,.34,.36,.53,.53,.17,.19,.34,.36,.53,.52,.17,.19,.34,.36,.52,.53,.17,.19,.35,.36,.53,.53,.16,.19,.34,.36,.53,.53,.16,.19,.34,.36,.53,.53,.17,.19,.34,.36,.53,.53,.17,.19,.34,.36,.53,.52,.17,.19,.35,.37,.53,.53,.16,.19,.34,.36,.52,.53,.17,.19,.34,.36,.53,.53,.16,.19,.34,.36,.52,.53,.17,.19,.35,.36,.53,.53,.17,.19,.35,.37,.53,.53,.3,.34,.63,.64,.99,.9,.87,.63,1.74,1.01,2.61,1.16,.97,.24,1.86,.36,2.68,.36,.82,.05,1.64,.07,2.46,.07h8.33c.34,0,.7-.02,1.08-.07,1.11-.1,2.11-.41,3.01-.94,.89-.53,1.61-1.18,2.14-1.95,.38-.53,.67-1.09,.87-1.67,.19-.58,.33-1.16,.43-1.74,.09-.72,.17-1.45,.22-2.17l.05-.73c0-.44,.01-1.05,.02-1.64,.16,.18,.33,.35,.51,.51,.17,.19,.34,.36,.53,.53,.17,.19,.34,.36,.53,.53,.17,.19,.34,.36,.53,.53,.17,.19,.34,.36,.53,.53,.17,.19,.34,.36,.52,.53,.17,.19,.35,.36,.53,.52,.17,.19,.35,.36,.53,.53,.17,.19,.34,.36,.53,.52,.17,.19,.34,.36,.52,.53,.17,.19,.35,.36,.53,.53,.17,.19,.34,.36,.53,.52,.16,.19,.34,.36,.53,.52,.17,.19,.34,.36,.53,.53,.17,.19,.34,.36,.53,.53,.17,.19,.35,.37,.53,.53,.3,.34,.63,.64,.98,.9,.87,.63,1.74,1.01,2.61,1.16,.96,.24,1.86,.36,2.68,.36,.82,.05,1.64,.07,2.46,.07h8.33c.34,0,.7-.02,1.09-.07,1.11-.1,2.12-.41,3.01-.94,.9-.53,1.6-1.18,2.14-1.95,.39-.53,.68-1.09,.87-1.67,.19-.58,.34-1.16,.43-1.74,.06-.45,.11-.91,.15-1.36h.19v.55h.48v.55h.47v.55h.48v.55h.48v.55h.48v.55h.48v.55h.47v.55h.48v.55h.48v.55h.48v.55h.48v.55h.48v.55h.48v.55h.48v.55h.47v.55h.48v.55h.48v.55h.48v.55h.48v.55h.48v.55h.48v.55h.48v.55h.48v.55h.48v.55h.48v.55h.47v.55h.48v.55h29.92l.08-1.63v-10h-.48ZM34.51,19.18c-.06,.35-.12,.69-.18,1.04-.27,.1-.29,.13-.7,.17-.2-.19-2.64-.33-3.15-.17v.17h-1.05v.17h-.35v.17h-.7v.17c-.41,.32-.52,.63-.53,1.39-.38,.45,.1,.84,0,1.56-.03,.24-.17-.07-.17,.17h.17v.87h-.17c.06,.17,.12,.35,.17,.52v.17h-.17v1.22h.17c.02,.12-.26,.45-.17,.87h.17v.17h-.17c.06,.17,.12,.35,.17,.52h-.17c-.06,1.39-.12,2.78-.18,4.17h.18v.17c-.19,.4-.28,1.42-.18,2.08h.18c.03,.24-.12-.07-.18,.17v.7h-.17v.17h.17c.12,.47-.15,.79-.17,1.04h.17c.1,.44-.14,.63-.17,.87,.04,.09,.23,0,.17,.52h-.17v.17h.17v2.08h-.17c.06,.17,.12,.35,.17,.52v8.51h.18c-.06,.11-.12,.23-.18,.35h.18v.17h-.18c-.12,.61,.16,1.17,.18,1.21-.06,.46-.12,.93-.18,1.39h.18v3.3h.17v.7h-.17v.17h.17v1.56h.18v.7h-.18v.17h.18v2.78s-.26,.14-.18,.52h.18v1.74h.17c.02,.13-.29,.45-.17,.87h.17c.06,.64,.12,1.27,.17,1.91,0,0-.25,.15-.17,.52h.17v1.21h-.17c.06,.64,.12,1.27,.17,1.91-.35,.18-.81,.36-1.22,.52,.06,.12,.12,.23,.18,.35h-.18c-.19,.55-.39,.81-.52,1.39-2.37,.47-6.14,.03-7.69-.35-.7-.17-.79,.07-1.4-.17h-.52v-.18c-.24-.2-.27-.32-.35-.69-.42-.11-.32-.06-.52-.35-.64-.65-.16-2.89-.18-4.17-.12-1.28-.23-2.55-.35-3.82h.17v-2.95h.18v-.35h.18c.1-.36-.18-.52-.18-.52,.06-.58,.12-1.16,.18-1.74h-.18c.06-.23,.12-.46,.18-.69-.04-.71-.08-1.42-.12-2.13,.03-.04,.06-.07,.09-.12,.28,.22,1.41-.09,1.54-.43-.17,.02-.28-.22-.37-.29,.29-.37,.67-.67,.87-1.11q.22-.28,.27-.54c-.02-.16-.32-.55-.26-.8,.16-.77,1.86-1.23,.9-2.29,.2-.44-.1-.82,.36-1.21-.21-.31-.94-.14-1.34,0-.15,.18-.2,.44-.44,.55l-.07,.09c-.28-.22-.63-.34-.91-.56-.28-.22-.32-.55-.43-.79-.21-.28-.38-.37-.51-.36,.02-.14,.05-.29,.07-.43-.18-.85-.35-2.52-.17-3.65,.04-.25,.26-.28,.17-.7h-.17c-.14-.57,.09-1.43,.17-1.74v-1.39h-.17c-.2-.72,.13-1.79,.17-2.26-.1-.23-.13-.49-.14-.77,.85-.19,1.52-.57,1.3-1.29-.12-.35-.35-.35-.71-.47,0,0-.59-.35-.71-.35-.04,0-.07,0-.11-.01-.01-.28,.18-.41,.18-.41v-.18h-.18v-1.39h-.17c.06-.17,.12-.35,.17-.52h-.17s.26-.64,.17-1.04h-.17c-.05-.29,.16-.3,.17-.35v-1.74h.18v-2.95c.37-1.31,.42-3.29,.17-4.69-.66-.13-.99-.44-1.57-.7v-.17c-.36-.11-.52,.17-.52,.17-.99-.06-1.98-.12-2.97-.17-.12-.17-.23-.35-.35-.52h-.35c-.06-.11-.12-.23-.17-.35-.17-.06-.35-.12-.52-.17-.17-1.85-.35-3.7-.52-5.56,.27-.93,.52-2.1,.87-2.95h.17v-.17h.7v-.17h.35v-.17h2.8c.24-.04-.07-.18,.17-.18,.47,.18,.93,.35,1.4,.52v-.17h1.75v-.17h2.1c1.66,0,3.88-.2,5.24,.17,.93-.06,1.86-.11,2.79-.17v.17h1.22v-.17h.17v.17h1.05v-.17h.35v-.18c.42-.14,.66,.19,.87,.18v-.18h.52v-.17c.52,.06,1.05,.11,1.57,.17v.35c.23-.06,.46-.11,.7-.17v-.18c.85-.22,.73,1.21,.7,1.91h.18c.11,.28-.17,.33-.18,.35v2.43c.12,1.62,.23,3.24,.35,4.86h-.17Zm23.77-2.43h-.17c-.16,.7-.02,.89-.52,1.21-.95,.92-4.46,.5-5.94,1.04v.52c-.23,.06-.47,.12-.7,.17,0,1.59,.2,3.74-.18,5.04-.13,.46,.18,.91,.18,1.04h-.18v1.91h-.18v.17h.18c.05,.29-.18,.35-.18,.35v.17h.18v.17h-.18s.16,.44,.18,.7h.53v.35h-.18c.06,.17,.12,.35,.18,.52h-.35v.17c.87,.06,1.75,.12,2.62,.18v.17c.35-.06,.7-.12,1.05-.17v.17c1.01,.26,2.5-.23,3.15,.35h.17v.52c-.64,.65,.15,1.44-.17,2.6h-.17v2.61h.17v.35h.17v.52h.18c-.06,.58-.12,1.16-.18,1.74-.86,.45-2.14,.36-3.49,.35-.44-.4-2.19-.19-2.97-.17-.15,.2,.02,.02-.17,.17-.06,.35-.12,.69-.18,1.04,0,.03,.23,.06,.18,.35h-.18v1.04c.39,1.51,.18,5.42,.18,7.81v1.74h-.18v.17h.18v1.39h-.18c-.41,1.36,.32,2.49,.35,3.65h4.02v.18h.53v.17c.48,.15,1.01-.26,1.22-.17v.17c.66,.57,.34,2.8,.18,3.65h.17v.17h-.17c-.09,.38,.17,.52,.17,.52-.06,.17-.12,.35-.17,.52h.17v2.08s.24,.06,.17,.34h-.17v.52h-.17v.17h-.87v-.17h-1.05v.17h-.87v-.17c-.64-.17-1.53,.11-1.92,.17h-3.15s.02-.17-.35-.17-.35,.17-.35,.17h-2.62v-.17c-.7-.19-1.47,.24-1.92,.17v-.17c-1.01-.23-2.88,.3-3.32,0-.82-.22-.57-.36-.87-1.04h-.18v-.35h-.17c.06-.29,.12-.58,.17-.87,0,0-.21-.03-.17-.35,0,0,.22-.09,.17-.35h-.17v-.7h-.18c0-.05,.17-.39,.18-.69v-2.08s-.26-.14-.18-.52c.05-.24,.14,.07,.18-.17v-1.21h.17c.09-.38-.17-.52-.17-.52-.24-.91-.01-2.65,.17-3.3v-3.3h.18c.05-.3-.16-.3-.18-.35v-1.56h-.17v-.17h.17v-2.43h-.17v-3.12s-.19,.02-.18-.35h.18v-.17h-.18c-.05-.3,.16-.29,.18-.35v-1.04c-.06-.24-.16,.07-.18-.17h.18c.02-.1-.28-.47-.18-.87,.19-.75,.43-3.34,.18-4.34h-.18c.06-.29,.12-.58,.18-.87h-.18c-.11-.55,0-2.38,0-3.47v-2.26c-.51-1.79-.17-4.66-.17-6.77v-2.78s-.26-.14-.18-.52h.18v-2.08c.04-.24,.18,.07,.17-.17h-.17c-.12-.57,.14-.81,.17-1.22,.1-1.22-.09-2.74,0-3.47,.36-.19,.31-.28,.87-.35v-.52c.44-.23,.61-.34,1.4-.35,.49,.42,4.27,.18,4.89,0,.52-.06,1.05-.12,1.57-.18,0,0,.02,.21,.35,.18v-.18c.41,.06,.81,.12,1.22,.18v-.18h1.4c.23,.06,.46,.12,.7,.18v-.18c1.16-.25,2.56,.12,3.32,.35h.87v.17h.35v.17c.7,.26,.56-.27,1.05,.35h.17v3.82c.34,.35,.02,1,.17,1.56h.18v.52h.17v.17Zm-6.29,12.68v.17c-.35-.1-.15,.02-.35-.17h.35Zm37.4,36.3h-.52v.17h-2.27v.17c-.57,.12-.89-.3-1.4-.35-1.63,.06-3.26,.11-4.89,.17v-.35c-.83-.25-.19-.15-.53-.69-.17-.12-.35-.23-.52-.35v-.34h-.18v-2.61h-.17v-1.39h.17v-1.39h-.17v-1.39h-.17c.06-.46,.12-.93,.17-1.39h-.17c-.06-.46-.12-.93-.17-1.39-1.87-.01-3.25,.63-4.89,.69v1.04h-.17c.06,.17,.12,.35,.17,.52h-.17v.87h.17v.69h-.17v.87h-.17c.06,.17,.12,.35,.17,.52h-.17v2.43h-.17v.17h.17c.15,.77-.02,1.75-.35,2.08v.18c-.3,.2-.67-.11-.87,.17v.52c-.12,.06-.23,.11-.35,.17-.45,.66-.07,.67-1.22,.7-.45,.33-1.46-.4-2.45-.17v.17c-.58-.06-1.17-.12-1.75-.17-.06-.02-.04-.24-.35-.17v.17c-.27,.02-.35-.17-.35-.17-.33-.05-.35,.17-.35,.17-.45,.08-.52-.17-.52-.17-.66-.17-1.45,0-1.92-.17v-.17h.18c-.06-.29-.3-.25-.35-.35v-.35h-.18c.06-.75,.12-1.51,.18-2.26h.17c-.06-.17-.12-.35-.17-.52h.17v-.87h.18v-1.74h.18v-1.74h.17c.16-.55-.23-1.12-.17-1.39h.17v-.7h.18v-1.56c.46-1.54,.42-3.54,.87-5.04v-1.74h.18v-.7h.17v-.87h.17c-.06-.12-.12-.23-.17-.35h.17v-1.22h.18v-1.22h.17v-1.39h.18c-.06-.52-.12-1.04-.18-1.56h.18v-.52h.17c.18-.56-.24-1.07-.17-1.39h.17v-1.21h.18v-.87h.17v-1.39h.18v-1.22h.17v-.87h.17v-2.61h.17c.06-1.1,.12-2.2,.18-3.3h.17c.03-.24-.12,.07-.17-.17v-1.22h.17v-1.39h.17c-.06-.12-.12-.23-.17-.35h.17v-.69h.18c.04-.24-.14,.07-.18-.17-.03-.29,.18-.35,.18-.35v-.17h-.18c.06-.12,.12-.23,.18-.35h-.18v-.18h.18c.06-.63,.12-1.27,.17-1.91h.18v-.7h.17v-2.08h.17v-.35h.18v-1.56h.17v-1.39h.17v-.69h.17v-1.04h.17c.06-.41,.12-.81,.17-1.21,.23-.18,.47-.35,.7-.52,.06-.12,.11-.23,.17-.35h2.1c.65-.52,2.31,.67,3.49,.35v-.17c.64-.06,1.28-.11,1.92-.17v.17c.25,0-.07-.14,.17-.17,.75-.11,1.59,.2,2.1,.35h2.1v.17c.31,.11,.45,.07,.7,.17,.16,.42,.18,1.08,.18,1.74,.37,.43,.15,1.28,.35,1.91h.18v.87h.17v.87h.17v.7h.18v.7h.18c.12,.4-.19,.96-.18,1.04h.18v.52h.17v1.04h.17v1.39h.17v1.73h.17c.06,1.04,.12,2.09,.17,3.13h.18v1.04h.18v.87h.17c.04,.24-.03-.03-.17,.17v.17h.17v.87h.17v1.56h.17v.52h.17c-.06,.29-.11,.58-.17,.87h.17v1.04h.18v.87h.17c-.06,.29-.12,.58-.17,.87,.12,.06,.23,.12,.35,.17v1.22h.17v1.56h.17v1.22h.17v.69h.18v3.13h.17v.87h.18v.17h-.18c-.04,.39,.18,.35,.18,.35v1.21h.18c-.06,.12-.12,.23-.18,.35h.18c.14,.57-.24,.87-.18,1.22h.18v1.56h.17v1.22h.17c.06,1.27,.12,2.55,.18,3.82h.18v.17h-.18c.06,.11,.12,.23,.18,.35,0,0-.27,.15-.18,.52h.18v1.22h.17v1.04h.17v1.04h.18v.52h.17v1.04h.17c.06,.35,.12,.7,.18,1.04h.17c-.06,.23-.12,.46-.17,.69h.17v.35h.18c.12,.98,.23,1.97,.35,2.95-.43,.25-.5,.56-.7,1.04m43.34-27.27h-.17v1.39c-.04,.13-.38,1.22-.35,1.39h.18v1.04h.17v.17h-.17c-.24,1.1,.08,2.59-.18,3.47,.06,.58,.12,1.16,.18,1.74h-.18v1.39h-.17v.17h.17v2.08h.18v.17h-.18v1.04c-.06,.24-.12-.07-.17,.17h.17v.17h-.17v.87h.17v.17h-.17c-.07,.41,.17,.52,.17,.52-.06,.23-.12,.46-.17,.69h.17v.7h-.17v.17h.17c.06,.81,.12,1.62,.18,2.43h-.18c-.06,.35,.32,1.25,.18,1.91h-.18c-.06,.3,.16,.29,.18,.35,.16,.65-.11,1.51-.18,1.91,.06,.75,.12,1.5,.18,2.26h-.18c-.19,.29-.24,.29-.35,.69-.51,0-.94-.03-1.22,.17-.06,.11-.12,.23-.17,.35h-2.45v-.17c-1.63,.06-3.26,.12-4.89,.17-.12-.46-.28-.55-.52-.87h-.17v-.35h-.17v-2.26h-.18v-1.39h-.17v-.17s.22-.08,.17-.35c0,0-.23-.04-.17-.35h.17v-1.39h-.17c-.11-.42,.19-.72,.17-.87,0,0-.23-.09-.17-.35h.17c.21-.81-.14-1.84,.18-2.43,0-.25-.13,.07-.18-.17v-2.43c.06-.35,.12-.69,.18-1.04h-.18v-2.26h.18c-.06-.52-.12-1.04-.18-1.56,0-1.47,.09-3.33-.17-4.51-.08-.36,.17-.52,.17-.52-.06-.41-.12-.81-.17-1.21h.17v-.87h-.17v-2.95h-.18c.06-.35,.12-.69,.18-1.04h-.18c.06-.12,.12-.23,.18-.35h-.18v-.87h-.18v.18h-.18v.87h-.17v1.04h-.18v1.56h-.17v.17h.17v.17h-.17v1.39h-.18v.52h-.17v1.91h-.18v.69h-.17v1.39h-.18c.06,.23,.12,.46,.18,.69h-.18v1.39h-.18v.52h-.17v.7h-.17c.06,.29,.12,.58,.17,.87-.12,.06-.23,.11-.35,.17v1.56h-.17v1.22h-.18v1.04h-.17c-.14,.45,.19,1.48,.17,1.56h-.17c-.06,.29-.12,.58-.17,.87h-.17c.06,.23,.12,.46,.17,.7h-.17v.52c-.08,.23-.17-.07-.18,.18,.13,.18,.24-.07,.18,.17h-.18v1.74h-.17v.87c-.02,.06-.23,.04-.17,.35h.17v1.22h-.17v.52h-.17v.69h.17c-.06,.46-.12,.93-.17,1.39h-.35v.17c-.23-.11-.47-.23-.7-.34v.52h.17c.12,.31-.15,.28-.17,.35-.24,.58-.06,.52-.87,.52v-.17h-1.4v-.18c-1.34-.38-2.44,.36-3.32-.52-.42-.39-.14-.35-.35-.87h-.17v-.69h-.17v-.7h-.18c.06-.35,.12-.69,.18-1.04h-.18c-.06-.58-.11-1.16-.17-1.74h-.18v-1.39h-.17v-1.04h-.17v-1.39h-.17v-1.74h-.18v-.87h-.17v-1.21h-.17v-1.22c-.69-2.23-.88-5.07-1.57-7.29v-1.04c-.31-1.02-.49-2.21-.87-3.13h-.17v1.04h-.18c-.19,.35,.18,.5,.18,.7h-.18v1.74h-.18v.17h.18v.52h-.18c.06,.64,.12,1.27,.18,1.91h-.18c-.08,.36,.18,.52,.18,.52-.06,.35-.12,.69-.18,1.04h.18v.87h-.18v.87h.18v.17h-.18c-.08,.42,.18,.46,.18,.7h-.18v2.08c0,2.38,.11,5.2-.18,7.29,.06,.12,.12,.23,.18,.35,.12,1.16,.23,2.32,.35,3.47h-.18c.06,.35,.12,.7,.18,1.04-.18,.12-.35,.23-.53,.35v.52h-.17c-.06,.17-.12,.35-.18,.52h-2.27v.18h-.35v.17h-.87v.17c-.41-.06-.81-.11-1.22-.17h-2.62l-.35-.52h-.7v-.17h-.18c-.09-.23-.07,.05-.17-.17v-.52c-.18-.12-.35-.23-.53-.35v-1.56h-.17c.06-.29,.12-.58,.17-.87h-.17v-1.04h-.17c.06-.93,.12-1.85,.17-2.78h-.17c-.03-.2,.22-.31,.17-.7-.06-.17-.12-.35-.17-.52,0,0,.19-.1,.17-.35h-.17v-.17h.17v-.87h-.17v-1.21h-.18c-.09-.38,.17-.52,.18-.52v-2.43h-.18v-1.91h.18v-.35h-.18v-1.91h.18c-.06-.92-.12-1.85-.18-2.78h-.17c.06-.52,.12-1.04,.17-1.56h-.17c.06-.69,.12-1.39,.17-2.08,0,0-.26-.14-.17-.52h.17c-.06-1.1-.12-2.2-.17-3.3v-2.95h.17v-2.78h-.17c.06-.69,.12-1.39,.17-2.08h.18c.09-.38-.18-.52-.18-.52v-1.22h.18c-.06-1.04-.12-2.09-.18-3.13,.38-1.31-.12-3.3,.18-4.86,.36-1.95-.38-6.3,.52-8.51,.17,.06,.35,.11,.52,.17v-.17c.18-.06,.35-.12,.53-.17h.17v.17h3.32c.58,.06,1.17,.11,1.75,.17v-.17c.93-.06,1.86-.12,2.8-.17,0,0,0,.15,.35,.17,1.88,.16,4.33-.15,5.07,1.04h.17c.06,.41,.12,.81,.18,1.22h.18v1.04h.17v1.04h.18v.35h.18v1.39c.36,1.24,.5,2.79,.87,4v.87h.18v.52h.17c.06,.69,.12,1.39,.17,2.08h.18v.87h.17c.02,.23-.28,.28-.17,.69,.23,.89,.21,2.3,.52,3.13h.18c.18-.98,.35-1.97,.52-2.95h.17c.02-.11-.29-.47-.17-.87,.3-1.09,.62-2.51,.7-3.82-.17-.06-.35-.12-.52-.17-.06-.39-.23-.89,0-1.39,.12-.06,.23-.11,.35-.17,.06-.87,.12-1.74,.17-2.6h.17v-.7h.17v-.87c.12-.06,.23-.12,.35-.17,.12-1.1,.23-2.2,.35-3.3,.39-.26,.5-.8,.87-1.04,.23-.06,.47-.12,.7-.17v-.17c.52,.06,1.05,.12,1.57,.17v-.17h.87v-.17c.29-.05,.31,.17,.35,.17,1.16,.25,2.84-.04,3.85,.17,.7-.06,1.4-.12,2.1-.17v-.17h.35v-.17h1.22c.24,.05-.07,.16,.18,.17,.51,.02,.76-.63,1.57-.35v.18c.35,.11,.7,.23,1.05,.35,.13,.47,.29,.53,.52,.87h.18c-.06,.87-.12,1.74-.18,2.6h.18c.1,.42-.18,.45-.18,.7h.18c.05,.31-.18,.35-.18,.35l.18,.52h-.18v.17h.18v1.39h.17c-.06,.29-.12,.58-.17,.87h.17v1.39h-.17c-.09,.38,.17,.52,.17,.52,.11,.43-.18,.65-.17,.87h.17v1.91h-.17c.06,.23,.12,.46,.17,.69,0,0-.22,.09-.17,.35h.17c.15,.59-.25,1.67-.17,1.91,.12,.06,.23,.12,.35,.17-.06,.46-.12,.93-.18,1.39h.18v1.22h.17c-.06,.23-.12,.46-.17,.69h.17c-.06,.18-.12,.35-.17,.52h.17v1.04h.18c.06,.28-.17,.33-.18,.35,.06,.12,.12,.23,.18,.35,0,0-.22,.15-.18,.35h.18v3.65h.17v.17h-.17c-.09,.46,.18,.68,.17,.87h-.17v.87h.17v1.39h.17v.17Zm42.29,4.34c-.12,.06-.23,.11-.35,.17v.35h-2.1v.17c-1.46-.06-2.91-.12-4.37-.17-.23,.44-.35,.61-.35,1.39h-.18c.06,.11,.12,.23,.18,.35-.13,.36-.35,1.46-.18,2.08,0,0,.26,.06,.18,.52-.08,.47-.2,2.08-.18,3.3,.06,.41,.12,.81,.18,1.22-.2,.85,.06,2.31-.18,3.3h-.17c.06,.17,.12,.35,.17,.52h-.17v1.56c.08,.26,.33,1.04,.17,1.56h-.17c.06,.69,.12,1.39,.17,2.08h-.17c.06,.17,.12,.35,.17,.52-.04,.36-.17,.92-.17,1.56v4.52h.17v1.04h.18v.52h.17c-.06,.35-.11,.7-.17,1.04,.07,.07,.29-.04,.17,.18h-.17c-.22,.29-.1,.23-.53,.35v.87c-.27,.15-.37,.26-.52,.52-.35-.06-.7-.11-1.05-.17v.17h-.35v.18h-1.05v.17h-1.75v.18l-1.57-.18v-.17c-.93,.06-1.86,.11-2.79,.17-.16-.31-.24-.27-.35-.69-.54,0-1.17-.11-1.22-.17-.48-.25-.8-.53-.87-1.21h.18v-.35c.12-.06,.23-.12,.35-.17-.01-.25-.14,.07-.18-.18-.06-1.27-.12-2.55-.17-3.82,.11-2.54,.19-5.69,.17-8.51-.06-1.16-.12-2.32-.17-3.47h.17c.05-.3-.16-.3-.17-.35-.31-1.31,.14-3.07-.18-4.17v-3.47c-.06-.35-.12-.69-.17-1.04h.17c-.06-.17-.12-.35-.17-.52h.17v-2.26h-.17c-.05-.3,.16-.3,.17-.35v-1.56c-.02-.52-.23-2.49,0-3.3h.18v-1.21h-.18v-1.04h.18c-.06-.12-.12-.23-.18-.35,.06-.52,.12-1.04,.18-1.56-.06-.17-.12-.35-.18-.52h.18v-3.82c0-1.69-.11-3.8,.17-5.21,.05-.26-.17-.34-.17-.35-.05-.32,.17-.35,.17-.35,.08-.42-.17-.45-.17-.69h.17c-.03-.24-.12,.06-.17-.17v-1.22h.17v-.17h-.17v-.17h.17c.18-.71-.15-1.42-.17-1.91,.06-.29,.12-.58,.17-.87h-.17v-3.12h-.18v-.17h.18c.23-1.21-.37-1.99,0-2.96,.16-.41,.56-.67,.7-1.21,.7-.06,1.4-.11,2.1-.17v-.18c.35,.06,.7,.12,1.05,.18h1.05v.17c.93-.06,1.86-.11,2.8-.17v.17h3.67v.17c.35,.06,.66-.33,1.22-.17v.17c.9,.25,1.9-.18,2.45-.35h1.92v-.18h.17v.18c.38,.1,.42,.07,.7,.17,.06,.17,.12,.35,.17,.52h.18v.35h.17l-.17,5.04h.17v1.22h.17c.21,.7,.09,1.2,0,1.74-.17,.06-.35,.12-.52,.17v.17h-.35c-.06,.12-.12,.23-.17,.35-.23,.06-.47,.12-.7,.17v.17c-.52-.06-1.05-.11-1.57-.17v.17h-2.97c-.41,.77-.37,1.23-.35,2.43h-.18v.17h.18v2.26h-.18c-.06,.35,.3,.64,.18,1.21,0,0-.22,0-.18,.35h.18c.05,.4-.32,.65-.18,1.22h.18c-.06,.12-.12,.23-.18,.35,.16,.7,.4,2.33,.18,3.3h-.18c-.05,.29,.17,.31,.18,.35v.7h-.18c0,.25,.13-.07,.18,.17v.87c.28,.1,.41,.15,.87,.17,.56-.5,.98,.12,1.57,0v-.17c.65-.16,2.01,.22,2.45,.35h.87v-.18c.12,.06,.23,.12,.35,.18,.19,.42,.32,.56,.35,1.22,.17,.06,.35,.12,.53,.17v1.39h-.17v.17h.17v1.04c-.06,.11-.12,.23-.17,.35h.17v2.43h.17v2.43Zm33.73,16.5h-.17v.17h-.87v.35h.35v.18h-1.05v.52c.72,.08,.75,.37,1.4,.52v.17h-.52v.17c-.15-.03-.54-.37-.88-.17v.17c-.26,.22-.6,.82-.7,1.22h-.35c-.18,.23-.35,.46-.53,.69h-.35c-.17,.23-.35,.46-.52,.7h-.35c-.06,.11-.11,.23-.17,.35h-.35c-.23,.29-.46,.58-.7,.87h-.35v.18h-.7v.17h-.35v.17h-1.75v.17c-.69,.19-1.45-.13-1.92-.17h-2.27v.17c-.82-.06-1.63-.12-2.45-.17-1.92,.06-3.84,.11-5.77,.17v-.17h-.52v-.17h-.35v-.17h-.7v-.18c-.35-.12-.7-.23-1.05-.35v-.17h-.35c-.12-.18-.23-.35-.35-.52h-.35v-.17c-.23-.18-.47-.35-.7-.52v-.35c-.23-.17-.47-.35-.7-.52v-.35c-.12-.06-.23-.12-.35-.17v-.35h-.18v-.35c-.12-.06-.23-.11-.35-.17v-.87h-.18v-.35h-.17v-1.56c-.04-.24-.17,.07-.18-.17h.18v-1.04s.21,.03,.17-.35h-.17c-.06-.29,.17-.31,.17-.35-.06-.4-.12-.81-.17-1.21h.17v-1.22h.18c-.06-.17-.12-.35-.18-.52v-2.78h.18v-.17h-.18c-.11-.44,.18-.65,.18-.87h-.18v-1.56s.26-.14,.18-.52h-.18v-1.91c-.06-.52-.12-1.04-.17-1.56,.01-.75,.26-1.36,0-2.26h-.18v-2.78h-.17v-.17h.17c.06-1.16,.12-2.32,.18-3.48h-.18v-.17h.18c-.06-.29-.12-.58-.18-.87h.18v-3.47s.23,0,.17-.35h-.17v-2.08c-.08-.28-.48-1.68-.35-2.08h.17v-.35h.18v-.17h-.18v-1.91h.18c.05-.27-.17-.33-.18-.35,.06-.52,.12-1.04,.18-1.56-.06-.46-.12-.93-.18-1.39h-.17c.06-.35,.12-.7,.17-1.04v-3.3h.18v-.52h.17c.12-.63,.23-1.27,.35-1.91h.17c.12-.35,.23-.7,.35-1.04h.35c.15-.69,1.38-2.01,1.92-2.26,.35-.06,.7-.12,1.05-.18v-.17h.35v-.17h1.92c.06-.12,.11-.23,.17-.35h.87c.12-.18,.23-.35,.35-.52h1.4v-.17h1.4s.14,.25,.53,.17v-.17h2.97v.17h.18v-.17h1.4v.17h2.27v.17h.52v.17h1.05v.18h.35v.17h1.23c.12,.17,.23,.35,.35,.52h.35c.06,.12,.11,.23,.17,.35,.37,.33,.66,.33,1.4,.35,.06,.64,.23,.84,.52,1.22h.17c.06,.29,.12,.58,.17,.87h.17v.35h.18c.06,.29,.12,.58,.17,.87,.12,.06,.23,.12,.35,.17,.06,.52,.11,1.04,.17,1.56h.35c.06,.23,.12,.46,.17,.69,0,0-.21,.1-.17,.35h.17v.17h-.17v.17h.17v.06c-.54-.17-1.08-.07-1.52,.15-.47,.12-.82,.47-.71,.94-.12,0-.12,.12-.24,.24-.12,.47,0,.94,0,1.29s-.12,.71-.24,1.06c0,.59,.35,1.53,.59,2.12,.35,.59,1.29,.82,2,1.06,.04,.01,.08,.02,.11,.04,.02,.76,.07,1.49,.17,2.08,.01,.07-.04,.3-.11,.55-.92,.17-1.63,.62-2.28,1.3,.47,.73,.64,1.3,.85,1.61l.03-2c.03,.11,.15,.08,.18,.19,.09,.72,.23,1.18,.55,1.83,.21,0,.41-.04,.6-.07v.75h.18c-.06,.12-.12,.23-.18,.35,.06,.12,.12,.23,.18,.35h-.18v.87h.18c-.06,.58-.12,1.16-.18,1.74,.06,.12,.12,.23,.18,.35h-.18v.69h-.17c.12,1.1,.23,2.2,.35,3.3h-.18c-.04,.3,.18,.35,.18,.35-.06,.23-.12,.46-.18,.69h.18v1.04h.17v.17h-.17v1.91h-.18c.06,.29,.12,.58,.18,.87,.08,2.11-.3,4.46,0,5.73v6.6h.17v.69h-.17c-.22,.79,.02,2.1,.35,2.43v.18h1.04v.17Zm32.16,5.73c-.23,.35-.56,.43-1.05,.52v.35c-.29,.06-.58,.12-.87,.17v-.17h-.35v-.17c-1.17,.06-2.33,.11-3.49,.17v-.17h-.53v-.17c-.99-.33-2.92-.16-4.2-.17-.15-.27-.25-.36-.52-.52,.08-.33,.24-.61,0-1.04-.12-.06-.23-.12-.35-.17v-1.22h-.17v-.17c.13-.21,.22,.07,.17-.17,0,0-.26-.17-.17-.52h.17c-.06-.75-.12-1.5-.17-2.26-.09-1.95,.05-4.21-.17-5.9-.02-.14,.29-.45,.17-.87h-.17v-2.6h.17c.03-.22-.28-.29-.17-.69h.17v-2.08h.17c-.12-.98-.23-1.97-.35-2.95-.12-.06-.23-.12-.35-.17v-.17c-.41-.06-.82-.12-1.22-.17-.24-.04,.07-.17-.17-.17v.17c-.35,.06-.7,.12-1.05,.17-.12,.56-.32,.86-.52,1.39h-.17c-.08,.3,.16,.3,.17,.35v1.74h.17c-.06,.35-.12,.69-.17,1.04h.17v5.38h-.17v.87c-.02,.06-.22,.05-.17,.35,0,0,.24,.15,.17,.52h-.17c.06,.17,.12,.35,.17,.52h-.17v1.39h.17c.06,.3-.16,.29-.17,.34v1.91h.17c-.06,.17-.12,.35-.17,.52,.06,.63,.12,1.27,.17,1.91-.54,.28-.31,.33-1.22,.35v.35c.76,.18,.74,.63,.7,1.56-.24,.21-.38,.56-.52,.87-.6-.09-.73-.17-1.4,0v.18c-.17-.06-.35-.12-.52-.18v.18c-1.4-.06-2.8-.12-4.19-.18-.82,.06-1.63,.12-2.45,.18v-.18h-.35c-.42-.21-.69-.56-1.22-.7v-1.04s-.2,.03-.17-.35c.06-.17,.11-.35,.17-.52h-.17v-.17h.17v-1.91c-.24-.83,.04-2.24-.17-3.3h-.18v-.17h.18v-.52h.17c0-.08-.26-.6-.17-1.04h.17v-.17h-.17v-1.04h.17c.11-.43-.17-.64-.17-.87h.17v-.17h-.17c.06-1.04,.11-2.08,.17-3.13h.18v-.17h-.18c.06-.17,.12-.35,.18-.52h-.18v-.69h.18v-2.09h-.18v-3.99h-.17c-.03-.24,.04,.03,.17-.17-.06-.12-.12-.23-.17-.35,.13-.21,.21,.07,.17-.17-.04-.24-.16,.07-.17-.18h.17v-.17h-.17v-1.74h.17c.05-.29-.16-.3-.17-.35v-1.22h.17c.1-.41-.2-.47-.17-.69h.17v-1.04s-.22-.06-.17-.35h.17v-2.26h-.17v-.18h.17v-1.56h.18v-.7h-.18c-.11-.44,.17-.64,.18-.87h-.18v-.17h.18v-5.73h.17c-.11-.75-.23-1.51-.35-2.26h.18c-.06-1.21-.12-2.43-.18-3.65v-.35h.18c-.06-.17-.12-.35-.18-.52,.17-.7,.44-3.23,.18-4.17h-.18v-1.56s-.24-.06-.17-.35h.17c.22-.71,.15-1.2,.7-1.56v-.17h.87c.06-.12,.12-.23,.18-.35,.53-.22,3.49,.07,3.84,.17h1.75v.17c.52-.06,1.05-.12,1.57-.17,0,0,.14-.25,.52-.17v.17h2.45s.15-.25,.53-.17v.17c1.28,.06,2.56,.12,3.84,.17v.17h2.62v.17h2.79v.18c.24,.06,.47,.12,.7,.17,.06,.12,.12,.23,.17,.35h.35c.06,.12,.11,.23,.17,.35h.35c.06,.12,.12,.23,.17,.35h.35c.06,.17,.11,.35,.17,.52h.18c.24,.3,.29,.35,.35,.87h.35c.06,.35,.12,.7,.17,1.04h.17v.35h.18c.07,.24-.13-.07-.18,.18,.06,.12,.12,.23,.18,.35h-.18v.69h.18v.7h.17s-.29,.79-.17,1.22h.17v1.91h.18v.52c-.06,.29-.12,.58-.18,.87h.18v.87h.17c-.06,.64-.12,1.27-.17,1.91,.06,.46,.12,.93,.17,1.39h-.17v2.26c.04,.24,.18-.07,.17,.17h-.17c.06,.58,.12,1.16,.17,1.74h-.17v1.04h-.18c.06,.23,.12,.46,.18,.69h-.18v1.39h-.17c-.06,.35-.12,.69-.18,1.04h-.17v.35h-.17c-.06,.29-.12,.58-.18,.87-.44,.71-1.17,1.1-1.4,2.08-.4,.1-.43,.15-.7,.35v.17c-.52,.17-1.05,.35-1.57,.52,.39,.44,.48,.12,.87,.35,.41,.46,.82,.93,1.22,1.39,.11,.06,.23,.11,.35,.17v.35c.29,.23,.58,.46,.87,.69v.7h.18v.35h.17v.52h.18v.35h.17v.87h.17v.35h.18c.06,.35,.12,.7,.17,1.04h.18v1.56s.19-.03,.17,.35h-.17v.17h.17v1.56h-.17v.17h.17v2.08h.17c-.06,.75-.12,1.5-.17,2.26h.17v1.56c0,1.26,.15,3.68,0,4.34v1.39h-.17v1.22h.17v.17h-.17c.06,.12,.12,.23,.17,.35h-.17v1.74h.17c.06,.35,.12,.69,.18,1.04h-.18Zm27.61-49.84h-.17c.05,.98,.12,1.97,.17,2.95-.1,.05-.35,.35-.35,.35-.29-.06-.58-.11-.87-.17-.12,.17-.23,.35-.35,.52-.4,.17-.69-.2-.87-.17v.17h-.7v.17h-1.57v-.17c-.17,.06-.35,.12-.52,.17-.21,.46-.68,1.27-1.05,1.56,.06,.23,.12,.46,.17,.69,0,0-.22,.09-.17,.34h.17v1.22h-.17v.87h.17c.05,.3-.16,.3-.17,.35v.87h.17c-.06,.23-.12,.46-.17,.7h.17v.69h-.17c.06,.52,.12,1.04,.17,1.56h-.17c.06,.52,.12,1.04,.17,1.56h-.17v.17h.17v.52c-.06,.11-.12,.23-.17,.35h.17v.69h-.17c.06,.69,.12,1.39,.17,2.08-.06,1.1-.12,2.2-.17,3.3,.06,.17,.12,.35,.17,.52h-.17v.18h.17v.17h-.17c.12,.52,.23,1.04,.35,1.56h-.17v1.73h-.17c-.08,.4,.33,.94,.17,1.56h-.17c-.09,.38,.17,.51,.17,.52-.06,.75-.12,1.51-.17,2.26v.87h.17v.17c-.06,.17-.12,.35-.17,.52,0,0,.23,.08,.17,.35h-.17v4.17h.17v.87h-.17c-.05,.3,.16,.3,.17,.35,.1,.43-.18,.97-.17,1.04h.17c.06,.69,.12,1.39,.17,2.08h-.17c.06,.35,.12,.69,.17,1.04h-.17v1.04s.22-.02,.17,.35c-.21,1.59,.1,4.13-.35,6.6-.18,.06-.35,.12-.52,.18-.06,.23-.12,.46-.18,.7-.35,.06-.7,.11-1.05,.17v.17c-.58,.17-1.04-.22-1.4-.17,0,0-.09,.22-.35,.17v-.17c-.52,.06-1.05,.12-1.57,.17v-.17h-.35v-.17h-1.57v-.18s-.57,.17-.88,.18c-.87-.06-1.75-.12-2.62-.18-.09-.16-.52-.52-.52-.52v-5.73c-.48-.56,.04-1.93-.18-2.78h-.17v-.17h.17c-.06-.12-.12-.23-.17-.35h.17c-.04-.24-.12,.07-.17-.17v-1.04c0-.31,.18-.64,.17-.69h-.17v-1.56c.06-.64,.11-1.27,.17-1.91h-.17c.06-.76,.11-1.51,.17-2.26h-.17v-.17h.17v-1.22h-.17c.06-.23,.11-.46,.17-.69h-.17v-1.56h.17c.1-.44-.39-1.67-.17-2.43,.25-.89-.06-2.37,.17-3.47h.18v-.17h-.18c.06-.17,.12-.35,.18-.52h-.18v-1.74s.19,.03,.18-.35h-.18v-.18c.11-.69,.43-2.34,.18-3.3h-.18c.12-.98,.23-1.97,.35-2.95h-.17c.06-.17,.12-.35,.17-.52v-.35h-.17c.06-.11,.12-.23,.17-.34,.09-.79-.12-1.53-.17-2.08v-2.08h-.18c.06-.12,.12-.23,.18-.35h-.18c.06-.17,.12-.35,.18-.52,.04-.46-.18-.52-.18-.52-.02-.09-.04-.19-.05-.28,.2-.04,.39-.12,.57-.23,1.43-1.07,.71-2.74-.95-2.74-.17-.03-.35-.02-.53,.01-.03-.02-.05-.04-.08-.07v-.17h-.35v-.17h-1.92c-.58-.17-1.42-.39-2.1-.52-.06-.37-.18-.35-.18-.35v-1.56h-.17v-1.22h-.17c-.06-.3,.16-.3,.17-.35v-1.39h-.17c-.2-.2,0-.07-.35-.17v-.87h.35c.09-.58,.32-1.98,.7-2.26h.35c.06-.12,.12-.23,.17-.35,.23,.06,.46,.11,.7,.17,.06-.11,.12-.23,.17-.35,.58,.06,1.17,.12,1.75,.18v-.18h1.05c.05,.01,.05,.23,.35,.18v-.18c.96-.24,2.8-.03,3.5,.18h2.79v.17h1.92c1.41,0,2.96,.03,3.67,.17,.35-.06,.7-.12,1.05-.17v-.17c.82,.06,1.63,.11,2.45,.17v.17c.3,.06,.3-.16,.35-.17,.79-.18,1.05-.02,1.22,.52h.87c.31,.83,.19,2.36,.18,3.48-.24,.38,.3,.59,.17,1.21m31.46,50.19c-.13,.06-.6,.12-.7,.17-.06,.12-.12,.23-.18,.35h-.35v.17h-.87v.17c-1.05-.06-2.1-.12-3.15-.17v-.17h-4.02c-.17-.31-.24-.27-.35-.7-.98-.12-.57-.43-1.05-.7h-.35c-.06-.64-.12-1.27-.18-1.91,0,0,.19,.02,.18-.35h-.18v-.17h.18v-.7c0-.4-.18-.53-.18-.69h.18v-1.91h-.18v-.17h.18c.12-.54-.09-1.28-.18-1.56v-3.47h-.17c.06-.17,.12-.35,.17-.52v-.52h-.17c.06-.17,.12-.35,.17-.52h-.17v-.17h.17v-.17h-.17v-.7h.17v-2.6h-.17c-.16-.56,.19-.81,.17-1.22h-.17c.06-.17,.12-.35,.17-.52-.06-.69-.12-1.39-.17-2.08-.17-.06-.35-.12-.52-.17-.35-.37-1-.36-1.75-.35-.41,.29-.82,.58-1.22,.87v.35c-.11,.06-.23,.11-.35,.17v2.08c.17,.19,.14,2.24,0,2.78h-.18v.17h.18c-.06,.12-.12,.23-.18,.35,.13,.21,.22-.07,.18,.17,0,0-.22,.03-.18,.35h.18v.17s-.22,.08-.18,.35c0,.02,.23,.07,.18,.35h-.18v.87h.18v1.56h.18c-.06,.23-.12,.46-.18,.69h.18c.05,.29-.17,.31-.18,.35-.08,.39,.18,.52,.18,.52,.05,.3-.16,.29-.18,.35v1.74h-.18c.06,.35,.12,.69,.18,1.04h.18v.17h-.18v.87h-.18c.06,.29,.12,.58,.18,.87h-.18v.69h.18c.2,.68,.07,2.16-.18,2.43-.06,.17-.11,.35-.17,.52h-.17v.35c-.18,.2-.49,.16-.87,.18l-.17-.52c-.15,.08-.53,.52-.53,.52-.45,.21-1.16-.14-1.4-.18h-3.67v-.17h-1.05v-.17h-.18c-.06,.11-.11,.23-.17,.35-.6,.21-1.23-.21-1.57-.35-.06-.17-.12-.35-.18-.52-.11-.06-.23-.12-.35-.17-.06-.75-.12-1.51-.17-2.26h.17c-.06-.11-.12-.23-.17-.35h.17v-.69h-.17c.06-.17,.12-.35,.17-.52v-4.69h-.17c-.05-.29,.16-.3,.17-.35v-1.91c-.25-1.53,0-3.33,0-5.21v-1.04s.23,0,.18-.35h-.18v-2.26h-.17c-.05-.29,.21-.55,.21-.96,.02,0,.03,.01,.05,.01,1.55,.12,1.91-2.14,.36-2.38-.14,0-.3,0-.44,0v-1.36h-.17c.06-.17,.12-.35,.17-.52h-.17v-.52h.17c-.06-.35-.12-.7-.17-1.04,.03-.25,.27-.28,.17-.69h-.17v-2.08s.23-.07,.17-.52h-.17v-.17h.17v-.17h-.17v-.17h.17v-1.91h-.17c.06-.41,.12-.81,.17-1.22-.06-.81-.12-1.62-.17-2.43h-.17v-.17h.17v-5.56s.23,0,.17-.35h-.17c-.06-1.22-.11-2.43-.17-3.65h.17c-.06-.93-.11-1.85-.17-2.78h-.17v-.17h.17v-1.22h.17c.08-.35-.17-.52-.17-.52-.05-.28,.17-.33,.17-.35-.06-.12-.11-.23-.17-.35h.17v-.17h-.17c-.06-.4-.12-.81-.17-1.21h.17c.06-.29,.69-1.43,.87-1.56h.35c.12-.17,.23-.35,.35-.52h.87c.32,.26,1.34,0,2.1,0,1.91,0,3.41,.31,5.07-.18h1.75v.18c.23-.06,.46-.12,.7-.18,.76,.06,1.51,.12,2.27,.18v.17c.52-.06,1.05-.11,1.57-.17v.17h.18v-.17c.35,.06,.7,.11,1.05,.17v.17h1.4v.17c.26-.05,.46-.5,.53-.52,.43-.13,.97,.59,1.22,.69,.52,.06,1.05,.12,1.57,.18,.12,.17,.23,.35,.35,.52h.52c.17,.23,.35,.47,.52,.7,.23,.06,.46,.12,.7,.17,.06,.18,.12,.35,.18,.52,.23,.17,.46,.35,.7,.52v.52c.23,.17,.46,.35,.7,.52,.06,.4,.12,.81,.17,1.21,.12,.06,.24,.12,.35,.17v.52h.17c.12,.41-.2,.47-.17,.7h.17v.87h-.17v.35h-.17v1.91h.17c.12,.42-.19,.73-.17,.87h.17v3.3h.17v.17h-.17c.06,.39,.34,1.27,.17,1.91h-.17v.17c.06,.11,.12,.23,.17,.35h-.17v2.61h-.17v.17h.17v.52c.06,.24,.2-.07,.17,.17h-.17c-.12,1.33-.23,2.66-.35,3.99h-.17v.35c-.12,.06-.24,.12-.35,.18v.52c-.17,.12-.35,.23-.53,.35v.35c-.12,.06-.23,.11-.35,.17v.35c-.12,.06-.23,.12-.35,.17-.69,.72-1.47,1.5-2.62,1.74v.35c.82,.64,1.63,1.27,2.45,1.91,.44,.61,.38,1.16,1.23,1.39,.17,.64,.35,1.27,.53,1.91h.17v1.04c.59,1.88,1.05,4.93,.7,6.77,.06,.17,.12,.35,.17,.52h-.17c.06,.52,.12,1.04,.17,1.56h-.17c-.36,1.35,.28,2.78,0,3.82h-.18v1.22h.18v2.6h.17c-.06,.23-.12,.46-.17,.7h.17c.28,1.12-.08,2.63-.35,3.3m24.99-26.4c-.19,.1-.52,.52-.52,.52h-1.05c-.06,.12-.12,.23-.18,.35-.49,.2-.87-.14-1.22-.17-1.33-.11-2.81,0-3.67,.35,.21,1.15,.28,2.92,.18,4.34-.06,.23-.12,.46-.18,.69h.18v.52h-.18c.06,.17,.12,.35,.18,.52h-.18v3.13h.18c.05,.29-.17,.3-.18,.35v2.95h-.17c.12,1.33,.23,2.66,.35,3.99,.66,.03,1.11,.22,1.57,.35,.56,.16,1.45-.09,1.75-.17h1.22v.17c.4-.06,.81-.11,1.22-.17,.06,.17,.12,.35,.17,.52,.21,.24,.29,1.23,.17,1.73,0,0-.23,0-.17,.35h.17v1.74c.17,1.01,.01,2.4,0,3.82h-.17v.17c-.55,0-.84,.01-1.23,.17v.18c-.64,.22-3.57-.05-4.02-.18h-1.75c-.06,.18-.12,.35-.18,.52h-.35v.17h-.17v-.17h-1.92v-.17h-1.4v-.17h-2.62v-.18c-1.05-.29-1.89,.27-2.62,.35-.25-.48-.82-1.24-1.22-1.56,0-1.95,0-3.18-.35-4.52,.06-.52,.12-1.04,.17-1.56h-.17v-.69h.17c-.06-.29-.12-.58-.17-.87h.17v-.17h-.17v-2.26s.22-.06,.17-.35h-.17v-1.91c.06-1.97,.12-3.94,.17-5.91h-.17c-.09-.38,.17-.52,.17-.52v-1.22s.23,.01,.17-.35h-.17v-.69h.17v-.17h-.17c.06-.12,.12-.23,.17-.35h-.17v-.17h.17v-6.6h-.17v-.18h.17v-1.39h-.17c.06-.46,.12-.92,.17-1.39h-.17v-.69h.17v-.7h-.17v-.87h.17c-.06-.18-.11-.35-.17-.52-.05-.41,.18-1,.17-1.04h-.17v-1.04c.05-.24,.2,.07,.17-.17h-.17v-1.04s.23,0,.17-.35h-.17v-.69h.17c.05-.29-.16-.3-.17-.35-.11-.5,.17-.86,.17-1.04h-.17c.06-.12,.12-.23,.17-.35,0,0-.19-.1-.17-.35h.17v-.17h-.17c-.22-1.05,.11-2.16-.17-2.6v-.17h.17v-1.74h-.17v-.69h.17c.1-.44-.17-.63-.17-.87h.17v-.18h-.17v-2.08h-.18v-.17h.18v-.87h.17c-.06-.41-.12-.81-.17-1.22,.18-.7,.48-1.42,.52-2.26h.35v-1.21c.28-.1,.42-.15,.88-.17,.71,.62,2.62-.13,3.67,.17v.17h.88v.17h2.62v.18c.7-.06,1.4-.12,2.1-.18v.18h.7v.17c.41-.06,.82-.11,1.22-.17v.17h.7v.17h.17v-.17c1.05-.06,2.1-.11,3.15-.17,.05,.17,.11,.35,.17,.52,.2,.2,.07,0,.18,.35h.35c.06,.52,.12,1.04,.17,1.56h-.17v1.74h-.18v.17h.18v2.08h.17v1.21h.17c-.06,.41-.12,.81-.17,1.22-.65,.1-.4,.1-1.05,0v-.35c-.23,.06-.47,.12-.7,.17v.17h-.87v-.17c-.7,.06-1.4,.12-2.1,.17v.17h-.7v.17c-.28,.19-.3,.24-.7,.35-.44,2.35-.17,4.6-.17,7.29,0,1.06-.07,2.82,.17,3.12,.49,.53,.65,.13,1.4,.35v.17h1.92v.18c.35,.05,.35-.18,.35-.18h1.05v.18h.69v-.18c.41-.07,.47,.1,.7,.18-.04,.22-.2,.45,0,.87,.12,.06,.23,.11,.35,.17-.06,1.16-.11,2.32-.17,3.47h-.17c-.16,.65,.4,1.35,.52,1.74v2.26Zm32.33-13.03v.52h-.17v.17h.17c-.06,.58-.12,1.16-.17,1.73-.35,.06-.7,.12-1.05,.17v.52c-.53,.11-1.85,.43-2.62,.17v-.17h-.35v-.17c-.23,.06-.46,.12-.7,.17v.17c-.33,.07-1.27-.34-1.92-.17v.17h-.88v-.17h-1.22c-.53-.12-1.05-.23-1.57-.35-.11-.17-.23-.35-.35-.52-.11-.06-.23-.12-.35-.17v-.87c-.25-.29,.04-3.19,0-4.17-.06-.64-.12-1.27-.18-1.91h-.17c-.06-.23-.12-.46-.18-.69h-.18c-.11-.52-.23-1.04-.35-1.56h-.35c-.06-.11-.12-.23-.18-.35h-.7c-.22,.22-.85,.45-1.22,.52-.23,.41-.47,.81-.7,1.22v6.25h.18c.06,.7,.12,1.39,.17,2.08,.23,.17,.47,.35,.7,.52v.17h.35c.06,.12,.12,.23,.18,.35h.35c.29,.35,.58,.69,.87,1.04h.35c.06,.12,.11,.23,.17,.35,.88,.29,1.75,.58,2.62,.87,.06,.12,.12,.23,.18,.35,.3,.27,.57,.41,1.05,.52v.35c.29,.06,.58,.12,.87,.17v.17h.35c.06,.12,.12,.23,.18,.35,.23,.06,.47,.12,.7,.18,.12,.17,.23,.35,.35,.52h.35c.06,.12,.12,.23,.18,.35h.35c.06,.12,.12,.23,.18,.35h.35c.06,.12,.12,.23,.17,.35h.35v.18c.31,.24,.34,.27,.87,.35,.12,.35,.23,.69,.35,1.04h.35c.06,.12,.12,.23,.17,.35h.18c.06,.23,.11,.46,.17,.69h.18c.12,.35,.23,.7,.35,1.04h.18c.06,.46,.12,.93,.17,1.39h.17v.52h.18v.87s.24,.05,.17,.35h-.17v.35h-.18c-.18,.55,.24,.82,.18,1.21h-.18v2.08h.18v1.56h.17v.17h-.17v.87h.17v.17h-.17v1.74c.29,1.02,.38,2.3,.35,3.65-.06,.46-.12,.93-.18,1.39h.18v1.39h-.18v.87h.18c.06,.29,.12,.58,.17,.87h-.17c-.06,.35-.12,.69-.18,1.04-.29,.12-.58,.23-.87,.35,.22,.57,.17,1.74-.17,2.26-.29,.23-.58,.46-.87,.69v.35c-.12,.06-.24,.12-.35,.18-.23,.29-.46,.58-.7,.87-.35,.23-.78-.03-1.22,.17-.06,.12-.12,.23-.17,.35-.29,.06-.58,.11-.87,.17v.17h-.35c-.06,.12-.11,.23-.17,.35h-.7v.17c-1.28,.39-2.35-.34-3.5-.35-1.21-.01-2.07,.28-3.14,0-.41,.06-.82,.11-1.22,.17v-.17h-.7v.17c-.57,.16-1.45-.09-1.75-.17h-3.84v-.18h-.35v-.17c-.29-.06-.58-.11-.87-.17-.23-.29-.46-.58-.7-.87-.35-.12-.7-.23-1.05-.35-.12-.17-.23-.35-.35-.52h-.18v-.35c-.12-.06-.23-.11-.35-.17v-.35s-.26-.23-.35-.35h-.18v-.52c-.12-.06-.23-.11-.35-.17-.06-.41-.11-.81-.17-1.21h-.18c-.03-.22,.28-.29,.18-.7-.29-1.19,.11-2.99-.18-4.34h-.17v-.17h.17v-1.91c-.42-1.47-.35-5.46,0-6.95,.14-.6-.5-.81,0-1.39,.14-.62,.85-1.31,1.57-1.39v.17h1.4v.17c.29-.12,.58-.23,.87-.35,.92,.16,2.31,.17,3.5,.17h1.75v.17c.17,.06,.35,.12,.52,.17v.17c.29-.06,.58-.12,.88-.17,.13,.24,.31,.52,.52,.7-.05,.35-.11,.69-.17,1.04h.17v1.21h.18v.18h-.18v.17h.18v1.22h.17v1.04h-.17c-.04,.24,.12-.07,.17,.17v2.61h.17c.16,.51-.1,1.31-.17,1.56-.26,.83,.07,2.18,.17,2.78,.43,.25,1.27,.87,1.75,.52,.98-.2,.96-.87,1.57-1.39,.06-.81,.11-1.62,.17-2.43h-.17c-.06-.23-.12-.46-.18-.69h-.17c-.08-.29,.16-.3,.17-.35v-4.34h-.17c0-.13,.3-.58,.17-1.04h-.17v-2.26h.17c.14-.57-.21-1.04-.35-1.39-.48-.22-.58-.44-1.22-.52v-.35c-.49-.1-.72-.27-1.05-.52v-.17c-.23-.06-.46-.12-.7-.17-.06-.11-.12-.23-.17-.35h-.35c-.18-.23-.35-.46-.53-.69h-.35c-.17-.23-.35-.46-.52-.69h-.35c-.06-.11-.12-.23-.17-.35h-.35v-.17h-.35v-.18c-.17-.06-.35-.12-.52-.17v-.35c-.35-.11-.7-.23-1.05-.35-.06-.12-.12-.23-.17-.35h-.52v-.17h-.35v-.17h-.35c-.12-.18-.24-.35-.35-.52h-.35c-.06-.12-.12-.23-.18-.35h-.35c-.18-.23-.35-.46-.52-.69h-.35c-.12-.18-.23-.35-.35-.52-.29-.06-.58-.12-.87-.17v-.17c-.17-.06-.35-.12-.52-.17-.52-1.04-1.05-2.08-1.57-3.13-.06-1.33-.12-2.66-.18-3.99,.09-.31,.32-1.17,.18-1.74-.29-1.13-.18-4.28-.18-6.25v-2.26h.18v-.18h-.18s.15-1.49,.18-1.56h.17v-.35h.18v-.52h.17c.06-.46,.12-.93,.18-1.39h.17c.12-.35,.24-.69,.35-1.04h.18v-.35c.23-.17,.47-.35,.7-.52v-.35c.12-.06,.23-.12,.35-.17v-.17h.35c.06-.12,.12-.23,.17-.35,.24-.06,.47-.12,.7-.17,.06-.12,.12-.23,.17-.35,.23-.06,.47-.12,.7-.18,.06-.12,.12-.23,.18-.35,.29-.06,.58-.12,.87-.17,.06,.17,.12,.35,.17,.52h1.05v.18h.17v-.18h2.27v-.17h1.05v-.17h.17c.25,.02-.07,.19,.18,.17,.25-.02-.07-.12,.17-.17h.7v.17h3.15c2.14,0,4.67-.16,6.29,.35h.87v.17h.35c.12,.17,.23,.35,.35,.52h.35c.35,.41,.7,.81,1.05,1.22,.12,.06,.23,.12,.35,.17,.06,.23,.11,.46,.17,.7,.12,.06,.23,.11,.35,.17v.35h.17c.37,.44,.5,.55,.53,1.39h.18c-.12,.64-.23,1.27-.35,1.91h.17v.35c.12,.06,.24,.12,.35,.17v1.04h.18v5.21c-.06,.12-.12,.23-.18,.35h.18v.87h.17c-.06,.52-.12,1.04-.17,1.56h.17Zm30.28,25.49c-1.79-.24-2.15,2.02-.83,1.91,.47,.12,.95,.36,.47,.83-.36,.36-.96,.24-.59,.95,.24,.12,.47,.12,.71,.24-.83,.6,.36,.95-.48,1.55-.72,.6-1.43,.36-.96,1.55,.84,.12,1.07-.24,1.79-.48,.12-.12,.6-.36,.72,0,.12,.36-.36,.36-.6,.48-1.07,1.19,.6,1.91,1.67,1.43,.03-.01,.05-.03,.07-.04-.44,.8-.88,1.6-1.32,2.4-.18,.12-.35,.23-.52,.35v.35h-.18c-.12,.17-.23,.35-.35,.52h-.35c-.06,.11-.12,.23-.18,.35-1.16,.41-2.33,.81-3.5,1.22h-2.27v-.17h-2.44v.17c-.74,.2-1.59-.14-2.1-.17-.46-.03-.61,.13-.87,.17-1.09,.18-2.28-.14-3.14-.17h-2.1v-.17h-.7v-.18h-.52v-.17h-.7v-.17h-.7v-.17h-.35v-.18h-.35c-.06-.12-.12-.23-.17-.35-.43-.4-.97-1.05-1.57-1.22-.18-.52-.35-1.04-.53-1.56-.12-.06-.23-.12-.35-.17v-.52h-.17v-.52h-.17v-.52h-.18v-2.95h.18c.1-.4-.21-.48-.18-.69h.18c.06-.64,.11-1.27,.17-1.91h-.17v-1.22s.22-.06,.17-.35h-.17v-3.47h-.18c-.2-.69,.18-1.44,.18-1.91,0-.38-.18-.35-.18-.35-.19-.71,.09-1.6,.18-2.08,.83-.46,.92-1.03,2.27-1.04,.42-.29,1.57,.42,2.44,.17,.87-.25,2.35-.17,3.5-.17h.87v-.17h.18c.11,.17,.23,.35,.35,.52,.19,.1,1.16,.3,1.4,.35,.06,.17,.12,.35,.17,.52h.18v.35h.17v1.56c0,1.19,.15,2.32,.18,3.3,.03,1.26-.26,2.41,0,3.3v1.04h.17v1.04h.17c.06,.23,.12,.46,.18,.69h.17c.12,.17,.23,.35,.35,.52h.18c.21,.13,.02-.01,.17,.17,.36-.1,.15,.02,.35-.17,.99-.25,.71-.71,1.05-1.56,.41-1.07,.61-1.43,.35-2.78h-.52v-.17h.18v-.17h.17v.17h.18v-.7h.17s-.22-.61-.17-.87h.17v-.17h-.17v-.17h.17c.05-.3-.16-.29-.17-.35v-1.91h-.18v-3.13h-.17v-.87h-.18v-.35c-.22-.42-.55-.67-.7-1.22-.4-.1-.43-.15-.7-.35v-.17h-.53c-.06-.11-.11-.23-.17-.35-.24-.06-.47-.12-.7-.17-.17-.23-.35-.46-.52-.69h-.35c-.06-.12-.11-.23-.18-.35h-.35c-.12-.17-.23-.35-.35-.52-.7-.23-1.4-.46-2.1-.69-.12-.17-.23-.35-.35-.52h-.35c-.12-.17-.23-.35-.35-.52h-.35c-.06-.12-.12-.23-.18-.35-.23-.06-.47-.12-.7-.17-.12-.17-.23-.35-.35-.52-.35-.12-.7-.23-1.05-.35-.12-.17-.23-.35-.35-.52h-.35c-.17-.23-.35-.46-.52-.69h-.18v-.35c-.12-.06-.23-.11-.35-.17v-.35c-.23-.18-.47-.35-.7-.52-.06-.23-.12-.46-.17-.69-.17-.11-.35-.23-.52-.35-.06-.35-.12-.7-.18-1.04h-.17v-.35h-.17c-.34-.88,.16-1.21,0-2.08h-.17v-.18h.17c.03-.38-.17-.35-.17-.35v-2.08h.17c-.12-.29-.23-.58-.35-.87h.17v-2.43h.17c0-.24-.13,.07-.17-.17v-1.04h.17c.01-.25-.13,.07-.17-.18v-1.74c.06-1.16,.11-2.32,.17-3.47,0-.32-.17-.87-.17-.87h.17v-.69h.17v-.35h.17v-.52h.18v-.7h.17v-.52h.18v-.35h.17v-.35c.64-.58,1.28-1.16,1.92-1.73h.52c.12-.17,.23-.35,.35-.52h1.05c.78-.23,2.61-.38,3.67-.18v.18c.18-.06,.35-.12,.52-.18,.66,0,1.58,.42,2.45,.18v-.18h.87v-.17c1.92,.11,3.84,.23,5.77,.35v.35c1.22-.09,2.48-.47,3.5-.69,.44,.74,.79,.46,1.4,.87v.17c.36,.29,.53,.56,1.05,.69,.14,.52,.41,.69,.7,1.04h.17c.06,.23,.12,.46,.18,.7,.12,.06,.23,.11,.35,.17v3.3c.06,1.1,.12,2.2,.17,3.3h-.17v3.65h-.18c-.11,.41,.18,.46,.18,.69h-.18c-.06,.87-.12,1.74-.17,2.6h.17v.7h-.17v.35h-.18v.35h-.17c-.35,.63,.08,.74-.87,.87-.4-.28-1.98,.09-2.97-.18v-.17c-.35,.06-.7,.12-1.05,.17v-.17h-1.75v-.17h-2.1s-.02-.11-.35-.17c-.4-.68-.84-.79-.87-1.91,0,0,.15-2.77,0-3.3h-.18v-.87h.18v-.17h-.18c-.05-.35,.18-.35,.18-.35-.06-.46-.12-.93-.18-1.39h-.17c-.06-.29-.12-.58-.18-.87h-.17c-.29-.36-.55-.52-.7-1.04-.29-.06-.58-.12-.87-.17-.88,.97-1.77,.55-1.75,2.61h-.17v1.39h-.18v3.13s-.23,0-.18,.35h.18c.26,1.15-.21,2.12,.35,2.95,.53,.47,1.05,.93,1.57,1.39,.29,.06,.58,.12,.87,.17,.18,.23,.35,.46,.52,.69h.35c.06,.12,.11,.23,.17,.35h.35c.12,.17,.23,.35,.35,.52h.35c.06,.12,.12,.23,.18,.35h.35c.12,.17,.23,.35,.35,.52h.52v.17c.18,.06,.35,.11,.52,.17,.06,.12,.12,.23,.18,.35h.52c.06,.12,.12,.23,.17,.35h.35v.17h.35v.18h.35v.17h.35c.12,.17,.23,.35,.35,.52,.35,.12,.7,.23,1.05,.35,.12,.17,.23,.35,.35,.52h.35c.17,.23,.35,.46,.53,.7h.35c.35,.4,.7,.81,1.05,1.22,.11,.06,.23,.11,.35,.17,.06,.23,.12,.46,.17,.69,.18,.12,.35,.23,.52,.35v.52h.17v.35h.17v.87h.18v1.04h.17v.52h.18v2.95h.17v.87h.17c-.06,.29-.12,.58-.17,.87,.21,.94,.36,2.21,.42,3.51-1.02,.39-1.54,1.42-2.82,1.31m49.83,22h-.07s-4.27,0-4.27,0l-4.27,.05-4.27,.08-4.28,.05-4.27-.16-4.28-.18-4.25,.14,.02-4.9-.19-4.95,2.04-3.65,2.29-3.46,1.96-3.65,1.97-3.64,2.08-3.58,2.23-3.5,1.87-3.7,1.08-1.98,.92-2.18,.45-2.09,.22-4.55-.22-4.55-.05-1.14,.03-.36-.11-.37-1.31-.92-1.63,.53-1.03,2.02v4.8s.13,4.74,.13,4.74l-4.27,.12-4.34,.14-4.39-.13,.18-4.13,.03-4.07v-4.06s-.26-2.09-.26-2.09l.51-2.14,.51-1.85,2.21-2.65,3.52-1.5h1s.96-.19,.96-.19l3.26,.07h3.25s3.33-.27,3.33-.27l3.41,.47,2.9,.75,2.74,1.28,1.74,2.74,.6,2.47,.18,1.62v1.62s-.12,4.61-.12,4.61l.19,4.61,.07,4.61-.42,1.96-.29,2.02-1.73,3.59-2.31,3.24-1.87,3.49-2.08,3.37-1.65,3.62-2.45,3.85-2.41,4.03,4.15-.16,3.98,.07,3.54-.08h3.68s-.32,5.09-.32,5.09l.16,5Z"/>
  <path class="cls-2" d="M206.6,30.26c-.42,.25-.57,.17-.79-.14l-.05,1.51c.06-.64,.45-1,.83-1.37m81.66-5.16c.37-1.29-.38-4.91-.7-5.73-.76-.17-1.51-.35-2.27-.52-.06,.12-.12,.23-.17,.35-.27,.27-.47,.92-.35,1.56h.18v.17s-.21,.11-.18,.35c0,0,.23,.05,.18,.35-.61,3.66-.2,8.07-.18,11.98,.53,.06,1.05,.12,1.58,.17,.52-.15,.79-.32,1.57-.35,.11-.63,.02-1.71,.17-2.43h.18c.07-.39-.27-.94-.18-1.56h.18v-.17h-.18c.06-.58,.12-1.16,.18-1.74h-.18v-2.43h.18Zm-58.72,1.04v-1.56h-.17c-.09-.37,.17-.52,.17-.52v-.17h-.17c.03-.25,.29-.57,.17-1.04,0,0-.19,.02-.17-.35,.14-.2,.2,.07,.17-.17h-.17c-.06-.37,.17-.52,.17-.52-.06-.35-.12-.69-.17-1.04h-.18c-.26-.98-1.18-1.1-1.75-1.74-.43,.08-.64,.16-1.22,.18-.25,.66-.18,1.85-.18,2.78h-.17c-.14,.26,.17,.35,.17,.35v.17h-.17v1.39h-.18c.06,.93,.12,1.85,.18,2.78h.17c.06,2.14,.12,4.28,.18,6.43,.61,.12,.76,.32,1.57,.34v-.17h.7v-.17c.62-.33,.83-.3,.87-1.22h.17c-.06-.35-.12-.69-.17-1.04h-.18c.06-.35,.12-.7,.18-1.04,0-.03-.23-.06-.18-.35h.18v-.35h.17c-.06-.29-.12-.58-.17-.87h.17v-1.74s.22-.06,.17-.35h-.17Zm-33.38,15.98h-.17v-.52h-.17c.06-.35,.12-.7,.17-1.04h-.17c-.03-.22,.28-.29,.17-.69h-.17v-2.08c.04-.24,.28-.43,.17-.87h-.17v-2.08h.17v-1.91h-.17v-2.26s.26-.15,.17-.52h-.17c-.06-.87-.12-1.74-.17-2.6h.17v-.87h-.17v-.17h.17v-.87h.17c.16-.56-.23-.82-.17-1.22h.17c-.06-.46-.12-.93-.17-1.39h.17c.09-.45-.17-.52-.17-.52v-1.04c-.22-.7-.59-1.46-.87-2.08-.46-.06-.93-.11-1.4-.17v.17h-.52v.18c-.12,.06-.23,.12-.35,.17v.35c-.12,.06-.24,.11-.35,.17-.06,.29-.12,.58-.18,.87-.12,.06-.23,.12-.35,.17,.12,3.99,.23,7.99,.35,11.98v.35h-.18l.18,.52v3.82c-.06,.58-.12,1.16-.18,1.74h.18v1.22h-.18v.7h.18c.09,.42-.16,.45-.18,.69h.18c-.03,.23-.32,.74-.18,1.22h.18v.52h.18c-.06,.17-.12,.35-.18,.52h.18c-.06,.46-.12,.92-.18,1.39,.36,1.33,.35,3.01,.35,4.69v2.08c.12,.56,.18,2.35,.18,3.65,.86,.51,.77,1.01,2.27,1.04,.27-.4,.52-.29,.7-.52,.4-.52,.36-1.33,.35-2.26,.32-.37,0-1.65,0-2.43v-7.47h-.17c-.15-.53,.11-1.3,.17-1.56-.06-.12-.12-.23-.17-.35,.13-.21,.49-.07,.35-.69m-118.31,.87c-.06-1.1-.12-2.2-.17-3.3h-.18c.06-.12,.12-.23,.18-.35h-.18c-.06-1.1-.12-2.2-.18-3.3h-.17c.06-.41,.11-.81,.17-1.22-.35-2.31-.7-4.63-1.05-6.95h-.35c0,1.24-.24,2.23-.52,3.13v2.08h-.18v.87h-.17v.87h-.18v.87h.18v.17h-.18v.87h-.17v2.61c-.23,.78-.46,1.84-.35,2.95,.06,.12,.12,.23,.18,.35h-.18c-.06,.98-.12,1.97-.17,2.95h1.75v.17c.64-.06,1.28-.11,1.92-.17,.11-.28,.16-.41,.18-.87-.27-.32-.17-1.15-.18-1.74M34.51,19.19c-.06,.35-.12,.69-.18,1.04-.27,.1-.29,.13-.7,.17-.2-.18-2.63-.33-3.15-.17v.17h-1.05v.18h-.35v.17h-.7v.17c-.41,.32-.52,.63-.52,1.39-.38,.45,.1,.85,0,1.56-.03,.24-.17-.07-.17,.17h.17v.87h-.17c.06,.17,.12,.35,.17,.52v.17h-.17v1.22h.17c.02,.12-.26,.45-.17,.87h.17v.17h-.17c.06,.17,.12,.35,.17,.52h-.17c-.06,1.39-.12,2.78-.18,4.17h.18v.17c-.18,.4-.28,1.42-.18,2.09h.18c.03,.24-.12-.07-.18,.17v.69h-.17v.17h.17c.12,.47-.15,.79-.17,1.04h.17c.1,.44-.15,.63-.17,.87,.04,.09,.23,0,.17,.52h-.17v.17h.17v2.08h-.17c.06,.17,.12,.35,.17,.52v8.51h.18c-.06,.11-.12,.23-.18,.35h.18v.18h-.18c-.12,.61,.17,1.17,.18,1.21-.06,.46-.12,.93-.18,1.39h.18v3.3h.17v.69h-.17v.17h.17v1.56h.18v.69h-.18v.17h.18v2.78s-.26,.14-.18,.52h.18v1.74h.17c.02,.13-.29,.45-.17,.87h.17c.06,.64,.11,1.27,.17,1.91,0,0-.25,.14-.17,.52h.17v1.22h-.17c.06,.64,.11,1.27,.17,1.91-.34,.17-.81,.36-1.22,.52,.06,.12,.12,.23,.17,.35h-.17c-.19,.56-.39,.81-.52,1.39-2.37,.47-6.14,.03-7.69-.35-.7-.17-.79,.07-1.4-.17h-.52v-.18c-.24-.2-.27-.31-.35-.69-.42-.11-.33-.06-.53-.35-.64-.65-.16-2.89-.17-4.17-.12-1.27-.23-2.55-.35-3.82h.17v-2.95h.17v-.35h.17c.11-.36-.17-.52-.17-.52,.06-.58,.12-1.16,.17-1.74h-.17c.06-.23,.12-.46,.17-.7-.04-.71-.08-1.42-.12-2.12,.03-.04,.06-.07,.09-.12,.28,.22,1.41-.09,1.54-.44-.17,.02-.28-.22-.37-.29,.29-.37,.67-.67,.87-1.11q.22-.28,.27-.54c-.02-.17-.32-.55-.26-.81,.16-.77,1.86-1.23,.9-2.28,.2-.44-.1-.83,.36-1.22-.21-.31-.94-.14-1.34,0-.14,.19-.2,.44-.44,.56l-.07,.09c-.28-.22-.63-.34-.91-.56-.28-.22-.32-.55-.43-.79-.21-.27-.38-.37-.52-.36,.02-.14,.05-.28,.07-.43-.18-.84-.35-2.52-.17-3.65,.04-.25,.26-.28,.17-.7h-.17c-.15-.57,.09-1.43,.17-1.74v-1.39h-.17c-.2-.72,.13-1.79,.17-2.26-.1-.23-.13-.49-.14-.77,.85-.19,1.52-.57,1.3-1.29-.12-.35-.35-.35-.71-.47,0,0-.59-.35-.7-.35-.04,0-.07,0-.11-.01-.01-.28,.18-.41,.18-.41v-.17h-.17v-1.39h-.17c.06-.17,.12-.35,.17-.52h-.17s.26-.64,.17-1.04h-.17c-.05-.29,.16-.3,.17-.35v-1.74h.17v-2.95c.37-1.31,.43-3.29,.17-4.69-.66-.13-.99-.44-1.57-.7v-.17c-.36-.11-.53,.17-.53,.17-.99-.06-1.98-.12-2.97-.17-.12-.17-.23-.35-.35-.52h-.35c-.06-.11-.12-.23-.17-.35-.18-.06-.35-.12-.53-.17-.18-1.85-.35-3.7-.52-5.56,.27-.93,.52-2.1,.87-2.95h.18v-.17h.7v-.17h.35v-.17h2.8c.25-.04-.07-.18,.18-.17,.47,.17,.93,.35,1.4,.52v-.17h1.75v-.17h2.1c1.66,0,3.88-.2,5.24,.17,.93-.06,1.86-.11,2.8-.17v.17h1.22v-.17h.18v.17h1.05v-.17h.35v-.17c.42-.14,.66,.18,.87,.17v-.17h.52v-.17c.53,.06,1.05,.12,1.57,.17v.35c.23-.06,.47-.11,.7-.17v-.17c.85-.23,.73,1.2,.7,1.91h.18c.11,.28-.17,.33-.18,.35v2.43c.12,1.62,.23,3.24,.35,4.86h-.18Zm23.77-2.43h-.17c-.16,.7-.02,.89-.52,1.21-.95,.92-4.46,.5-5.94,1.04v.52c-.23,.06-.47,.12-.7,.17,0,1.59,.2,3.74-.17,5.04-.13,.46,.18,.9,.17,1.04h-.17v1.91h-.18v.17h.18c.05,.29-.18,.35-.18,.35v.17h.18v.17h-.18s.16,.44,.18,.7h.52v.35h-.18c.06,.17,.12,.35,.18,.52h-.35v.17c.87,.06,1.75,.11,2.62,.17v.17c.35-.06,.7-.12,1.05-.17v.17c1.01,.26,2.5-.23,3.15,.35h.18v.52c-.64,.65,.15,1.44-.18,2.6h-.18v2.6h.18v.35h.18v.52h.17c-.06,.58-.12,1.16-.17,1.74-.87,.45-2.15,.36-3.5,.35-.44-.4-2.19-.19-2.97-.17-.15,.2,.02,.03-.17,.17-.06,.35-.12,.69-.18,1.04,0,.03,.23,.07,.18,.35h-.18v1.04c.39,1.51,.18,5.42,.18,7.81v1.74h-.18v.17h.18v1.39h-.18c-.41,1.36,.32,2.5,.35,3.65h4.02v.17h.52v.17c.49,.15,1.02-.26,1.22-.17v.17c.66,.57,.34,2.8,.18,3.65h.17v.17h-.17c-.09,.38,.17,.52,.17,.52-.06,.17-.12,.35-.17,.52h.17v2.08s.24,.06,.18,.35h-.18v.52h-.17v.17h-.87v-.17h-1.05v.17h-.87v-.17c-.64-.17-1.53,.11-1.92,.17h-3.15s.02-.17-.35-.17-.35,.17-.35,.17h-2.62v-.17c-.7-.2-1.47,.24-1.92,.17v-.17c-1-.23-2.88,.3-3.32,0-.82-.22-.57-.36-.87-1.04h-.17v-.35h-.17c.06-.29,.12-.58,.17-.87,0,0-.21-.03-.17-.35,0,0,.23-.09,.17-.35h-.17v-.7h-.17c0-.05,.16-.39,.17-.69v-2.08s-.26-.14-.17-.52c.05-.24,.14,.07,.17-.18v-1.21h.17c.09-.38-.17-.52-.17-.52-.24-.91-.01-2.65,.17-3.3v-3.3h.17c.05-.29-.16-.3-.17-.35v-1.56h-.17v-.17h.17v-2.43h-.17v-3.12s-.19,.02-.17-.35h.17v-.17h-.17c-.05-.3,.16-.29,.17-.35v-1.04c-.06-.24-.16,.07-.17-.17h.17c.02-.1-.27-.47-.17-.87,.19-.75,.43-3.34,.17-4.34h-.17c.06-.29,.12-.58,.17-.87h-.17c-.11-.55,0-2.38,0-3.47v-2.26c-.51-1.79-.18-4.66-.18-6.77v-2.78s-.26-.14-.17-.52h.17v-2.08c.04-.24,.18,.07,.18-.17h-.18c-.12-.57,.14-.81,.18-1.22,.1-1.22-.09-2.74,0-3.47,.36-.19,.31-.28,.87-.35v-.52c.44-.23,.61-.34,1.4-.35,.49,.42,4.27,.18,4.89,0,.52-.06,1.05-.12,1.57-.17,0,0,.02,.21,.35,.17v-.17c.41,.06,.82,.11,1.22,.17v-.17h1.4c.23,.06,.46,.11,.7,.17v-.17c1.16-.26,2.56,.11,3.32,.35h.87v.17h.35v.17c.7,.26,.56-.26,1.05,.35h.18v3.82c.34,.35,.02,.99,.18,1.56h.17v.52h.17v.17Zm-6.29,12.68v.17c-.35-.1-.15,.02-.35-.17h.35Zm37.4,36.3h-.52v.17h-2.27v.17c-.58,.12-.89-.3-1.4-.35-1.63,.06-3.26,.12-4.89,.17v-.35c-.83-.26-.19-.15-.52-.69-.18-.12-.35-.23-.53-.35v-.35h-.17v-2.6h-.17v-1.39h.17v-1.39h-.17v-1.39h-.18c.06-.46,.12-.93,.18-1.39h-.18c-.06-.47-.12-.93-.17-1.39-1.87-.01-3.25,.62-4.89,.69v1.04h-.17c.06,.17,.12,.35,.17,.52h-.17v.87h.17v.7h-.17v.87h-.17c.06,.17,.12,.35,.17,.52h-.17v2.43h-.17v.17h.17c.15,.76-.02,1.75-.35,2.08v.17c-.3,.2-.67-.11-.87,.17v.52c-.12,.06-.23,.11-.35,.17-.45,.66-.07,.67-1.22,.69-.45,.33-1.46-.4-2.45-.17v.17c-.58-.06-1.16-.11-1.75-.17-.06-.02-.04-.24-.35-.17v.17c-.27,.02-.35-.17-.35-.17-.33-.05-.35,.17-.35,.17-.45,.08-.52-.17-.52-.17-.66-.17-1.45,0-1.92-.17v-.17h.17c-.06-.29-.3-.25-.35-.35v-.35h-.18c.06-.75,.12-1.51,.18-2.26h.17c-.06-.17-.12-.35-.17-.52h.17v-.87h.17v-1.74h.17v-1.74h.18c.16-.55-.23-1.12-.18-1.39h.18v-.69h.17v-1.56c.46-1.54,.42-3.54,.88-5.04v-1.74h.17v-.7h.18v-.87h.17c-.06-.11-.12-.23-.17-.35h.17v-1.22h.18v-1.22h.18v-1.39h.17c-.06-.52-.12-1.04-.17-1.56h.17v-.52h.17c.18-.56-.23-1.06-.17-1.39h.17v-1.21h.18v-.87h.17v-1.39h.17v-1.22h.18v-.87h.17v-2.6h.17c.06-1.1,.12-2.2,.18-3.3h.17c.03-.24-.12,.07-.17-.17v-1.22h.17v-1.39h.18c-.06-.11-.12-.23-.18-.35h.18v-.7h.17c.04-.24-.14,.07-.17-.17-.04-.28,.17-.35,.17-.35v-.17h-.17c.06-.12,.12-.23,.17-.35h-.17v-.17h.17c.06-.63,.12-1.27,.18-1.91h.17v-.7h.18v-2.08h.17v-.35h.17v-1.56h.17v-1.39h.18v-.69h.17v-1.04h.18c.06-.41,.12-.81,.17-1.21,.23-.17,.47-.35,.7-.52,.06-.12,.12-.23,.17-.35h2.1c.65-.52,2.31,.67,3.5,.35v-.17c.64-.06,1.28-.11,1.92-.17v.17c.25,0-.07-.14,.18-.17,.75-.11,1.59,.2,2.1,.35h2.1v.17c.31,.11,.46,.07,.7,.17,.16,.42,.18,1.08,.17,1.74,.37,.43,.15,1.28,.35,1.91h.18v.87h.17v.87h.18v.69h.17v.69h.17c.12,.4-.19,.96-.17,1.04h.17v.52h.18v1.04h.17v1.39h.17v1.74h.17c.06,1.04,.12,2.08,.18,3.13h.18v1.04h.17v.87h.17c.04,.24-.03-.03-.17,.17v.17h.17v.87h.18v1.56h.17v.52h.17c-.06,.29-.11,.58-.17,.87h.17v1.04h.18v.87h.18c-.06,.29-.12,.58-.18,.87,.12,.06,.23,.12,.35,.17v1.22h.17v1.56h.17v1.22h.17v.7h.18v3.13h.18v.87h.17v.17h-.17c-.04,.39,.17,.35,.17,.35v1.21h.18c-.06,.12-.12,.23-.18,.35h.18c.14,.57-.24,.87-.18,1.22h.18v1.56h.17v1.21h.17c.06,1.27,.12,2.55,.18,3.82h.17v.17h-.17c.06,.11,.12,.23,.17,.35,0,0-.27,.15-.17,.52h.17v1.22h.17v1.04h.18v1.04h.17v.52h.17v1.04h.18c.06,.35,.12,.7,.18,1.04h.17c-.06,.23-.12,.46-.17,.69h.17v.35h.18c.12,.98,.23,1.97,.35,2.95-.43,.25-.5,.57-.7,1.04m43.34-27.27h-.18v1.39c-.04,.13-.38,1.22-.35,1.39h.18v1.04h.17v.17h-.17c-.24,1.1,.08,2.59-.18,3.47,.06,.58,.12,1.16,.18,1.74h-.18v1.39h-.17v.17h.17v2.08h.18v.17h-.18v1.04c-.06,.24-.12-.07-.17,.17h.17v.17h-.17v.87h.17v.17h-.17c-.07,.41,.17,.52,.17,.52-.06,.23-.12,.46-.17,.69h.17v.7h-.17v.18h.17c.06,.81,.12,1.62,.18,2.43h-.18c-.06,.35,.33,1.24,.18,1.91h-.18c-.06,.3,.16,.29,.18,.35,.16,.65-.11,1.51-.18,1.91,.06,.75,.12,1.5,.18,2.26h-.18c-.19,.29-.24,.29-.35,.69-.51,0-.94-.03-1.22,.17-.06,.12-.12,.23-.18,.35h-2.45v-.17c-1.63,.06-3.26,.12-4.89,.17-.12-.46-.28-.55-.52-.87h-.18v-.35h-.17v-2.26h-.18v-1.39h-.17v-.17s.22-.08,.17-.35c0,0-.23-.04-.17-.35h.17v-1.39h-.17c-.11-.43,.19-.73,.17-.87,0,0-.23-.09-.17-.35h.17c.21-.81-.14-1.84,.18-2.43,0-.25-.13,.07-.18-.18v-2.43c.06-.35,.12-.7,.18-1.04h-.18v-2.26h.18c-.06-.52-.12-1.04-.18-1.56,0-1.47,.1-3.33-.17-4.52-.08-.35,.17-.52,.17-.52-.06-.4-.12-.81-.17-1.21h.17v-.87h-.17v-2.95h-.18c.06-.35,.12-.69,.18-1.04h-.18c.06-.11,.12-.23,.18-.35h-.18v-.87h-.17v.17h-.18v.87h-.17v1.04h-.17v1.56h-.17v.17h.17v.17h-.17v1.39h-.18v.52h-.17v1.91h-.17v.7h-.17v1.39h-.18c.06,.23,.12,.46,.18,.69h-.18v1.39h-.18v.52h-.17v.7h-.17c.06,.29,.12,.58,.17,.87-.12,.06-.23,.11-.35,.17v1.56h-.17v1.22h-.18v1.04h-.18c-.14,.45,.19,1.48,.18,1.56h-.18c-.06,.29-.12,.58-.17,.87h-.17c.06,.23,.12,.46,.17,.69h-.17v.52c-.08,.23-.17-.07-.18,.17,.13,.18,.23-.07,.18,.17h-.18v1.74h-.18v.87c-.01,.06-.23,.04-.17,.35h.17v1.22h-.17v.52h-.18v.69h.18c-.06,.46-.12,.93-.18,1.39h-.35v.17c-.23-.12-.47-.23-.7-.35v.52h.17c.12,.31-.15,.28-.17,.35-.24,.58-.06,.52-.88,.52v-.17h-1.4v-.17c-1.34-.38-2.44,.36-3.32-.52-.42-.39-.15-.35-.35-.87h-.17v-.69h-.17v-.69h-.17c.06-.35,.11-.69,.17-1.04h-.17c-.06-.58-.12-1.16-.18-1.74h-.17v-1.39h-.18v-1.04h-.17v-1.39h-.18v-1.74h-.17v-.87h-.18v-1.22h-.17v-1.22c-.7-2.23-.88-5.07-1.57-7.29v-1.04c-.31-1.01-.49-2.21-.87-3.12h-.17v1.04h-.17c-.18,.35,.18,.5,.17,.7h-.17v1.74h-.17v.17h.17v.52h-.17c.06,.64,.11,1.27,.17,1.91h-.17c-.08,.36,.17,.52,.17,.52-.06,.35-.12,.69-.17,1.04h.17v.87h-.17v.87h.17v.17h-.17c-.08,.42,.18,.45,.17,.69h-.17v2.08c0,2.38,.11,5.2-.18,7.29,.06,.12,.12,.23,.18,.35,.11,1.16,.23,2.32,.35,3.47h-.17c.06,.35,.12,.7,.17,1.04-.17,.12-.35,.23-.52,.35v.52h-.18c-.06,.17-.12,.35-.17,.52h-2.27v.17h-.35v.17h-.87v.17c-.41-.06-.82-.11-1.22-.17h-2.62l-.35-.52h-.7v-.17h-.17c-.09-.23-.07,.05-.18-.17v-.52c-.17-.12-.35-.23-.52-.35v-1.56h-.18c.06-.29,.12-.58,.18-.87h-.18v-1.04h-.17c.06-.93,.12-1.85,.17-2.78h-.17c-.03-.2,.21-.31,.17-.69-.06-.17-.12-.35-.17-.52,0,0,.19-.1,.17-.35h-.17v-.18h.17v-.87h-.17v-1.22h-.18c-.09-.38,.17-.52,.18-.52v-2.43h-.18v-1.91h.18v-.35h-.18v-1.91h.18c-.06-.92-.12-1.85-.18-2.78h-.17c.06-.52,.11-1.04,.17-1.56h-.17c.06-.69,.11-1.39,.17-2.08,0,0-.26-.14-.17-.52h.17c-.06-1.1-.12-2.2-.17-3.3v-2.95h.17v-2.78h-.17c.06-.7,.11-1.39,.17-2.08h.18c.09-.38-.17-.52-.18-.52v-1.22h.18c-.06-1.04-.12-2.08-.18-3.13,.38-1.32-.12-3.3,.18-4.86,.37-1.95-.38-6.3,.52-8.51,.17,.06,.35,.12,.53,.17v-.17c.17-.06,.35-.11,.52-.17h.17v.17h3.32c.58,.06,1.16,.12,1.75,.17v-.17c.93-.06,1.86-.11,2.8-.17,0,0,0,.15,.35,.17,1.88,.16,4.33-.15,5.07,1.04h.18c.06,.41,.12,.81,.17,1.22h.17v1.04h.18v1.04h.18v.35h.17v1.39c.36,1.23,.5,2.79,.87,3.99v.87h.18v.52h.17c.06,.7,.12,1.39,.17,2.08h.18v.87h.17c.02,.23-.28,.28-.17,.69,.23,.89,.21,2.3,.52,3.13h.18c.17-.98,.35-1.97,.53-2.95h.17c.02-.1-.29-.47-.17-.87,.3-1.09,.62-2.51,.7-3.82-.18-.06-.35-.12-.52-.17-.06-.39-.23-.89,0-1.39,.12-.06,.23-.11,.35-.17,.06-.87,.12-1.74,.18-2.61h.17v-.69h.18v-.87c.12-.06,.23-.12,.35-.17,.11-1.1,.23-2.2,.35-3.3,.39-.26,.51-.8,.87-1.04,.23-.06,.47-.12,.7-.17v-.17c.52,.06,1.05,.11,1.57,.17v-.17h.87v-.17c.29-.05,.3,.16,.35,.17,1.16,.25,2.84-.04,3.84,.17,.7-.06,1.4-.11,2.1-.17v-.17h.35v-.17h1.22c.24,.06-.07,.16,.18,.17,.51,.02,.77-.63,1.57-.35v.17c.35,.12,.7,.23,1.05,.35,.13,.47,.29,.53,.52,.87h.17c-.06,.87-.12,1.74-.17,2.61h.17c.1,.41-.17,.45-.17,.69h.17c.05,.31-.17,.35-.17,.35l.17,.52h-.17v.17h.17v1.39h.18c-.06,.29-.12,.58-.18,.87h.18v1.39h-.18c-.09,.38,.18,.52,.18,.52,.11,.43-.18,.65-.18,.87h.18v1.91h-.18c.06,.23,.12,.46,.18,.69,0,0-.22,.09-.18,.35h.18c.15,.59-.25,1.67-.18,1.91,.12,.06,.23,.12,.35,.17-.06,.46-.12,.93-.17,1.39h.17v1.22h.17c-.06,.23-.12,.46-.17,.69h.17c-.06,.17-.12,.35-.17,.52h.17v1.04h.18c.06,.28-.17,.33-.18,.35,.06,.11,.12,.23,.18,.35,0,0-.21,.15-.18,.35h.18v3.65h.17v.17h-.17c-.09,.46,.18,.68,.17,.87h-.17v.87h.17v1.39h.18v.17Zm42.29,4.34c-.12,.06-.23,.12-.35,.17v.35h-2.1v.17c-1.46-.06-2.91-.12-4.37-.17-.23,.44-.35,.61-.35,1.39h-.17c.06,.12,.12,.23,.17,.35-.13,.36-.35,1.46-.17,2.08,0,0,.26,.06,.17,.52-.08,.47-.2,2.08-.17,3.3,.06,.4,.12,.81,.17,1.22-.2,.84,.06,2.31-.17,3.3h-.18c.06,.17,.12,.35,.18,.52h-.18v1.56c.08,.26,.33,1.04,.18,1.56h-.18c.06,.7,.12,1.39,.18,2.09h-.18c.06,.17,.12,.35,.18,.52-.04,.36-.18,.93-.18,1.56v4.52h.18v1.04h.17v.52h.18c-.06,.35-.12,.69-.18,1.04,.07,.07,.29-.04,.18,.17h-.18c-.22,.29-.1,.23-.52,.35v.87c-.27,.15-.36,.25-.52,.52-.35-.06-.7-.12-1.05-.17v.17h-.35v.18h-1.05v.17h-1.75v.17l-1.57-.17v-.17c-.93,.06-1.86,.12-2.8,.17-.17-.31-.24-.27-.35-.69-.55,0-1.17-.11-1.22-.17-.47-.26-.8-.54-.87-1.22h.17v-.35c.12-.06,.23-.12,.35-.18-.01-.25-.14,.07-.18-.17-.06-1.27-.12-2.55-.17-3.82,.11-2.54,.19-5.7,.17-8.51-.06-1.16-.12-2.32-.17-3.47h.17c.05-.3-.16-.3-.17-.35-.31-1.31,.14-3.07-.17-4.17v-3.47c-.06-.35-.12-.69-.18-1.04h.18c-.06-.17-.12-.35-.18-.52h.18v-2.26h-.18c-.05-.3,.16-.3,.18-.35v-1.56c-.02-.52-.23-2.49,0-3.3h.17v-1.22h-.17v-1.04h.17c-.06-.12-.12-.23-.17-.35,.06-.52,.12-1.04,.17-1.56-.06-.18-.12-.35-.17-.52h.17v-3.82c0-1.69-.1-3.8,.17-5.21,.05-.26-.17-.34-.17-.35-.05-.33,.17-.35,.17-.35,.08-.42-.17-.44-.17-.69h.17c-.03-.24-.12,.06-.17-.17v-1.21h.17v-.18h-.17v-.17h.17c.18-.71-.15-1.43-.17-1.91,.06-.29,.12-.58,.17-.87h-.17v-3.12h-.17v-.17h.17c.23-1.21-.37-1.98,0-2.95,.16-.42,.56-.67,.7-1.22,.7-.06,1.4-.11,2.1-.17v-.17c.35,.06,.7,.11,1.05,.17h1.05v.17c.93-.06,1.86-.11,2.8-.17v.17h3.67v.17c.35,.06,.66-.32,1.22-.17v.17c.91,.25,1.9-.18,2.45-.35h1.92v-.17h.17v.17c.38,.1,.42,.07,.7,.17,.06,.17,.12,.35,.17,.52h.17v.35h.17l-.17,5.04h.17v1.22h.17c.21,.7,.09,1.2,0,1.74-.17,.06-.35,.12-.52,.17v.18h-.35c-.06,.11-.12,.23-.17,.35-.23,.06-.47,.12-.7,.17v.17c-.53-.06-1.05-.11-1.57-.17v.17h-2.97c-.41,.77-.37,1.23-.35,2.43h-.17v.17h.17v2.26h-.17c-.06,.35,.3,.64,.17,1.22,0,0-.22,0-.17,.35h.17c.05,.4-.32,.65-.17,1.22h.17c-.06,.12-.12,.23-.17,.35,.15,.7,.39,2.33,.17,3.3h-.17c-.05,.29,.16,.3,.17,.35v.69h-.17c0,.24,.13-.07,.17,.17v.87c.28,.11,.42,.16,.87,.17,.56-.5,.99,.12,1.57,0v-.17c.65-.16,2.02,.23,2.45,.35h.87v-.17c.12,.06,.23,.12,.35,.17,.19,.42,.32,.56,.35,1.22,.17,.06,.35,.12,.52,.17v1.39h-.18v.17h.18v1.04c-.06,.12-.12,.23-.18,.35h.18v2.43h.18v2.43Zm33.73,16.5h-.17v.17h-.87v.35h.35v.17h-1.05v.52c.72,.08,.75,.37,1.4,.52v.17h-.52v.17c-.15-.03-.54-.37-.87-.17v.17c-.27,.22-.6,.83-.7,1.22h-.35c-.18,.23-.35,.46-.53,.69h-.35c-.17,.23-.35,.46-.52,.7h-.35c-.06,.12-.12,.23-.18,.35h-.35c-.23,.29-.47,.58-.7,.87h-.35v.17h-.7v.17h-.35v.17h-1.75v.17c-.69,.19-1.45-.13-1.92-.17h-2.27v.17c-.81-.06-1.63-.11-2.45-.17-1.92,.06-3.85,.12-5.77,.17v-.17h-.52v-.17h-.35v-.17h-.7v-.17c-.35-.12-.7-.23-1.05-.35v-.17h-.35c-.12-.17-.23-.35-.35-.52h-.35v-.17c-.23-.17-.47-.35-.7-.52v-.35c-.23-.17-.47-.35-.7-.52v-.35c-.12-.06-.23-.12-.35-.17v-.35h-.17v-.35c-.12-.06-.23-.12-.35-.17v-.87h-.18v-.35h-.17v-1.56c-.04-.24-.17,.07-.17-.17h.17v-1.04s.21,.03,.17-.35h-.17c-.06-.29,.17-.31,.17-.35-.06-.41-.11-.81-.17-1.21h.17v-1.22h.18c-.06-.17-.12-.35-.18-.52v-2.78h.18v-.17h-.18c-.11-.43,.18-.64,.18-.87h-.18v-1.56s.26-.14,.18-.52h-.18v-1.91c-.06-.52-.11-1.04-.17-1.56,.01-.75,.26-1.36,0-2.26h-.17v-2.78h-.17v-.17h.17c.06-1.16,.12-2.32,.17-3.48h-.17v-.17h.17c-.06-.29-.12-.58-.17-.87h.17v-3.47s.23,0,.17-.35h-.17v-2.08c-.08-.28-.48-1.68-.35-2.08h.17v-.35h.17v-.17h-.17v-1.91h.17c.05-.27-.17-.33-.17-.35,.06-.52,.12-1.04,.17-1.56-.06-.46-.12-.93-.17-1.39h-.17c.06-.35,.12-.7,.17-1.04v-3.3h.17v-.52h.17c.12-.64,.23-1.27,.35-1.91h.17c.12-.35,.23-.69,.35-1.04h.35c.15-.69,1.38-2.01,1.92-2.26,.35-.06,.7-.12,1.05-.17v-.17h.35v-.17h1.92c.06-.12,.12-.23,.17-.35h.87c.12-.17,.23-.35,.35-.52h1.4v-.17h1.4s.14,.25,.53,.17v-.17h2.97v.17h.17v-.17h1.4v.17h2.27v.17h.52v.17h1.05v.17h.35v.17h1.22c.12,.17,.23,.35,.35,.52h.35c.06,.12,.12,.23,.17,.35,.37,.33,.67,.33,1.4,.35,.06,.63,.23,.84,.53,1.22h.17c.06,.29,.12,.58,.18,.87h.17v.35h.18c.06,.29,.11,.58,.17,.87,.12,.06,.23,.12,.35,.17,.06,.52,.12,1.04,.18,1.56h.35c.06,.23,.12,.46,.17,.69,0,0-.21,.1-.17,.35h.17v.17h-.17v.18h.17v.06c-.55-.17-1.09-.07-1.52,.15-.47,.12-.82,.47-.71,.94-.12,0-.12,.12-.24,.23-.12,.47,0,.94,0,1.29s-.12,.71-.24,1.06c0,.59,.35,1.53,.59,2.12,.36,.59,1.3,.82,2,1.06,.04,.01,.08,.02,.11,.03,.02,.76,.07,1.49,.17,2.08,.01,.07-.04,.3-.11,.55-.92,.17-1.63,.62-2.28,1.3,.46,.73,.63,1.3,.85,1.61l.03-2c.03,.11,.15,.08,.18,.19,.09,.72,.23,1.17,.55,1.83,.21,0,.41-.04,.61-.07v.75h.17c-.06,.11-.12,.23-.17,.35,.06,.12,.12,.23,.17,.35h-.17v.87h.17c-.06,.58-.12,1.16-.17,1.74,.06,.12,.12,.23,.17,.35h-.17v.69h-.17c.12,1.1,.23,2.2,.35,3.3h-.17c-.04,.3,.17,.35,.17,.35-.06,.23-.12,.46-.17,.69h.17v1.04h.17v.17h-.17v1.91h-.17c.06,.29,.12,.58,.17,.87,.08,2.11-.3,4.46,0,5.73v6.6h.17v.69h-.17c-.21,.79,.02,2.1,.35,2.43v.17h1.05v.17Zm32.15,5.73c-.23,.35-.56,.43-1.05,.52v.35c-.29,.06-.58,.12-.87,.17v-.17h-.35v-.17c-1.17,.06-2.33,.12-3.5,.17v-.17h-.52v-.17c-.99-.33-2.92-.17-4.2-.17-.15-.27-.26-.36-.53-.52,.09-.33,.24-.61,0-1.04-.12-.06-.23-.12-.35-.17v-1.21h-.17v-.17c.14-.21,.22,.06,.17-.17,0,0-.26-.17-.17-.52h.17c-.06-.75-.12-1.51-.17-2.26-.08-1.95,.04-4.22-.18-5.91-.02-.14,.29-.45,.18-.87h-.18v-2.6h.18c.03-.22-.28-.29-.18-.69h.18v-2.08h.17c-.12-.98-.23-1.97-.35-2.95-.12-.06-.23-.12-.35-.17v-.17c-.4-.06-.81-.12-1.22-.18-.25-.04,.07-.17-.18-.17v.17c-.35,.06-.7,.12-1.05,.18-.12,.56-.32,.86-.52,1.39h-.18c-.08,.3,.17,.3,.18,.35v1.74h.17c-.06,.35-.12,.69-.17,1.04h.17v5.38h-.17v.87c-.02,.06-.22,.04-.18,.35,0,0,.24,.15,.18,.52h-.18c.06,.17,.12,.35,.18,.52h-.18v1.39h.18c.06,.3-.16,.29-.18,.35v1.91h.18c-.06,.17-.12,.35-.18,.52,.06,.64,.12,1.27,.18,1.91-.54,.28-.32,.33-1.23,.35v.35c.76,.18,.74,.63,.7,1.56-.24,.21-.38,.56-.52,.87-.59-.09-.74-.17-1.4,0v.17c-.17-.06-.35-.12-.52-.17v.17c-1.4-.06-2.8-.12-4.2-.17-.81,.06-1.63,.12-2.45,.17v-.17h-.35c-.42-.21-.68-.56-1.22-.69v-1.04s-.2,.03-.17-.35c.06-.17,.12-.35,.17-.52h-.17v-.17h.17v-1.91c-.24-.83,.05-2.24-.17-3.3h-.17v-.17h.17v-.52h.17c0-.08-.26-.59-.17-1.04h.17v-.17h-.17v-1.04h.17c.11-.44-.17-.64-.17-.87h.17v-.17h-.17c.06-1.04,.12-2.08,.17-3.12h.18v-.18h-.18c.06-.17,.12-.35,.18-.52h-.18v-.69h.18v-2.09h-.18v-3.99h-.17c-.03-.24,.05,.04,.17-.17-.06-.12-.12-.23-.17-.35,.13-.21,.21,.07,.17-.17-.04-.24-.16,.07-.17-.17h.17v-.17h-.17v-1.74h.17c.05-.29-.16-.3-.17-.35v-1.21h.17c.11-.41-.2-.47-.17-.7h.17v-1.04s-.22-.06-.17-.35h.17v-2.26h-.17v-.17h.17v-1.56h.18v-.69h-.18c-.11-.44,.17-.64,.18-.87h-.18v-.17h.18v-5.73h.17c-.12-.75-.23-1.5-.35-2.26h.18c-.06-1.22-.12-2.43-.18-3.65v-.35h.18c-.06-.17-.12-.35-.18-.52,.17-.7,.44-3.23,.18-4.17h-.18v-1.56s-.23-.05-.17-.35h.17c.22-.71,.15-1.2,.7-1.56v-.17h.88c.06-.12,.12-.23,.18-.35,.53-.22,3.49,.07,3.84,.17h1.75v.17c.52-.06,1.05-.12,1.57-.17,0,0,.14-.26,.52-.17v.17h2.44s.15-.26,.53-.17v.17c1.28,.06,2.56,.12,3.84,.17v.17h2.62v.17h2.8v.17c.23,.06,.46,.12,.7,.17,.06,.12,.12,.23,.17,.35h.35c.06,.12,.12,.23,.17,.35h.35c.06,.12,.11,.23,.17,.35h.35c.06,.17,.12,.35,.17,.52h.17c.24,.3,.29,.35,.35,.87h.35c.06,.35,.12,.69,.17,1.04h.18v.35h.17c.07,.24-.12-.07-.17,.17,.06,.12,.12,.23,.17,.35h-.17v.69h.17v.69h.17s-.29,.79-.17,1.22h.17v1.91h.18v.52c-.06,.29-.12,.58-.18,.87h.18v.87h.17c-.06,.64-.12,1.28-.17,1.91,.06,.46,.12,.93,.17,1.39h-.17v2.26c.04,.24,.18-.07,.17,.17h-.17c.06,.58,.12,1.16,.17,1.74h-.17v1.04h-.18c.06,.23,.12,.46,.18,.69h-.18v1.39h-.17c-.06,.35-.12,.69-.17,1.04h-.18v.35h-.17c-.06,.29-.12,.58-.17,.87-.44,.71-1.17,1.1-1.4,2.08-.39,.1-.44,.15-.7,.35v.18c-.53,.17-1.05,.35-1.57,.52,.39,.44,.48,.12,.87,.35,.41,.46,.82,.93,1.22,1.39,.11,.06,.23,.12,.35,.18v.35c.29,.23,.59,.46,.87,.69v.7h.18v.35h.17v.52h.17v.35h.17v.87h.18v.35h.17c.06,.35,.12,.69,.17,1.04h.18v1.56s.19-.03,.17,.35h-.17v.17h.17v1.56h-.17v.17h.17v2.08h.18c-.06,.75-.12,1.5-.18,2.26h.18v1.56c0,1.26,.15,3.68,0,4.34v1.39h-.18v1.22h.18v.17h-.18c.06,.12,.12,.23,.18,.35h-.18v1.73h.18c.06,.35,.12,.69,.18,1.04h-.18Zm27.61-49.84h-.17c.06,.98,.11,1.97,.17,2.95-.1,.05-.35,.35-.35,.35-.29-.06-.58-.11-.87-.17-.12,.17-.23,.35-.35,.52-.39,.17-.69-.2-.87-.17v.17h-.7v.17h-1.58v-.17c-.17,.06-.35,.12-.52,.17-.2,.47-.68,1.27-1.05,1.56,.06,.23,.12,.46,.18,.69,0,0-.23,.09-.18,.35h.18v1.22h-.18v.87h.18c.05,.29-.17,.3-.18,.35v.87h.18c-.06,.23-.12,.46-.18,.69h.18v.7h-.18c.06,.52,.12,1.04,.18,1.56h-.18c.06,.52,.12,1.04,.18,1.56h-.18v.17h.18v.52c-.06,.11-.12,.23-.18,.35h.18v.69h-.18c.06,.69,.12,1.39,.18,2.08-.06,1.1-.12,2.2-.18,3.3,.06,.17,.12,.35,.18,.52h-.18v.17h.18v.18h-.18c.12,.52,.23,1.04,.35,1.56h-.17v1.74h-.18c-.08,.4,.33,.94,.18,1.56h-.18c-.09,.38,.17,.51,.18,.52-.06,.75-.12,1.51-.18,2.26v.87h.18v.17c-.06,.17-.12,.35-.18,.52,0,0,.23,.08,.18,.35h-.18v4.17h.18v.87h-.18c-.05,.3,.16,.3,.18,.35,.1,.43-.19,.97-.18,1.04h.18c.05,.7,.11,1.39,.17,2.09h-.17c.05,.35,.11,.69,.17,1.04h-.17v1.04s.22-.02,.17,.35c-.21,1.59,.1,4.13-.35,6.6-.17,.06-.35,.12-.52,.17-.06,.23-.12,.46-.18,.7-.35,.06-.7,.11-1.05,.17v.17c-.58,.17-1.04-.22-1.4-.17,0,0-.09,.22-.35,.17v-.17c-.52,.06-1.05,.12-1.57,.17v-.17h-.35v-.17h-1.57v-.17s-.57,.17-.87,.17c-.87-.06-1.75-.12-2.62-.17-.09-.17-.52-.52-.52-.52v-5.73c-.48-.56,.04-1.94-.18-2.78h-.17v-.17h.17c-.06-.12-.12-.23-.17-.35h.17c-.03-.24-.12,.06-.17-.17v-1.04c0-.31,.18-.63,.17-.7h-.17v-1.56c.06-.64,.11-1.27,.17-1.91h-.17c.06-.75,.11-1.51,.17-2.26h-.17v-.17h.17v-1.22h-.17c.06-.23,.11-.46,.17-.69h-.17v-1.56h.17c.1-.44-.39-1.67-.17-2.43,.25-.89-.06-2.37,.17-3.47h.18v-.17h-.18c.06-.18,.12-.35,.18-.52h-.18v-1.74s.19,.03,.18-.35h-.18v-.17c.11-.69,.43-2.34,.18-3.3h-.18c.12-.99,.24-1.97,.35-2.95h-.17c.06-.17,.11-.35,.17-.52v-.35h-.17c.06-.11,.11-.23,.17-.35,.09-.79-.13-1.53-.17-2.08v-2.09h-.18c.06-.11,.12-.23,.18-.35h-.18c.06-.17,.12-.35,.18-.52,.04-.46-.18-.52-.18-.52-.02-.09-.04-.19-.05-.28,.2-.04,.39-.12,.56-.23,1.43-1.07,.72-2.74-.95-2.74-.17-.03-.35-.02-.53,.02-.03-.02-.05-.05-.08-.07v-.18h-.35v-.17h-1.92c-.59-.17-1.43-.39-2.1-.52-.06-.36-.17-.35-.17-.35v-1.56h-.18v-1.22h-.17c-.05-.3,.16-.29,.17-.35v-1.39h-.17c-.2-.2,0-.07-.35-.17v-.87h.35c.09-.58,.32-1.98,.7-2.26h.35c.06-.12,.12-.23,.17-.35,.23,.06,.46,.12,.7,.17,.06-.11,.12-.23,.17-.35,.58,.06,1.16,.11,1.75,.17v-.17h1.05s.05,.22,.35,.17v-.17c.96-.24,2.8-.03,3.49,.17h2.79v.17h1.92c1.41,0,2.96,.03,3.67,.17,.35-.06,.7-.12,1.05-.17v-.17c.82,.06,1.63,.12,2.45,.17v.17c.29,.06,.3-.16,.35-.17,.79-.18,1.05-.02,1.22,.52h.87c.31,.83,.18,2.36,.18,3.47-.25,.39,.3,.59,.17,1.22m31.45,50.19c-.13,.06-.6,.12-.7,.17-.06,.12-.12,.23-.17,.35h-.35v.17h-.87v.17c-1.05-.06-2.1-.11-3.15-.17v-.17h-4.02c-.17-.31-.24-.27-.35-.69-.99-.12-.57-.43-1.05-.69h-.35c-.06-.64-.12-1.27-.18-1.91,0,0,.19,.02,.18-.35h-.18v-.17h.18v-.7c0-.4-.18-.53-.18-.69h.18v-1.91h-.18v-.17h.18c.12-.55-.09-1.28-.18-1.56v-3.47h-.17c.05-.18,.12-.35,.17-.52v-.52h-.17c.05-.17,.12-.35,.17-.52h-.17v-.17h.17v-.17h-.17v-.69h.17v-2.61h-.17c-.16-.56,.19-.81,.17-1.22h-.17c.05-.17,.12-.35,.17-.52-.05-.69-.12-1.39-.17-2.08-.17-.06-.35-.12-.52-.17-.35-.36-1-.36-1.75-.35-.41,.29-.82,.58-1.22,.87v.35c-.12,.06-.23,.12-.35,.18v2.09c.17,.19,.14,2.24,0,2.78h-.17v.17h.17c-.06,.12-.12,.23-.17,.35,.13,.21,.22-.07,.17,.18,0,0-.22,.03-.17,.35h.17v.17s-.22,.08-.17,.35c0,.02,.23,.07,.17,.35h-.17v.87h.17v1.56h.18c-.06,.23-.12,.46-.18,.69h.18c.05,.29-.16,.31-.18,.35-.08,.39,.18,.52,.18,.52,.05,.3-.16,.29-.18,.35v1.74h-.17c.06,.35,.12,.69,.17,1.04h.18v.17h-.18v.87h-.17c.06,.29,.12,.58,.17,.87h-.17v.69h.17c.2,.68,.07,2.16-.17,2.43-.06,.17-.12,.35-.17,.52h-.18v.35c-.18,.2-.49,.16-.87,.17l-.18-.52c-.15,.09-.52,.52-.52,.52-.46,.21-1.17-.14-1.4-.17h-3.67v-.17h-1.05v-.17h-.18c-.06,.11-.12,.23-.17,.35-.6,.21-1.23-.21-1.57-.35-.06-.17-.12-.35-.17-.52-.12-.06-.24-.11-.35-.17-.06-.75-.12-1.51-.17-2.26h.17c-.06-.11-.12-.23-.17-.35h.17v-.7h-.17c.06-.17,.12-.35,.17-.52v-4.69h-.17c-.05-.29,.16-.3,.17-.35v-1.91c-.25-1.53,0-3.32,0-5.21v-1.04s.23,0,.18-.35h-.18v-2.26h-.17c-.05-.3,.21-.55,.21-.96,.02,0,.04,.01,.05,.01,1.55,.12,1.9-2.14,.35-2.38-.14,0-.29,0-.44,0v-1.36h-.17c.06-.18,.12-.35,.17-.52h-.17v-.52h.17c-.06-.35-.12-.7-.17-1.04,.03-.25,.27-.28,.17-.69h-.17v-2.08s.23-.07,.17-.52h-.17v-.17h.17v-.17h-.17v-.17h.17v-1.91h-.17c.06-.41,.12-.81,.17-1.22-.06-.81-.12-1.62-.17-2.43h-.17v-.17h.17v-5.56s.23,0,.17-.35h-.17c-.06-1.22-.11-2.43-.17-3.65h.17c-.06-.93-.11-1.85-.17-2.78h-.17v-.17h.17v-1.22h.17c.08-.35-.17-.52-.17-.52-.05-.27,.17-.33,.17-.35-.06-.12-.11-.23-.17-.35h.17v-.18h-.17c-.06-.4-.12-.81-.17-1.21h.17c.06-.29,.69-1.43,.87-1.56h.35c.12-.17,.23-.35,.35-.52h.87c.32,.26,1.35,0,2.1,0,1.91,0,3.42,.31,5.07-.17h1.75v.17c.23-.06,.46-.12,.7-.17,.76,.06,1.51,.11,2.27,.17v.17c.52-.06,1.05-.11,1.57-.17v.17h.18v-.17c.35,.06,.7,.12,1.05,.17v.17h1.4v.17c.26-.05,.46-.5,.53-.52,.43-.13,.97,.6,1.22,.69,.53,.06,1.05,.12,1.58,.17,.11,.17,.23,.35,.35,.52h.52c.17,.23,.35,.46,.52,.69,.23,.06,.47,.12,.7,.17,.06,.17,.12,.35,.18,.52,.23,.17,.47,.35,.7,.52v.52c.24,.17,.46,.35,.7,.52,.06,.41,.12,.81,.17,1.21,.12,.06,.24,.12,.35,.18v.52h.17c.12,.4-.2,.47-.17,.69h.17v.87h-.17v.35h-.17v1.91h.17c.12,.42-.19,.73-.17,.87h.17v3.3h.17v.17h-.17c.06,.39,.35,1.27,.17,1.91h-.17v.17c.06,.11,.12,.23,.17,.35h-.17v2.61h-.17v.17h.17v.52c.06,.24,.2-.07,.17,.17h-.17c-.11,1.33-.23,2.66-.35,3.99h-.17v.35c-.12,.06-.24,.11-.35,.17v.52c-.17,.12-.35,.23-.52,.35v.35c-.11,.06-.24,.11-.35,.17v.35c-.12,.06-.23,.12-.35,.17-.69,.72-1.47,1.5-2.62,1.74v.35c.82,.64,1.63,1.27,2.44,1.91,.44,.61,.38,1.16,1.23,1.39,.17,.63,.35,1.27,.53,1.91h.17v1.04c.59,1.88,1.05,4.93,.7,6.77,.06,.17,.12,.35,.18,.52h-.18c.06,.52,.12,1.04,.18,1.56h-.18c-.36,1.35,.29,2.79,0,3.82h-.18v1.22h.18v2.6h.18c-.06,.23-.12,.46-.18,.7h.18c.28,1.12-.08,2.63-.35,3.3m24.99-26.4c-.19,.1-.52,.52-.52,.52h-1.05c-.06,.12-.12,.23-.17,.35-.5,.2-.88-.14-1.23-.18-1.33-.11-2.81,0-3.67,.35,.21,1.15,.28,2.92,.17,4.34-.06,.23-.12,.46-.17,.69h.17v.52h-.17c.06,.17,.12,.35,.17,.52h-.17v3.13h.17c.05,.29-.16,.3-.17,.35v2.95h-.18c.12,1.33,.23,2.66,.35,3.99,.66,.03,1.11,.22,1.58,.35,.56,.16,1.45-.09,1.75-.17h1.22v.17c.41-.06,.81-.12,1.22-.17,.06,.17,.12,.35,.18,.52,.21,.24,.29,1.23,.17,1.74,0,0-.23,0-.17,.35h.17v1.74c.16,1.01,.02,2.4,0,3.82h-.17v.17c-.55,0-.84,.01-1.22,.17v.17c-.65,.22-3.58-.05-4.02-.17h-1.75c-.06,.17-.12,.35-.17,.52h-.35v.17h-.17v-.17h-1.92v-.17h-1.4v-.17h-2.62v-.17c-1.05-.29-1.89,.27-2.62,.35-.25-.48-.81-1.24-1.22-1.56,0-1.95,0-3.17-.35-4.52,.06-.52,.12-1.04,.18-1.56h-.18v-.69h.18c-.06-.29-.12-.58-.18-.87h.18v-.17h-.18v-2.26s.22-.05,.18-.35h-.18v-1.91c.06-1.97,.12-3.94,.18-5.91h-.18c-.08-.38,.17-.52,.18-.52v-1.21s.23,.01,.17-.35h-.17v-.69h.17v-.17h-.17c.06-.11,.12-.23,.17-.35h-.17v-.17h.17v-6.6h-.17v-.17h.17v-1.39h-.17c.06-.46,.12-.92,.17-1.39h-.17v-.69h.17v-.69h-.17v-.87h.17c-.06-.17-.11-.35-.17-.52-.05-.41,.18-1,.17-1.04h-.17v-1.04c.05-.24,.2,.07,.17-.17h-.17v-1.04s.23,0,.17-.35h-.17v-.7h.17c.05-.29-.17-.3-.17-.35-.11-.5,.17-.86,.17-1.04h-.17c.06-.11,.12-.23,.17-.35,0,0-.19-.1-.17-.35h.17v-.17h-.17c-.22-1.05,.11-2.16-.18-2.6v-.17h.18v-1.74h-.18v-.69h.18c.1-.44-.16-.63-.18-.87h.18v-.17h-.18v-2.08h-.17v-.17h.17v-.87h.18c-.06-.41-.12-.81-.18-1.22,.18-.7,.48-1.42,.53-2.26h.35v-1.22c.28-.1,.41-.15,.87-.17,.72,.62,2.63-.12,3.67,.17v.17h.88v.17h2.62v.17c.7-.06,1.4-.12,2.1-.17v.17h.7v.17c.41-.06,.82-.11,1.22-.17v.17h.7v.17h.18v-.17c1.05-.06,2.1-.11,3.14-.17,.06,.17,.12,.35,.17,.52,.2,.2,.07,0,.17,.35h.35c.06,.52,.12,1.04,.18,1.56h-.18v1.74h-.17v.17h.17v2.08h.18v1.21h.17c-.06,.41-.12,.81-.17,1.22-.65,.1-.4,.1-1.05,0v-.35c-.23,.06-.47,.12-.7,.17v.18h-.87v-.18c-.7,.06-1.4,.12-2.1,.18v.17h-.7v.17c-.28,.19-.29,.24-.7,.35-.44,2.35-.18,4.6-.18,7.29,0,1.06-.07,2.82,.18,3.13,.48,.53,.65,.13,1.4,.35v.17h1.92v.17c.35,.05,.35-.17,.35-.17h1.05v.17h.7v-.17c.4-.08,.47,.1,.7,.17-.05,.22-.2,.45,0,.87,.11,.06,.23,.12,.35,.17-.06,1.16-.12,2.31-.17,3.47h-.17c-.17,.65,.39,1.35,.52,1.74v2.26Zm32.33-13.02v.52h-.18v.17h.18c-.06,.58-.12,1.16-.18,1.74-.35,.06-.7,.12-1.05,.17v.52c-.54,.1-1.86,.43-2.62,.17v-.17h-.35v-.17c-.23,.06-.47,.11-.7,.17v.17c-.34,.07-1.28-.34-1.92-.17v.17h-.87v-.17h-1.23c-.52-.11-1.05-.23-1.57-.35-.12-.17-.23-.35-.35-.52-.12-.06-.23-.12-.35-.17v-.87c-.24-.29,.04-3.19,0-4.17-.06-.64-.12-1.27-.17-1.91h-.17c-.06-.23-.12-.46-.18-.69h-.17c-.12-.52-.24-1.04-.35-1.56h-.35c-.06-.11-.12-.23-.17-.35h-.7c-.22,.22-.85,.45-1.22,.52-.23,.41-.46,.81-.7,1.22v6.25h.18c.06,.7,.12,1.39,.17,2.08,.24,.17,.47,.35,.7,.52v.17h.35c.06,.12,.12,.23,.17,.35h.35c.29,.35,.58,.7,.87,1.04h.35c.06,.11,.11,.23,.17,.35,.88,.29,1.75,.58,2.63,.87,.06,.12,.11,.23,.17,.35,.31,.27,.57,.41,1.05,.52v.35c.29,.06,.58,.12,.87,.17v.17h.35c.06,.12,.12,.23,.18,.35,.23,.06,.47,.12,.7,.17,.12,.17,.23,.35,.35,.52h.35c.06,.11,.12,.23,.18,.35h.35c.06,.12,.11,.23,.17,.35h.35c.06,.12,.12,.23,.18,.35h.35v.17c.31,.24,.35,.27,.87,.35,.12,.35,.23,.69,.35,1.04h.35c.06,.12,.12,.23,.18,.35h.17c.06,.23,.12,.46,.17,.69h.17c.12,.35,.23,.7,.35,1.04h.17c.06,.46,.12,.93,.18,1.39h.17v.52h.18v.87s.24,.05,.17,.35h-.17v.35h-.18c-.18,.55,.24,.82,.18,1.22h-.18v2.08h.18v1.56h.17v.17h-.17v.87h.17v.17h-.17v1.74c.29,1.02,.38,2.3,.35,3.65-.06,.46-.11,.93-.18,1.39h.18v1.39h-.18v.87h.18c.06,.29,.12,.58,.18,.87h-.18c-.06,.35-.11,.69-.18,1.04-.29,.12-.58,.23-.87,.35,.21,.57,.17,1.74-.18,2.26-.29,.23-.58,.46-.87,.69v.35c-.11,.06-.23,.12-.35,.18-.23,.29-.46,.58-.7,.87-.35,.23-.78-.03-1.22,.17-.06,.11-.12,.23-.18,.35-.29,.06-.58,.12-.87,.17v.17h-.35c-.06,.12-.12,.23-.17,.35h-.7v.17c-1.28,.39-2.35-.34-3.5-.35-1.21-.01-2.07,.28-3.14,0-.41,.06-.82,.11-1.22,.17v-.17h-.7v.17c-.57,.15-1.45-.09-1.75-.17h-3.84v-.17h-.35v-.17c-.29-.06-.58-.12-.87-.17-.23-.29-.47-.58-.7-.87-.35-.11-.7-.23-1.04-.35-.12-.17-.24-.35-.35-.52h-.18v-.35c-.12-.06-.23-.11-.35-.17v-.35s-.26-.23-.35-.35h-.17v-.52c-.12-.06-.23-.12-.35-.17-.06-.41-.11-.81-.17-1.22h-.17c-.03-.22,.28-.29,.17-.69-.29-1.19,.11-3-.17-4.34h-.18v-.17h.18v-1.91c-.42-1.47-.35-5.46,0-6.95,.14-.6-.5-.81,0-1.39,.15-.62,.85-1.32,1.57-1.39v.17h1.4v.17c.29-.12,.59-.23,.87-.35,.92,.17,2.31,.17,3.5,.17h1.75v.17c.18,.06,.35,.12,.52,.17v.18c.29-.06,.58-.12,.87-.18,.13,.24,.31,.53,.52,.7-.06,.35-.11,.69-.17,1.04h.17v1.21h.17v.18h-.17v.17h.17v1.22h.18v1.04h-.18c-.04,.24,.12-.07,.18,.17v2.6h.18c.16,.52-.1,1.31-.18,1.56-.25,.83,.07,2.18,.18,2.78,.43,.25,1.27,.87,1.75,.52,.98-.21,.96-.87,1.57-1.39,.06-.81,.12-1.62,.17-2.43h-.17c-.06-.23-.12-.46-.17-.69h-.17c-.07-.29,.16-.3,.17-.35v-4.34h-.17c0-.13,.3-.58,.17-1.04h-.17v-2.26h.17c.13-.57-.21-1.04-.35-1.39-.47-.22-.57-.44-1.22-.52v-.35c-.49-.1-.72-.27-1.05-.52v-.17c-.24-.06-.47-.12-.7-.17-.06-.11-.11-.23-.18-.35h-.35c-.18-.23-.35-.46-.53-.69h-.35c-.17-.23-.35-.46-.52-.7h-.35c-.06-.11-.11-.23-.17-.35h-.35v-.17h-.35v-.17c-.17-.06-.35-.12-.53-.17v-.35c-.35-.12-.7-.23-1.05-.35-.06-.12-.11-.23-.17-.35h-.53v-.17h-.35v-.18h-.35c-.12-.17-.23-.35-.35-.52h-.35c-.06-.11-.12-.23-.18-.35h-.35c-.17-.23-.34-.46-.52-.7h-.35c-.12-.17-.23-.35-.35-.52-.29-.06-.58-.11-.87-.17v-.17c-.18-.06-.35-.12-.52-.17-.52-1.04-1.05-2.09-1.57-3.13-.06-1.33-.12-2.66-.18-3.99,.09-.31,.32-1.17,.18-1.74-.29-1.13-.18-4.28-.18-6.25v-2.26h.18v-.17h-.18s.15-1.49,.18-1.56h.18v-.35h.17v-.52h.17c.06-.46,.12-.93,.18-1.39h.17c.12-.35,.23-.7,.35-1.04h.18v-.35c.23-.17,.46-.35,.7-.52v-.35c.12-.06,.23-.12,.35-.17v-.17h.35c.06-.12,.11-.23,.17-.35,.23-.06,.47-.11,.7-.17,.06-.12,.12-.23,.18-.35,.23-.06,.46-.12,.7-.17,.06-.12,.12-.23,.18-.35,.29-.06,.58-.12,.87-.17,.06,.17,.12,.35,.17,.52h1.05v.17h.17v-.17h2.27v-.17h1.05v-.17h.17c.25,.02-.07,.19,.18,.17,.25-.02-.07-.12,.17-.17h.7v.17h3.15c2.14,0,4.68-.16,6.29,.35h.87v.17h.35c.12,.17,.23,.35,.35,.52h.35c.35,.41,.7,.81,1.05,1.21,.12,.06,.24,.12,.35,.17,.06,.23,.12,.46,.17,.69,.12,.06,.23,.12,.35,.17v.35h.18c.36,.44,.5,.55,.52,1.39h.18c-.12,.64-.23,1.27-.35,1.91h.17v.35c.12,.06,.23,.12,.35,.17v1.04h.18v5.21c-.06,.11-.11,.23-.18,.35h.18v.87h.18c-.06,.52-.12,1.04-.18,1.57h.18Zm30.28,25.48c-1.79-.24-2.14,2.02-.83,1.9,.47,.12,.95,.36,.47,.84-.36,.36-.95,.24-.59,.95,.24,.12,.47,.12,.71,.24-.83,.6,.36,.95-.48,1.55-.71,.6-1.43,.36-.95,1.55,.83,.12,1.07-.24,1.79-.48,.12-.12,.6-.36,.71,0,.12,.36-.36,.36-.59,.48-1.07,1.19,.59,1.91,1.67,1.43,.02-.01,.05-.03,.07-.04-.44,.79-.88,1.59-1.33,2.39-.18,.11-.35,.23-.52,.35v.35h-.18c-.11,.17-.23,.35-.35,.52h-.35c-.06,.12-.12,.23-.17,.35-1.16,.41-2.33,.81-3.49,1.22h-2.27v-.17h-2.45v.17c-.74,.2-1.59-.14-2.1-.17-.46-.03-.62,.13-.87,.17-1.09,.18-2.29-.14-3.15-.17h-2.1v-.17h-.7v-.17h-.52v-.17h-.7v-.17h-.7v-.17h-.35v-.17h-.35c-.06-.12-.12-.23-.17-.35-.43-.4-.96-1.05-1.57-1.21-.17-.52-.35-1.04-.53-1.56-.12-.06-.23-.12-.35-.17v-.52h-.17v-.52h-.18v-.52h-.17v-2.95h.17c.11-.4-.21-.48-.17-.7h.17c.06-.64,.12-1.27,.18-1.91h-.18v-1.21s.22-.06,.18-.35h-.18v-3.47h-.17c-.2-.69,.17-1.44,.17-1.91,0-.38-.17-.35-.17-.35-.2-.7,.09-1.6,.17-2.08,.83-.46,.93-1.03,2.27-1.04,.42-.29,1.57,.42,2.45,.17,.87-.25,2.35-.17,3.49-.17h.88v-.17h.18c.11,.17,.23,.35,.35,.52,.19,.1,1.16,.3,1.4,.35,.06,.18,.12,.35,.18,.52h.17v.35h.18v1.56c0,1.2,.15,2.32,.17,3.3,.03,1.26-.26,2.41,0,3.3v1.04h.17v1.04h.17c.06,.23,.12,.46,.18,.7h.18c.12,.17,.23,.35,.35,.52h.18c.21,.13,.02-.02,.18,.17,.35-.1,.15,.02,.35-.17,1-.25,.72-.71,1.05-1.56,.42-1.07,.61-1.43,.35-2.78h-.52v-.17h.17v-.17h.17v.17h.17v-.7h.18s-.23-.61-.18-.87h.18v-.17h-.18v-.17h.18c.05-.3-.16-.29-.18-.35v-1.91h-.17v-3.13h-.17v-.87h-.17v-.35c-.21-.42-.55-.67-.7-1.22-.4-.1-.42-.15-.7-.35v-.17h-.52c-.06-.11-.12-.23-.18-.35-.24-.06-.47-.12-.7-.17-.18-.23-.35-.46-.53-.7h-.35c-.06-.12-.12-.23-.17-.35h-.35c-.12-.17-.23-.35-.35-.52-.7-.23-1.4-.46-2.1-.7-.11-.17-.23-.35-.35-.52h-.35c-.12-.17-.23-.35-.35-.52h-.35c-.06-.12-.11-.23-.17-.35-.23-.06-.46-.12-.7-.17-.12-.18-.23-.35-.35-.52-.35-.12-.7-.23-1.05-.35-.12-.17-.23-.35-.35-.52h-.35c-.18-.23-.35-.46-.52-.69h-.18v-.35c-.12-.06-.23-.12-.35-.17v-.35c-.23-.17-.46-.35-.7-.52-.06-.23-.12-.46-.17-.7-.17-.11-.35-.23-.52-.35-.06-.35-.12-.69-.18-1.04h-.17v-.35h-.18c-.34-.88,.16-1.21,0-2.08h-.17v-.17h.17c.03-.38-.17-.35-.17-.35v-2.08h.17c-.12-.29-.23-.58-.35-.87h.18v-2.43h.17c.01-.24-.13,.07-.17-.17v-1.04h.17c.01-.25-.13,.07-.17-.17v-1.74c.05-1.16,.11-2.32,.17-3.47,0-.32-.17-.87-.17-.87h.17v-.7h.18v-.35h.17v-.52h.18v-.69h.18v-.52h.17v-.35h.17v-.35c.64-.58,1.29-1.16,1.92-1.74h.53c.12-.17,.23-.35,.35-.52h1.05c.78-.23,2.61-.37,3.67-.17v.17c.17-.06,.35-.12,.52-.17,.67,0,1.58,.42,2.45,.17v-.17h.87v-.17c1.92,.12,3.85,.23,5.77,.35v.35c1.22-.09,2.48-.47,3.5-.69,.44,.74,.79,.46,1.4,.87v.17c.36,.29,.53,.56,1.05,.7,.15,.51,.41,.68,.7,1.04h.17c.06,.23,.12,.46,.17,.7,.12,.06,.24,.11,.35,.17v3.3c.06,1.1,.12,2.2,.17,3.3h-.17v3.65h-.18c-.11,.41,.18,.46,.18,.7h-.18c-.06,.87-.12,1.74-.17,2.6h.17v.7h-.17v.34h-.17v.35h-.17c-.35,.63,.08,.74-.87,.87-.41-.28-1.98,.09-2.97-.17v-.17c-.35,.06-.7,.12-1.05,.17v-.17h-1.75v-.17h-2.1s-.02-.11-.35-.17c-.39-.68-.84-.79-.87-1.91,0,0,.15-2.77,0-3.3h-.17v-.87h.17v-.17h-.17c-.05-.35,.17-.35,.17-.35-.06-.46-.12-.93-.17-1.39h-.18c-.06-.29-.11-.58-.17-.87h-.17c-.29-.36-.55-.52-.7-1.04-.29-.06-.58-.12-.88-.17-.88,.97-1.77,.55-1.75,2.61h-.18v1.39h-.18v3.13s-.23,0-.17,.35h.17c.26,1.15-.21,2.12,.35,2.95,.52,.46,1.05,.93,1.57,1.39,.3,.06,.58,.12,.87,.17,.18,.23,.35,.46,.53,.7h.35c.06,.11,.12,.23,.17,.35h.35c.11,.17,.23,.35,.35,.52h.35c.06,.12,.12,.23,.18,.35h.35c.12,.17,.23,.35,.35,.52h.52v.17c.17,.06,.35,.12,.52,.18,.06,.12,.12,.23,.18,.35h.52c.06,.12,.12,.23,.17,.35h.35v.17h.35v.17h.35v.17h.35c.12,.17,.23,.35,.35,.52,.35,.12,.7,.23,1.05,.35,.11,.17,.23,.35,.35,.52h.35c.18,.23,.35,.46,.53,.7h.35c.35,.4,.7,.81,1.05,1.22,.12,.06,.23,.11,.35,.17,.06,.23,.12,.46,.17,.7,.18,.12,.35,.23,.53,.35v.52h.17v.35h.17v.87h.17v1.04h.17v.52h.18v2.95h.17v.87h.18c-.06,.29-.12,.58-.18,.87,.21,.94,.36,2.21,.42,3.51-1.02,.39-1.55,1.42-2.82,1.31m49.83,22h-.07s-4.27,0-4.27,0l-4.28,.05-4.27,.08-4.28,.05-4.27-.16-4.27-.18-4.25,.14,.03-4.9-.19-4.95,2.04-3.65,2.29-3.46,1.97-3.65,1.96-3.64,2.08-3.58,2.23-3.5,1.87-3.7,1.08-1.98,.92-2.18,.45-2.1,.22-4.55-.22-4.55-.05-1.14,.03-.36-.11-.37-1.31-.92-1.64,.53-1.02,2.03v4.8s.13,4.73,.13,4.73l-4.27,.12-4.34,.14-4.39-.13,.18-4.13,.03-4.07v-4.07s-.25-2.09-.25-2.09l.51-2.14,.51-1.85,2.21-2.66,3.52-1.5h1s.96-.19,.96-.19l3.26,.07h3.25s3.33-.27,3.33-.27l3.41,.47,2.89,.75,2.74,1.28,1.74,2.74,.6,2.47,.18,1.62v1.62l-.12,4.61,.2,4.61,.07,4.61-.42,1.96-.29,2.02-1.73,3.59-2.31,3.24-1.87,3.49-2.08,3.37-1.65,3.62-2.44,3.85-2.42,4.04,4.15-.16,3.98,.07,3.54-.08h3.68s-.33,5.09-.33,5.09l.17,5Z"/>
  <path class="cls-1" d="M141.35,33.67l1.34-11.07-.49-.62c-8.19,.44-15.29,5.97-17.71,13.8l.61,.77,10.91,1.31c1.09-2.1,3.04-3.64,5.35-4.2m21.02,7.38l.57-.45c-.42-8.2-5.95-15.3-13.77-17.75l-.8,.63-1.31,10.88c2.1,1.09,3.64,3.05,4.2,5.35l11.12,1.34Zm-37.87,1.22l-.86,.68c.54,8.22,6.21,15.31,14.16,17.6l.34-.27,1.37-11.36c-2.1-1.09-3.64-3.05-4.2-5.35l-10.82-1.31Zm20.72,7.34l-1.33,11.04,.51,.65c8.25-.46,15.38-6.08,17.75-14l-.43-.54-11.15-1.34c-1.09,2.1-3.05,3.64-5.35,4.19"/>
  <text class="cls-3" transform="translate(391.48 32.74)"><tspan x="0" y="0"></tspan></text>
</svg>