<?xml version="1.0" encoding="UTF-8" standalone="no"?>
<!DOCTYPE svg PUBLIC "-//W3C//DTD SVG 1.1//EN" "http://www.w3.org/Graphics/SVG/1.1/DTD/svg11.dtd">
<svg width="100%" height="100%" viewBox="0 0 50 50" version="1.1" xmlns="http://www.w3.org/2000/svg" xmlns:xlink="http://www.w3.org/1999/xlink" xml:space="preserve" xmlns:serif="http://www.serif.com/" style="fill-rule:evenodd;clip-rule:evenodd;stroke-linejoin:round;stroke-miterlimit:2;">
    <g transform="matrix(1,0,0,1,0.649855,-0.932668)">
        <g transform="matrix(1.195925,0,0,1.242671,1.003135,3.358306)">
            <path d="M7.523,21.84C4.985,20.004 3.342,17.082 3.342,13.794C3.342,8.243 8.026,3.735 13.794,3.735C17.211,3.735 20.247,5.316 22.154,7.759L13.794,7.759C10.333,7.759 7.523,10.463 7.523,13.794C7.523,13.844 7.524,13.894 7.525,13.943L7.523,13.943L7.523,21.84Z" style="fill:rgb(200,200,190);"/>
        </g>
        <g transform="matrix(2.560017,0,0,3.713718,-26.231805,-17.078081)">
            <path d="M17.031,8.094L17.031,6.753L23.982,6.753L23.982,5.727C23.982,5.605 24.089,5.496 24.252,5.449C24.416,5.402 24.603,5.428 24.728,5.514C25.492,6.041 26.643,6.834 27.189,7.21C27.271,7.267 27.317,7.344 27.317,7.423C27.317,7.503 27.271,7.58 27.189,7.636C26.643,8.013 25.492,8.806 24.728,9.333C24.603,9.419 24.416,9.445 24.252,9.398C24.089,9.351 23.982,9.241 23.982,9.12C23.982,8.638 23.982,8.094 23.982,8.094L17.031,8.094Z" style="fill:rgb(200,200,190);"/>
        </g>
        <g transform="matrix(0,0.926175,-2.888447,0,28.942236,5.030052)">
            <rect x="17.031" y="6.558" width="10.467" height="1.73" style="fill:rgb(200,200,190);"/>
        </g>
    </g>
    <g transform="matrix(-1,0,0,-1,49.350145,50.932668)">
        <g transform="matrix(1.195925,0,0,1.242671,1.003135,3.358306)">
            <path d="M7.523,21.84C4.985,20.004 3.342,17.082 3.342,13.794C3.342,8.243 8.026,3.735 13.794,3.735C17.211,3.735 20.247,5.316 22.154,7.759L13.794,7.759C10.333,7.759 7.523,10.463 7.523,13.794C7.523,13.844 7.524,13.894 7.525,13.943L7.523,13.943L7.523,21.84Z" style="fill:rgb(200,200,190);"/>
        </g>
        <g transform="matrix(2.560017,0,0,3.713718,-26.231805,-17.078081)">
            <path d="M17.031,8.094L17.031,6.753L23.982,6.753L23.982,5.727C23.982,5.605 24.089,5.496 24.252,5.449C24.416,5.402 24.603,5.428 24.728,5.514C25.492,6.041 26.643,6.834 27.189,7.21C27.271,7.267 27.317,7.344 27.317,7.423C27.317,7.503 27.271,7.58 27.189,7.636C26.643,8.013 25.492,8.806 24.728,9.333C24.603,9.419 24.416,9.445 24.252,9.398C24.089,9.351 23.982,9.241 23.982,9.12C23.982,8.638 23.982,8.094 23.982,8.094L17.031,8.094Z" style="fill:rgb(200,200,190);"/>
        </g>
        <g transform="matrix(0,0.907618,-2.888447,0,28.942236,5.57061)">
            <rect x="17.031" y="6.558" width="10.467" height="1.73" style="fill:rgb(200,200,190);"/>
        </g>
    </g>
</svg>
