<?xml version="1.0" encoding="UTF-8" standalone="no"?><!DOCTYPE svg PUBLIC "-//W3C//DTD SVG 1.1//EN" "http://www.w3.org/Graphics/SVG/1.1/DTD/svg11.dtd"><svg width="100%" height="100%" viewBox="0 0 30 30" version="1.1" xmlns="http://www.w3.org/2000/svg" xmlns:xlink="http://www.w3.org/1999/xlink" xml:space="preserve" xmlns:serif="http://www.serif.com/" style="fill-rule:evenodd;clip-rule:evenodd;stroke-linejoin:round;stroke-miterlimit:2;"><path d="M11.447,12.497l-9.546,-9.546c-0.293,-0.293 -0.293,-0.768 -0,-1.061c0.293,-0.293 0.768,-0.293 1.061,0l9.546,9.546c0.293,0.293 0.293,0.768 0,1.061c-0.293,0.293 -0.768,0.293 -1.061,-0Z" style="fill:#c8c8be;"/><path d="M1.681,10.621l0,-8.2c0,-0.414 0.336,-0.75 0.75,-0.75c0.414,0 0.75,0.336 0.75,0.75l0,8.2c0,0.414 -0.336,0.75 -0.75,0.75c-0.414,0 -0.75,-0.336 -0.75,-0.75Z" style="fill:#c8c8be;"/><path d="M10.631,3.171l-8.2,0c-0.414,0 -0.75,-0.336 -0.75,-0.75c0,-0.414 0.336,-0.75 0.75,-0.75l8.2,0c0.414,0 0.75,0.336 0.75,0.75c0,0.414 -0.336,0.75 -0.75,0.75Z" style="fill:#c8c8be;"/><path d="M18.553,12.497l9.546,-9.546c0.293,-0.293 0.293,-0.768 0,-1.061c-0.293,-0.293 -0.768,-0.293 -1.061,0l-9.546,9.546c-0.293,0.293 -0.293,0.768 -0,1.061c0.293,0.293 0.768,0.293 1.061,-0Z" style="fill:#c8c8be;"/><path d="M28.319,10.621l0,-8.2c0,-0.414 -0.336,-0.75 -0.75,-0.75c-0.414,0 -0.75,0.336 -0.75,0.75l0,8.2c0,0.414 0.336,0.75 0.75,0.75c0.414,0 0.75,-0.336 0.75,-0.75Z" style="fill:#c8c8be;"/><path d="M19.369,3.171l8.2,0c0.414,0 0.75,-0.336 0.75,-0.75c0,-0.414 -0.336,-0.75 -0.75,-0.75l-8.2,0c-0.414,0 -0.75,0.336 -0.75,0.75c0,0.414 0.336,0.75 0.75,0.75Z" style="fill:#c8c8be;"/><path d="M11.447,17.497l-9.546,9.546c-0.293,0.293 -0.293,0.768 -0,1.061c0.293,0.293 0.768,0.293 1.061,-0l9.546,-9.546c0.293,-0.293 0.293,-0.768 0,-1.061c-0.293,-0.293 -0.768,-0.293 -1.061,0Z" style="fill:#c8c8be;"/><path d="M1.681,19.373l0,8.2c0,0.414 0.336,0.75 0.75,0.75c0.414,0 0.75,-0.336 0.75,-0.75l0,-8.2c0,-0.414 -0.336,-0.75 -0.75,-0.75c-0.414,0 -0.75,0.336 -0.75,0.75Z" style="fill:#c8c8be;"/><path d="M10.631,26.823l-8.2,0c-0.414,0 -0.75,0.336 -0.75,0.75c0,0.414 0.336,0.75 0.75,0.75l8.2,0c0.414,0 0.75,-0.336 0.75,-0.75c0,-0.414 -0.336,-0.75 -0.75,-0.75Z" style="fill:#c8c8be;"/><path d="M18.553,17.497l9.546,9.546c0.293,0.293 0.293,0.768 0,1.061c-0.293,0.293 -0.768,0.293 -1.061,-0l-9.546,-9.546c-0.293,-0.293 -0.293,-0.768 -0,-1.061c0.293,-0.293 0.768,-0.293 1.061,0Z" style="fill:#c8c8be;"/><path d="M28.319,19.373l0,8.2c0,0.414 -0.336,0.75 -0.75,0.75c-0.414,0 -0.75,-0.336 -0.75,-0.75l0,-8.2c0,-0.414 0.336,-0.75 0.75,-0.75c0.414,0 0.75,0.336 0.75,0.75Z" style="fill:#c8c8be;"/><path d="M19.369,26.823l8.2,0c0.414,0 0.75,0.336 0.75,0.75c0,0.414 -0.336,0.75 -0.75,0.75l-8.2,0c-0.414,0 -0.75,-0.336 -0.75,-0.75c0,-0.414 0.336,-0.75 0.75,-0.75Z" style="fill:#c8c8be;"/></svg>