<?xml version="1.0" encoding="UTF-8" standalone="no"?><!DOCTYPE svg PUBLIC "-//W3C//DTD SVG 1.1//EN" "http://www.w3.org/Graphics/SVG/1.1/DTD/svg11.dtd"><svg width="100%" height="100%" viewBox="0 0 209 209" version="1.1" xmlns="http://www.w3.org/2000/svg" xmlns:xlink="http://www.w3.org/1999/xlink" xml:space="preserve" xmlns:serif="http://www.serif.com/" style="fill-rule:evenodd;clip-rule:evenodd;stroke-linejoin:round;stroke-miterlimit:2;"><g><path d="M177.085,49.479c0,8.049 -6.538,14.584 -14.584,14.584l-116.666,0c-8.05,0 -14.584,-6.535 -14.584,-14.584c0,-8.049 6.534,-14.584 14.584,-14.584l116.666,0c8.046,0 14.584,6.535 14.584,14.584Z" style="fill:#c8c8be;"/></g><g><path d="M177.085,104.166c0,8.049 -6.538,14.584 -14.584,14.584l-116.666,0c-8.05,0 -14.584,-6.535 -14.584,-14.584c0,-8.049 6.534,-14.584 14.584,-14.584l116.666,0c8.046,0 14.584,6.535 14.584,14.584Z" style="fill:#c8c8be;"/></g><g><path d="M177.085,158.854c0,8.049 -6.538,14.584 -14.584,14.584l-116.666,0c-8.05,0 -14.584,-6.535 -14.584,-14.584c0,-8.049 6.534,-14.584 14.584,-14.584l116.666,0c8.046,0 14.584,6.535 14.584,14.584Z" style="fill:#c8c8be;"/></g></svg>