<?xml version="1.0" encoding="UTF-8" standalone="no"?><!DOCTYPE svg PUBLIC "-//W3C//DTD SVG 1.1//EN" "http://www.w3.org/Graphics/SVG/1.1/DTD/svg11.dtd"><svg width="100%" height="100%" viewBox="0 0 30 30" version="1.1" xmlns="http://www.w3.org/2000/svg" xmlns:xlink="http://www.w3.org/1999/xlink" xml:space="preserve" xmlns:serif="http://www.serif.com/" style="fill-rule:evenodd;clip-rule:evenodd;stroke-linejoin:round;stroke-miterlimit:2;"><path d="M2.961,1.891l9.546,9.546c0.293,0.293 0.293,0.768 0,1.061c-0.293,0.293 -0.768,0.293 -1.061,-0l-9.546,-9.546c-0.293,-0.293 -0.293,-0.768 -0,-1.061c0.293,-0.293 0.768,-0.293 1.061,0Z" style="fill:#c8c8be;"/><path d="M12.727,3.767l0,8.2c0,0.414 -0.336,0.75 -0.75,0.75c-0.414,0 -0.75,-0.336 -0.75,-0.75l0,-8.2c0,-0.414 0.336,-0.75 0.75,-0.75c0.414,0 0.75,0.336 0.75,0.75Z" style="fill:#c8c8be;"/><path d="M3.777,11.217l8.2,0c0.414,0 0.75,0.336 0.75,0.75c0,0.414 -0.336,0.75 -0.75,0.75l-8.2,0c-0.414,0 -0.75,-0.336 -0.75,-0.75c0,-0.414 0.336,-0.75 0.75,-0.75Z" style="fill:#c8c8be;"/><path d="M27.039,1.891l-9.546,9.546c-0.293,0.293 -0.293,0.768 -0,1.061c0.293,0.293 0.768,0.293 1.061,-0l9.546,-9.546c0.293,-0.293 0.293,-0.768 0,-1.061c-0.293,-0.293 -0.768,-0.293 -1.061,0Z" style="fill:#c8c8be;"/><path d="M17.273,3.767l0,8.2c0,0.414 0.336,0.75 0.75,0.75c0.414,0 0.75,-0.336 0.75,-0.75l0,-8.2c0,-0.414 -0.336,-0.75 -0.75,-0.75c-0.414,0 -0.75,0.336 -0.75,0.75Z" style="fill:#c8c8be;"/><path d="M26.223,11.217l-8.2,0c-0.414,0 -0.75,0.336 -0.75,0.75c0,0.414 0.336,0.75 0.75,0.75l8.2,0c0.414,0 0.75,-0.336 0.75,-0.75c0,-0.414 -0.336,-0.75 -0.75,-0.75Z" style="fill:#c8c8be;"/><path d="M2.961,28.104l9.546,-9.546c0.293,-0.293 0.293,-0.768 0,-1.061c-0.293,-0.293 -0.768,-0.293 -1.061,0l-9.546,9.546c-0.293,0.293 -0.293,0.768 -0,1.061c0.293,0.293 0.768,0.293 1.061,-0Z" style="fill:#c8c8be;"/><path d="M12.727,26.228l0,-8.2c0,-0.414 -0.336,-0.75 -0.75,-0.75c-0.414,0 -0.75,0.336 -0.75,0.75l0,8.2c0,0.414 0.336,0.75 0.75,0.75c0.414,0 0.75,-0.336 0.75,-0.75Z" style="fill:#c8c8be;"/><path d="M3.777,18.778l8.2,0c0.414,0 0.75,-0.336 0.75,-0.75c0,-0.414 -0.336,-0.75 -0.75,-0.75l-8.2,0c-0.414,0 -0.75,0.336 -0.75,0.75c0,0.414 0.336,0.75 0.75,0.75Z" style="fill:#c8c8be;"/><path d="M27.039,28.104l-9.546,-9.546c-0.293,-0.293 -0.293,-0.768 -0,-1.061c0.293,-0.293 0.768,-0.293 1.061,0l9.546,9.546c0.293,0.293 0.293,0.768 0,1.061c-0.293,0.293 -0.768,0.293 -1.061,-0Z" style="fill:#c8c8be;"/><path d="M17.273,26.228l0,-8.2c0,-0.414 0.336,-0.75 0.75,-0.75c0.414,0 0.75,0.336 0.75,0.75l0,8.2c0,0.414 -0.336,0.75 -0.75,0.75c-0.414,0 -0.75,-0.336 -0.75,-0.75Z" style="fill:#c8c8be;"/><path d="M26.223,18.778l-8.2,0c-0.414,0 -0.75,-0.336 -0.75,-0.75c0,-0.414 0.336,-0.75 0.75,-0.75l8.2,0c0.414,0 0.75,0.336 0.75,0.75c0,0.414 -0.336,0.75 -0.75,0.75Z" style="fill:#c8c8be;"/></svg>