<?xml version="1.0" encoding="UTF-8" standalone="no"?><!DOCTYPE svg PUBLIC "-//W3C//DTD SVG 1.1//EN" "http://www.w3.org/Graphics/SVG/1.1/DTD/svg11.dtd"><svg width="100%" height="100%" viewBox="0 0 584 417" version="1.1" xmlns="http://www.w3.org/2000/svg" xmlns:xlink="http://www.w3.org/1999/xlink" xml:space="preserve" xmlns:serif="http://www.serif.com/" style="fill-rule:evenodd;clip-rule:evenodd;stroke-linejoin:round;stroke-miterlimit:2;"><rect id="Artboard1" x="0" y="0" width="583.333" height="416.667" style="fill:none;"/><path d="M209.398,89.86l0,-10.693c0,-12.142 6.287,-23.417 16.613,-29.8c10.329,-6.383 23.225,-6.962 34.083,-1.533l258.333,129.167c11.867,5.933 19.362,18.062 19.362,31.333c0,13.267 -7.496,25.4 -19.362,31.333l-258.333,129.167c-10.858,5.429 -23.754,4.85 -34.083,-1.533c-10.329,-6.383 -16.613,-17.658 -16.613,-29.8l0,-10.693l165.389,-82.693c13.551,-6.775 22.111,-20.631 22.111,-35.78c0,-15.154 -8.56,-29.005 -22.111,-35.78l-165.389,-82.693Z" style="fill:#f5e5c1;"/><path d="M354.232,239.667l-258.333,129.167c-10.858,5.429 -23.754,4.85 -34.083,-1.533c-10.329,-6.383 -16.613,-17.658 -16.613,-29.8l0,-258.333c0,-12.142 6.288,-23.417 16.613,-29.8c10.329,-6.383 23.225,-6.962 34.083,-1.533l258.333,129.167c11.867,5.933 19.363,18.062 19.363,31.333c0,13.267 -7.496,25.4 -19.363,31.333Z" style="fill:#f5e5c1;"/></svg>