<svg xmlns="http://www.w3.org/2000/svg" viewBox="0 0 358.53 366.95"><defs><filter id="prefix__c" filterUnits="userSpaceOnUse"><feOffset dx="5" dy="4"/><feGaussianBlur result="blur"/><feFlood flood-color="#000" flood-opacity=".75"/><feComposite in2="blur" operator="in"/><feComposite in="SourceGraphic"/></filter><filter id="prefix__d" filterUnits="userSpaceOnUse"><feOffset dx="1" dy="1"/><feGaussianBlur result="blur-2"/><feFlood flood-color="#000" flood-opacity="1"/><feComposite in2="blur-2" operator="in"/><feComposite in="SourceGraphic"/></filter><filter id="prefix__e" filterUnits="userSpaceOnUse"><feOffset dx="1" dy="1"/><feGaussianBlur result="blur-3"/><feFlood flood-color="#000" flood-opacity="1"/><feComposite in2="blur-3" operator="in"/><feComposite in="SourceGraphic"/></filter><radialGradient id="prefix__b" data-name="Dégradé sans nom 2" cx="138" cy="-163.54" fx="138" fy="-163.54" r="304.65" gradientTransform="rotate(12.2 478.148 -438.607) scale(1 -.6)" gradientUnits="userSpaceOnUse"><stop offset="0" stop-color="#fff" stop-opacity="0"/><stop offset=".47" stop-color="#fff" stop-opacity=".08"/><stop offset=".99" stop-color="#fff" stop-opacity=".21"/><stop offset="1" stop-color="#fff" stop-opacity="0"/></radialGradient><linearGradient id="prefix__a" data-name="Dégradé sans nom" x1="219.36" y1="-384.36" x2="140.11" y2="-35.58" gradientTransform="matrix(1 0 0 -1 0 -31.17)" gradientUnits="userSpaceOnUse"><stop offset="0" stop-color="#5d1f0e"/><stop offset="1" stop-color="#d09737"/></linearGradient></defs><g data-name="Layer 1"><g data-name="svg3428 copy"><path d="M223.17 14.92c77.28 19.74 134.42 89.81 134.42 173.24 0 1.9-.04 3.8-.1 5.69l-120.26-17.11c-3.52-18.12-15.26-33.29-31.18-41.51l17.12-120.31zM125.86 160.9c8.22-15.92 23.39-27.65 41.51-31.18L184.48 9.46c-1.89-.06-3.78-.1-5.69-.1-83.42.01-153.5 57.15-173.24 134.42l120.31 17.12zm25.67 80.19c-15.92-8.22-27.65-23.39-31.18-41.51L.1 182.47c-.06 1.89-.1 3.78-.1 5.69 0 83.42 57.14 153.5 134.42 173.24l17.11-120.31zm80.19-25.67c-8.22 15.92-23.39 27.66-41.51 31.18L173.1 366.86c1.89.06 3.79.1 5.69.1 83.42 0 153.5-57.14 173.24-134.42l-120.31-17.12z"/><path d="M224.11 5.55c77.28 19.73 134.42 89.81 134.42 173.24 0 1.9-.04 3.8-.1 5.69l-120.26-17.1c-3.52-18.12-15.26-33.29-31.18-41.51L224.11 5.55zm-97.3 145.98c8.22-15.92 23.39-27.65 41.51-31.18L185.42.1c-1.89-.06-3.78-.1-5.69-.1C96.31 0 26.23 57.14 6.5 134.42l120.31 17.12zm25.67 80.19c-15.92-8.22-27.65-23.39-31.18-41.51L1.04 173.11c-.06 1.89-.1 3.79-.1 5.69 0 83.42 57.14 153.5 134.42 173.24l17.11-120.31zm80.19-25.67c-8.22 15.92-23.39 27.65-41.51 31.18l-17.11 120.26c1.89.06 3.79.1 5.69.1 83.43 0 153.5-57.14 173.24-134.42l-120.31-17.12z" fill="url(#prefix__a)"/><path d="M224.11 5.55c77.28 19.73 134.42 89.81 134.42 173.24 0 1.9-.04 3.8-.1 5.69l-120.26-17.1c-3.52-18.12-15.26-33.29-31.18-41.51L224.11 5.55zm-97.3 145.98c8.22-15.92 23.39-27.65 41.51-31.18L185.42.1c-1.89-.06-3.78-.1-5.69-.1C96.31 0 26.23 57.14 6.5 134.42l120.31 17.12zm25.67 80.19c-15.92-8.22-27.65-23.39-31.18-41.51L1.04 173.11c-.06 1.89-.1 3.79-.1 5.69 0 83.42 57.14 153.5 134.42 173.24l17.11-120.31zm80.19-25.67c-8.22 15.92-23.39 27.65-41.51 31.18l-17.11 120.26c1.89.06 3.79.1 5.69.1 83.43 0 153.5-57.14 173.24-134.42l-120.31-17.12z" fill="url(#prefix__b)"/></g></g><g data-name="Calque 3" filter="url(#prefix__c)"><path d="M149.66 91.52l52.8-2.48c43.7-2.05 80.79 31.71 82.84 75.41h0c1.79 38.03-27.6 70.31-65.63 72.1l-24.89 1.17 2.06 43.92c.11 2.39-2.78 3.67-4.47 1.97l-42.59-42.85h0c-39.3 2.35-72.94-27.88-74.79-67.2h0c-2.03-43.27 31.4-79.99 74.66-82.02z" fill="#fff" stroke-width="3" stroke="#000" stroke-miterlimit="10"/><g filter="url(#prefix__d)"><path d="M152.94 175.54l-5.92-10.08a.44.44 0 00-.4-.22l-25.83 1.21c-.19 0-.35.14-.4.32l-6.79 23.89c-.06.22-.29.36-.52.31l-20.04-4.53a.445.445 0 01-.32-.57l27.11-80.1c.06-.18.23-.3.42-.3l16.61.31c.17 0 .32.1.39.25l24.76 52.16c.06.12.06.26 0 .38l-8.29 17.03c-.19.29-.64.25-.77-.07zm-11.46-21.02l-10.66-22.02c-.18-.36-.71-.32-.82.07l-6.4 22.83c-.08.29.14.57.44.56l17.06-.8c.31-.01.51-.35.37-.63z" stroke="#000" stroke-miterlimit="10" stroke-width="2" fill="#bb3434"/></g><path d="M148.27 228.76l-9.98-4.62 58.78-123.82 9.99 4.62-58.79 123.82z"/><g filter="url(#prefix__e)"><path d="M193.93 147.29999999999998l10.5-.49c.36-.02.65-.33.63-.69l-.24-5.21c-.09-1.99-.32-3.77-.67-5.45-.08-.4.2-.78.61-.8l14.31-.67c.41-.02.73.34.68.74-.2 1.69-.25 3.41-.16 5.4l.25 5.31c.02.36.33.65.69.63l22.56-1.06c4.94-.23 8.6-.57 12.2-1.16.23-.04.45.13.46.37l.61 13.06c.02.39-.3.71-.69.69-3.45-.16-6.96-.16-11.42.05l-1.6.08c-.3.01-.55.24-.62.53-1.75 8.11-2.95 11.99-5.65 17.8-2.65 5.6-5.52 10.2-9.36 15.04-.25.32-.17.79.18.99 9.8 5.82 18.67 8.79 32.2 10.91.49.08.73.64.44 1.04-3.09 4.44-4.69 7.87-6.57 13.4-.11.33-.48.53-.82.44-15.54-4.19-24.89-8.37-35.61-15.76a.66.66 0 00-.8.04c-9.66 8.09-19.35 13.42-34.98 19.18a.697.697 0 01-.85-.36c-2.05-4.62-4.02-7.91-7.45-12.04a.666.666 0 01.33-1.07c14.74-4.38 23.64-8.54 31.81-14.71a.67.67 0 00.07-1c-4.75-4.82-8.42-9.55-11.78-14.98-3.25-5.31-3.37-7.14-6.33-15.14a.647.647 0 01.02-.51l6.48-14.17c.1-.22.32-.37.57-.39zm7.17 12.73c-.45.02-.75.48-.59.9 2.03 5.32 3.47 8.22 6.48 12.71 2.61 3.95 4.84 6.61 7.67 9.4.28.28.75.25.99-.05 2.55-3.15 4.49-6.23 6.31-9.96 2.26-4.43 3.09-6.93 4.65-13.35.1-.43-.23-.84-.67-.82l-24.83 1.17z" fill="#7a9be3" stroke="#000" stroke-miterlimit="10" stroke-width="2"/></g></g></svg>