<?xml version="1.0" encoding="UTF-8" standalone="no"?><!DOCTYPE svg PUBLIC "-//W3C//DTD SVG 1.1//EN" "http://www.w3.org/Graphics/SVG/1.1/DTD/svg11.dtd"><svg width="100%" height="100%" viewBox="0 0 417 417" version="1.1" xmlns="http://www.w3.org/2000/svg" xmlns:xlink="http://www.w3.org/1999/xlink" xml:space="preserve" xmlns:serif="http://www.serif.com/" style="fill-rule:evenodd;clip-rule:evenodd;stroke-linejoin:round;stroke-miterlimit:2;"><path d="M166.667,72.917l0,270.833c0,17.246 -14.004,31.25 -31.25,31.25l-62.5,0c-17.246,0 -31.25,-14.004 -31.25,-31.25l0,-270.833c0,-17.246 14.004,-31.25 31.25,-31.25l62.5,0c17.246,0 31.25,14.004 31.25,31.25Z" style="fill:#c8c8be;"/><path d="M375,72.917l0,270.833c0,17.246 -14.004,31.25 -31.25,31.25l-62.5,0c-17.246,0 -31.25,-14.004 -31.25,-31.25l0,-270.833c0,-17.246 14.004,-31.25 31.25,-31.25l62.5,0c17.246,0 31.25,14.004 31.25,31.25Z" style="fill:#c8c8be;"/></svg>