<?xml version="1.0" encoding="UTF-8" standalone="no"?><!DOCTYPE svg PUBLIC "-//W3C//DTD SVG 1.1//EN" "http://www.w3.org/Graphics/SVG/1.1/DTD/svg11.dtd"><svg width="100%" height="100%" viewBox="0 0 2434 1738" version="1.1" xmlns="http://www.w3.org/2000/svg" xmlns:xlink="http://www.w3.org/1999/xlink" xml:space="preserve" xmlns:serif="http://www.serif.com/" style="fill-rule:evenodd;clip-rule:evenodd;stroke-linejoin:round;stroke-miterlimit:2;"><rect id="Artboard1" x="0" y="0" width="2430.554" height="1736.112" style="fill:none;"/><path d="M1558.063,374.425l0,-44.563c0,-50.592 -26.2,-97.571 -69.221,-124.167c-43.037,-26.596 -96.771,-29.008 -142.012,-6.387l-1076.388,538.196c-49.446,24.721 -80.675,75.258 -80.675,130.554c0,55.279 31.233,105.833 80.675,130.554l1076.388,538.196c45.242,22.621 98.975,20.208 142.012,-6.388c43.038,-26.596 69.221,-73.575 69.221,-124.167l0,-44.554l-689.121,-344.554c-56.462,-28.229 -92.129,-85.963 -92.129,-149.083c0,-63.142 35.667,-120.854 92.129,-149.083l689.121,-344.554Z" style="fill:#c8c8be;"/><path d="M954.592,998.613l1076.388,538.196c45.242,22.621 98.975,20.208 142.012,-6.388c43.037,-26.596 69.217,-73.575 69.217,-124.167l0,-1076.388c0,-50.592 -26.2,-97.571 -69.217,-124.167c-43.037,-26.596 -96.771,-29.008 -142.012,-6.388l-1076.388,538.196c-49.446,24.721 -80.679,75.258 -80.679,130.554c0,55.279 31.233,105.833 80.679,130.554l-0,-0.004Z" style="fill:#c8c8be;"/></svg>