<?xml version="1.0" encoding="UTF-8" standalone="no"?>
<!DOCTYPE svg PUBLIC "-//W3C//DTD SVG 1.1//EN" "http://www.w3.org/Graphics/SVG/1.1/DTD/svg11.dtd">
<svg width="100%" height="100%" viewBox="0 0 2434 1738" version="1.1" xmlns="http://www.w3.org/2000/svg" xmlns:xlink="http://www.w3.org/1999/xlink" xml:space="preserve" xmlns:serif="http://www.serif.com/" style="fill-rule:evenodd;clip-rule:evenodd;stroke-linejoin:round;stroke-miterlimit:2;">
    <g transform="matrix(-1,0,0,1,2422.018534,0.469899)">
        <path d="M1475.967,998.613L399.579,1536.809C354.337,1559.43 300.604,1557.017 257.567,1530.421C214.529,1503.825 188.346,1456.846 188.346,1406.254L188.346,329.866C188.346,279.274 214.546,232.295 257.567,205.699C300.605,179.103 354.338,176.691 399.579,199.311L1475.967,737.507C1525.413,762.228 1556.646,812.765 1556.646,868.061C1556.646,923.34 1525.413,973.894 1475.967,998.615L1475.967,998.611L1475.967,998.613Z" style="fill:rgb(200,200,190);"/>
    </g>
    <g transform="matrix(-1.339674,0,0,1.026075,2866.522177,-39.064298)">
        <path d="M1598.54,327.313L1598.54,1443.579C1598.54,1503.539 1561.255,1552.219 1515.331,1552.219L1472.186,1552.219C1426.262,1552.219 1388.978,1503.539 1388.978,1443.579L1388.978,327.313C1388.978,267.353 1426.262,218.674 1472.186,218.674L1515.331,218.674C1561.255,218.674 1598.54,267.353 1598.54,327.313Z" style="fill:rgb(200,200,190);"/>
    </g>
</svg>
