<?xml version="1.0" encoding="UTF-8"?>
<svg id="Calque_2" data-name="Calque 2" xmlns="http://www.w3.org/2000/svg" xmlns:xlink="http://www.w3.org/1999/xlink" viewBox="0 0 357.59 357.6">
  <defs>
    <style>
      .cls-1 {
        mask: url(#mask);
      }

      .cls-2 {
        filter: url(#luminosity-noclip);
      }

      .cls-3 {
        fill: #1a5e7e;
      }

      .cls-4 {
        fill: url(#Dégradé_sans_nom);
      }

      .cls-5 {
        fill: #efe5b8;
      }

      .cls-6 {
        fill: #aa2529;
      }
    </style>
    <filter id="luminosity-noclip" x="0" y="0" width="359.57" height="357.6" color-interpolation-filters="sRGB" filterUnits="userSpaceOnUse">
      <feFlood flood-color="#fff" result="bg"/>
      <feBlend in="SourceGraphic" in2="bg"/>
    </filter>
    <mask id="mask" x="0" y="0" width="359.57" height="357.6" maskUnits="userSpaceOnUse">
      <g class="cls-2">
        <g>
          <path d="M139.97,311.9c-19.43-5.52-33.92-16.73-30.64-33.6,2.42-11.31,17.63-23.93,41.1-19.91,6.14,1.32,17.98,7.57,22.84,11.66,10.13,7.92,8.7,22.48,2,33.21-5.98,10.54-25.5,11.77-35.31,8.65h.01ZM186.11,227.51c-12.3-.95-32.14-4.53-39.09-13.11,8.13-44.21,36.42-132.08,51.66-165.31,21,4.5,54.36,14.36,64.22,28.3-23.93,48.6-56.68,102.06-76.78,150.12h0Z"/>
          <path d="M238.15,149.93l17.82-.47.4-6.24-.8-23.74,19.71.6,13.68,1.41-1.61,18.71v8.65l38.62.2,28.57,1.81.8,13.88-2.01,15.09-35.61-1.41,13.68,4.63-14.48,31.79-18.31,24.14,21.53,12.07,39.43,15.89-7.04,17.7-9.66,11.27-26.55-11.87-25.35-13.48-14.89-10.26-33.8,20.72-34,12.88-6.44-9.05-5.63-18.51,25.75-9.05,23.13-12.88,4.63-4.02-17.3-17.1-19.71-28.37,16.09-11.06,11.87-4.43,16.09,24.14,15.69,16.5,6.04-5.83,11.47-17.3,7.04-19.11-41.44-.2-33.03,1.51"/>
          <path d="M131.68,209.58c-.5-10.4-1.81-22.7-4.26-30.61-8.5,3-22.25,3.25-28.5,3.25-2.25,0-7.75-.25-11-.5-3.25,9.75-4.25,24.75-6.25,35-4.25,2.25-9.5,2.25-12.75,2.25-4.25,0-15.5-1-22-2.75,4.75-42.5,21.5-118.75,41-195,7.75-1.75,15-2.5,22.25-2.5,4,0,14.5.75,33.75,1.75,6.17,28.54,11.64,58.82,16.53,89.27M114.92,79.47c-1-4.75-2.75-4.75-3.75-4.75-1.5,0-5.25,2.5-6.5,6-3.25,9.25-8.5,40.75-13.25,65.75,4,1,9.5,1.25,13.5,1.25,3,0,14.75-.25,19.25-3-1.25-17.75-7.25-56.5-9.25-65.25Z"/>
        </g>
      </g>
    </mask>
    <radialGradient id="Dégradé_sans_nom" data-name="Dégradé sans nom" cx="178.79" cy="179.71" fx="178.79" fy="179.71" r="178.8" gradientTransform="translate(0 358.51) scale(1 -1)" gradientUnits="userSpaceOnUse">
      <stop offset=".31" stop-color="#d17000"/>
      <stop offset=".43" stop-color="#c76901"/>
      <stop offset=".78" stop-color="#b05906"/>
      <stop offset="1" stop-color="#a85308"/>
    </radialGradient>
  </defs>
  <g class="cls-1">
    <path class="cls-4" d="M223.17,5.56c77.28,19.74,134.42,89.81,134.42,173.24,0,1.9-.04,3.8-.1,5.69l-120.26-17.11c-3.52-18.12-15.26-33.29-31.18-41.51L223.17,5.56h0ZM125.86,151.54c8.22-15.92,23.39-27.65,41.51-31.18L184.48.1c-1.89-.06-3.78-.1-5.69-.1C95.37.01,25.29,57.15,5.55,134.42l120.31,17.12h0ZM151.53,231.73c-15.92-8.22-27.65-23.39-31.18-41.51L.1,173.11c-.06,1.89-.1,3.78-.1,5.69,0,83.42,57.14,153.5,134.42,173.24l17.11-120.31h0ZM231.72,206.06c-8.22,15.92-23.39,27.66-41.51,31.18l-17.11,120.26c1.89.06,3.79.1,5.69.1,83.42,0,153.5-57.14,173.24-134.42l-120.31-17.12h0Z"/>
  </g>
  <path class="cls-6" d="M125.82,203.73c-.5-10.4-1.81-22.7-4.26-30.61-8.5,3-22.25,3.25-28.5,3.25-2.25,0-7.75-.25-11-.5-3.25,9.75-4.25,24.75-6.25,35-4.25,2.25-9.5,2.25-12.75,2.25-4.25,0-15.5-1-22-2.75,4.75-42.5,21.5-118.75,41-195,7.75-1.75,15-2.5,22.25-2.5,4,0,14.5.75,33.75,1.75,6.17,28.54,11.64,58.82,16.53,89.27M109.06,73.62c-1-4.75-2.75-4.75-3.75-4.75-1.5,0-5.25,2.5-6.5,6-3.25,9.25-8.5,40.75-13.25,65.75,4,1,9.5,1.25,13.5,1.25,3,0,14.75-.25,19.25-3-1.25-17.75-7.25-56.5-9.25-65.25Z"/>
  <path class="cls-3" d="M232.29,144.08l17.82-.47.4-6.24-.8-23.74,19.71.6,13.68,1.41-1.61,18.71v8.65l38.62.2,28.57,1.81.8,13.88-2.01,15.09-35.61-1.41,13.68,4.63-14.48,31.79-18.31,24.14,21.53,12.07,39.43,15.89-7.04,17.7-9.66,11.27-26.55-11.87-25.35-13.48-14.89-10.26-33.8,20.72-34,12.88-6.44-9.05-5.63-18.51,25.75-9.05,23.13-12.88,4.63-4.02-17.3-17.1-19.71-28.37,16.09-11.06,11.87-4.43,16.09,24.14,15.69,16.5,6.04-5.83,11.47-17.3,7.04-19.11-41.44-.2-33.03,1.51"/>
  <path class="cls-5" d="M134.12,306.05c-19.43-5.52-33.92-16.73-30.64-33.6,2.42-11.31,17.63-23.93,41.1-19.91,6.14,1.32,17.98,7.57,22.84,11.66,10.13,7.92,8.7,22.48,2,33.21-5.98,10.54-25.5,11.77-35.31,8.65h.01ZM180.25,221.66c-12.3-.95-32.14-4.53-39.09-13.11,8.13-44.21,36.42-132.08,51.66-165.31,21,4.5,54.36,14.36,64.22,28.3-23.93,48.6-56.68,102.06-76.78,150.12h-.01Z"/>
</svg>